LibertinusSerif-Medium.ufo
<glyph name="numbersign" format="2">
	<unicode hex="0023"/>
	<advance width="481"/>
	<outline>
		<contour>
			<point x="343" y="360" type="line"/>
			<point x="445.667" y="360" type="line"/>
			<point x="454" y="417.333" type="line"/>
			<point x="351" y="417.333" type="line"/>
			<point x="379.333" y="594.333" type="line"/>
			<point x="336.667" y="594.333" type="line"/>
			<point x="330.199" y="554.963"/>
			<point x="315.134" y="456.704"/>
			<point x="308.667" y="417.333" type="curve"/>
			<point x="200.333" y="417.333" type="line"/>
			<point x="230.333" y="594.333" type="line"/>
			<point x="186.333" y="594.333" type="line"/>
			<point x="179.757" y="554.981"/>
			<point x="163.91" y="456.686"/>
			<point x="157.333" y="417.333" type="curve"/>
			<point x="62" y="417.333" type="line"/>
			<point x="53.6667" y="360" type="line"/>
			<point x="149" y="360" type="line"/>
			<point x="145.266" y="334.458"/>
			<point x="135.409" y="273.261"/>
			<point x="131.333" y="247.667" type="curve"/>
			<point x="35.3333" y="247.667" type="line"/>
			<point x="27" y="190.333" type="line"/>
			<point x="122" y="190.333" type="line"/>
			<point x="94" y="14" type="line"/>
			<point x="137" y="14" type="line"/>
			<point x="143.916" y="53.2806"/>
			<point x="159.309" y="149.722"/>
			<point x="166.333" y="190.333" type="curve"/>
			<point x="273" y="190.333" type="line"/>
			<point x="245.333" y="14" type="line"/>
			<point x="288.333" y="14" type="line"/>
			<point x="295.025" y="53.259"/>
			<point x="310.863" y="149.74"/>
			<point x="317.667" y="190.333" type="curve"/>
			<point x="420" y="190.333" type="line"/>
			<point x="427.333" y="247.667" type="line"/>
			<point x="324.667" y="247.667" type="line"/>
		</contour>
		<contour>
			<point x="282.333" y="247.667" type="line"/>
			<point x="174.333" y="247.667" type="line"/>
			<point x="178.518" y="273.22"/>
			<point x="189.149" y="334.447"/>
			<point x="193.333" y="360" type="curve"/>
			<point x="300" y="360" type="line"/>
		</contour>
	</outline>
</glyph>
<glyph name="percent" format="2">
	<unicode hex="0025"/>
	<advance width="637"/>
	<outline>
		<contour>
			<point x="55" y="410.333" type="curve" smooth="yes"/>
			<point x="55" y="353.667"/>
			<point x="84.6667" y="301"/>
			<point x="150" y="301" type="curve" smooth="yes"/>
			<point x="232.333" y="301"/>
			<point x="279.667" y="402.667"/>
			<point x="279.667" y="478.333" type="curve" smooth="yes"/>
			<point x="279.667" y="486.333"/>
			<point x="279" y="494.333"/>
			<point x="277.333" y="501" type="curve"/>
			<point x="296.333" y="490.333"/>
			<point x="331.667" y="480.667"/>
			<point x="354" y="480.667" type="curve" smooth="yes"/>
			<point x="384" y="480.667"/>
			<point x="423" y="485.667"/>
			<point x="461.333" y="501" type="curve"/>
			<point x="100" y="0.666667" type="line"/>
			<point x="140.667" y="-13.3333" type="line"/>
			<point x="551" y="555.333" type="line"/>
			<point x="514" y="573" type="line"/>
			<point x="479.667" y="530.333"/>
			<point x="406" y="520.333"/>
			<point x="364" y="520.333" type="curve" smooth="yes"/>
			<point x="340" y="520.333"/>
			<point x="305.667" y="523"/>
			<point x="258.333" y="545.333" type="curve"/>
			<point x="246" y="558.667"/>
			<point x="218.333" y="569.333"/>
			<point x="191" y="569.333" type="curve" smooth="yes"/>
			<point x="113.333" y="569.333"/>
			<point x="55" y="495.667"/>
		</contour>
		<contour>
			<point x="375.333" y="95.6667" type="curve" smooth="yes"/>
			<point x="375.333" y="37.6667"/>
			<point x="406.333" y="-14.3333"/>
			<point x="471" y="-14.3333" type="curve" smooth="yes"/>
			<point x="552.667" y="-14.3333"/>
			<point x="600" y="85.3333"/>
			<point x="600" y="163" type="curve" smooth="yes"/>
			<point x="600" y="235.667"/>
			<point x="554.667" y="254"/>
			<point x="512" y="254" type="curve" smooth="yes"/>
			<point x="433" y="254"/>
			<point x="375.333" y="177"/>
		</contour>
		<contour>
			<point x="122" y="388.333" type="curve" smooth="yes"/>
			<point x="122" y="439.333"/>
			<point x="150.333" y="536.667"/>
			<point x="202" y="536.667" type="curve" smooth="yes"/>
			<point x="218.667" y="536.667"/>
			<point x="243.667" y="527.667"/>
			<point x="243.667" y="477" type="curve" smooth="yes"/>
			<point x="243.667" y="424.333"/>
			<point x="213" y="334.667"/>
			<point x="159.667" y="334.667" type="curve" smooth="yes"/>
			<point x="141.667" y="334.667"/>
			<point x="122" y="346.667"/>
		</contour>
		<contour>
			<point x="443" y="73" type="curve" smooth="yes"/>
			<point x="443" y="124"/>
			<point x="471.333" y="221.333"/>
			<point x="523" y="221.333" type="curve" smooth="yes"/>
			<point x="537" y="221.333"/>
			<point x="564" y="213.667"/>
			<point x="564" y="161.667" type="curve" smooth="yes"/>
			<point x="564" y="110.333"/>
			<point x="534" y="19.3333"/>
			<point x="480.667" y="19.3333" type="curve" smooth="yes"/>
			<point x="462" y="19.3333"/>
			<point x="443" y="31.3333"/>
		</contour>
	</outline>
</glyph>
<glyph name="ampersand" format="2">
	<unicode hex="0026"/>
	<advance width="713"/>
	<outline>
		<contour>
			<point x="41.6667" y="152" type="curve" smooth="yes"/>
			<point x="41.6667" y="39.3333"/>
			<point x="123" y="-10"/>
			<point x="234" y="-10" type="curve" smooth="yes"/>
			<point x="317" y="-10"/>
			<point x="374.333" y="28.6667"/>
			<point x="419.333" y="84.6667" type="curve"/>
			<point x="441.333" y="56" type="line" smooth="yes"/>
			<point x="485" y="-2.66667"/>
			<point x="523" y="-10"/>
			<point x="565.333" y="-10" type="curve" smooth="yes"/>
			<point x="603.667" y="-10"/>
			<point x="650.333" y="15.3333"/>
			<point x="678.333" y="79" type="curve"/>
			<point x="675" y="87.3333"/>
			<point x="669" y="97.6667"/>
			<point x="658.333" y="97.6667" type="curve"/>
			<point x="638" y="63.3333"/>
			<point x="613.667" y="46.3333"/>
			<point x="581" y="46.3333" type="curve" smooth="yes"/>
			<point x="555.333" y="46.3333"/>
			<point x="523.333" y="76"/>
			<point x="493.667" y="119" type="curve" smooth="yes"/>
			<point x="467" y="156.667" type="line"/>
			<point x="508.667" y="213.333"/>
			<point x="539.667" y="265"/>
			<point x="565" y="309.333" type="curve" smooth="yes"/>
			<point x="604.333" y="378.667"/>
			<point x="617.667" y="391.333"/>
			<point x="675.333" y="396" type="curve"/>
			<point x="681.333" y="402"/>
			<point x="681.333" y="423.333"/>
			<point x="675.333" y="429.333" type="curve"/>
			<point x="654.667" y="428.333"/>
			<point x="618.333" y="427.333"/>
			<point x="588.333" y="427.333" type="curve" smooth="yes"/>
			<point x="553.333" y="427.333"/>
			<point x="513.667" y="428.333"/>
			<point x="491.333" y="429.333" type="curve"/>
			<point x="485.333" y="423.333"/>
			<point x="485.333" y="402"/>
			<point x="491.333" y="396" type="curve"/>
			<point x="546.667" y="392.667"/>
			<point x="553.333" y="375"/>
			<point x="523.333" y="318.667" type="curve"/>
			<point x="504.667" y="281"/>
			<point x="479.333" y="239.667"/>
			<point x="444.333" y="190.333" type="curve"/>
			<point x="405.333" y="242.333"/>
			<point x="348.333" y="322.667"/>
			<point x="318.333" y="372.667" type="curve"/>
			<point x="402.333" y="416"/>
			<point x="467.667" y="478"/>
			<point x="467.667" y="541.667" type="curve" smooth="yes"/>
			<point x="467.667" y="600.333"/>
			<point x="412" y="650.667"/>
			<point x="334.667" y="650.667" type="curve" smooth="yes"/>
			<point x="234.333" y="650.667"/>
			<point x="168.333" y="583.667"/>
			<point x="168.333" y="508.333" type="curve" smooth="yes"/>
			<point x="168.333" y="467.667"/>
			<point x="184.333" y="430.333"/>
			<point x="223.667" y="367.333" type="curve"/>
			<point x="91" y="296.333"/>
			<point x="41.6667" y="227.667"/>
		</contour>
		<contour>
			<point x="139" y="160.667" type="curve" smooth="yes"/>
			<point x="139" y="224"/>
			<point x="156.333" y="276"/>
			<point x="245.333" y="331" type="curve"/>
			<point x="261.333" y="302.333"/>
			<point x="340" y="188.667"/>
			<point x="393.667" y="117.667" type="curve"/>
			<point x="350.667" y="59"/>
			<point x="315.333" y="29"/>
			<point x="253.667" y="29" type="curve" smooth="yes"/>
			<point x="189.333" y="29"/>
			<point x="139" y="69.3333"/>
		</contour>
		<contour>
			<point x="296.667" y="410.333" type="curve"/>
			<point x="272" y="451.667"/>
			<point x="253.333" y="497.667"/>
			<point x="253.333" y="524.667" type="curve" smooth="yes"/>
			<point x="253.333" y="584"/>
			<point x="294.333" y="614.667"/>
			<point x="325.333" y="614.667" type="curve" smooth="yes"/>
			<point x="364" y="614.667"/>
			<point x="387.667" y="582.667"/>
			<point x="387.667" y="538.333" type="curve" smooth="yes"/>
			<point x="387.667" y="502"/>
			<point x="353.333" y="449.333"/>
		</contour>
	</outline>
</glyph>
<glyph name="parenleft" format="2">
	<unicode hex="0028"/>
	<advance width="304"/>
	<outline>
		<contour>
			<point x="41.3333" y="252.333" type="curve" smooth="yes"/>
			<point x="41.3333" y="207.333"/>
			<point x="45.6667" y="-21.6667"/>
			<point x="260" y="-207" type="curve"/>
			<point x="268.475" y="-203.738"/>
			<point x="280.485" y="-191.949"/>
			<point x="284" y="-185" type="curve"/>
			<point x="251.333" y="-147.667"/>
			<point x="135" y="-11"/>
			<point x="135" y="252.333" type="curve" smooth="yes"/>
			<point x="135" y="515.667"/>
			<point x="252.667" y="652.333"/>
			<point x="284" y="688" type="curve"/>
			<point x="280.35" y="696.671"/>
			<point x="269.746" y="708.547"/>
			<point x="260.667" y="711.333" type="curve"/>
			<point x="137.667" y="605.667"/>
			<point x="41.3333" y="437"/>
		</contour>
	</outline>
</glyph>
<glyph name="parenright" format="2">
	<unicode hex="0029"/>
	<advance width="304"/>
	<outline>
		<contour>
			<point x="262.333" y="251.667" type="curve" smooth="yes"/>
			<point x="262.333" y="296.667"/>
			<point x="258" y="525.667"/>
			<point x="43.6667" y="711" type="curve"/>
			<point x="35.1915" y="707.738"/>
			<point x="23.1818" y="695.949"/>
			<point x="19.6667" y="689" type="curve"/>
			<point x="52.3333" y="651.667"/>
			<point x="168.667" y="515"/>
			<point x="168.667" y="251.667" type="curve" smooth="yes"/>
			<point x="168.667" y="-11.6667"/>
			<point x="51" y="-148.333"/>
			<point x="19.6667" y="-184" type="curve"/>
			<point x="23.317" y="-192.671"/>
			<point x="33.9207" y="-204.547"/>
			<point x="43" y="-207.333" type="curve"/>
			<point x="166" y="-101.667"/>
			<point x="262.333" y="67"/>
		</contour>
	</outline>
</glyph>
<glyph name="asterisk" format="2">
	<unicode hex="002A"/>
	<advance width="390"/>
	<outline>
		<contour>
			<point x="177.667" y="553.333" type="curve"/>
			<point x="144.667" y="516"/>
			<point x="94" y="512.333"/>
			<point x="94" y="465.667" type="curve" smooth="yes"/>
			<point x="94" y="450.667"/>
			<point x="106" y="437.667"/>
			<point x="123" y="437.667" type="curve" smooth="yes"/>
			<point x="168" y="437.667"/>
			<point x="168" y="495.667"/>
			<point x="193" y="540.667" type="curve"/>
			<point x="218" y="501.667"/>
			<point x="221.667" y="437.667"/>
			<point x="264" y="437.667" type="curve" smooth="yes"/>
			<point x="278" y="437.667"/>
			<point x="294" y="448.667"/>
			<point x="294" y="466.667" type="curve" smooth="yes"/>
			<point x="294" y="510.333"/>
			<point x="244.333" y="516.333"/>
			<point x="210.333" y="553" type="curve"/>
			<point x="228.333" y="556"/>
			<point x="246" y="556.667"/>
			<point x="265" y="556.667" type="curve" smooth="yes"/>
			<point x="299.333" y="556.667"/>
			<point x="334" y="564.667"/>
			<point x="334" y="594.667" type="curve" smooth="yes"/>
			<point x="334" y="604.333"/>
			<point x="327.333" y="623.667"/>
			<point x="302.333" y="625.667" type="curve" smooth="yes"/>
			<point x="299" y="626"/>
			<point x="296.333" y="626"/>
			<point x="293.667" y="625.333" type="curve"/>
			<point x="263.333" y="622.667"/>
			<point x="248.333" y="591.667"/>
			<point x="205.333" y="573.333" type="curve"/>
			<point x="207.333" y="603.333"/>
			<point x="226.333" y="642.667"/>
			<point x="226.333" y="669.667" type="curve" smooth="yes"/>
			<point x="226.333" y="693.667"/>
			<point x="209" y="704.667"/>
			<point x="191" y="704.667" type="curve" smooth="yes"/>
			<point x="173" y="704.667"/>
			<point x="158.333" y="686.667"/>
			<point x="158.333" y="665.667" type="curve" smooth="yes"/>
			<point x="158.333" y="639.667"/>
			<point x="179.667" y="613.333"/>
			<point x="183.667" y="574" type="curve"/>
			<point x="139.667" y="592.333"/>
			<point x="122" y="625.333"/>
			<point x="88" y="625.333" type="curve" smooth="yes"/>
			<point x="64" y="625.333"/>
			<point x="55" y="608.667"/>
			<point x="55" y="594.667" type="curve" smooth="yes"/>
			<point x="55" y="559.667"/>
			<point x="88.3333" y="555"/>
			<point x="136" y="557.667" type="curve" smooth="yes"/>
			<point x="145.667" y="558"/>
			<point x="154.667" y="557.333"/>
			<point x="163.333" y="556" type="curve"/>
			<point x="168" y="555"/>
			<point x="173" y="554.333"/>
		</contour>
	</outline>
</glyph>
<glyph name="plus" format="2">
	<unicode hex="002B"/>
	<advance width="546"/>
	<outline>
		<contour>
			<point x="53.6667" y="237.667" type="curve" smooth="yes"/>
			<point x="53.6667" y="227.333"/>
			<point x="60.3333" y="219"/>
			<point x="70.3333" y="219" type="curve" smooth="yes"/>
			<point x="244" y="219" type="line"/>
			<point x="244" y="51.3333" type="line" smooth="yes"/>
			<point x="244" y="41.3333"/>
			<point x="252.333" y="34.6667"/>
			<point x="262.667" y="34.6667" type="curve" smooth="yes"/>
			<point x="280" y="34.6667"/>
			<point x="302" y="50.6667"/>
			<point x="302" y="64.6667" type="curve" smooth="yes"/>
			<point x="302" y="219" type="line"/>
			<point x="461" y="219" type="line" smooth="yes"/>
			<point x="475.667" y="219"/>
			<point x="492.333" y="243.667"/>
			<point x="492.333" y="258" type="curve" smooth="yes"/>
			<point x="492.333" y="268"/>
			<point x="487" y="277"/>
			<point x="476.333" y="277" type="curve" smooth="yes"/>
			<point x="302" y="277" type="line"/>
			<point x="302" y="446.333" type="line" smooth="yes"/>
			<point x="302" y="457.333"/>
			<point x="293" y="462.333"/>
			<point x="282.333" y="462.333" type="curve" smooth="yes"/>
			<point x="268.667" y="462.333"/>
			<point x="244" y="445.667"/>
			<point x="244" y="431" type="curve" smooth="yes"/>
			<point x="244" y="277" type="line"/>
			<point x="83.6667" y="277" type="line" smooth="yes"/>
			<point x="69.6667" y="277"/>
			<point x="53.6667" y="255.333"/>
		</contour>
	</outline>
</glyph>
<glyph name="one" format="2">
	<unicode hex="0031"/>
	<advance width="481"/>
	<outline>
		<contour>
			<point x="314.333" y="122" type="curve" smooth="yes"/>
			<point x="314.333" y="473.667" type="line" smooth="yes"/>
			<point x="314.333" y="531.333"/>
			<point x="317.667" y="591"/>
			<point x="319" y="599.667" type="curve"/>
			<point x="319" y="607.333"/>
			<point x="315" y="608.667"/>
			<point x="309.333" y="608.667" type="curve"/>
			<point x="298.667" y="604"/>
			<point x="285.667" y="598.667"/>
			<point x="270.667" y="590.333" type="curve"/>
			<point x="220.333" y="564.333"/>
			<point x="165.667" y="541.667"/>
			<point x="90" y="507.667" type="curve"/>
			<point x="91.6667" y="494.667"/>
			<point x="96.6667" y="482.667"/>
			<point x="107.333" y="475.333" type="curve"/>
			<point x="156" y="495.667"/>
			<point x="182.667" y="500.333"/>
			<point x="200" y="500.333" type="curve" smooth="yes"/>
			<point x="215.667" y="500.333"/>
			<point x="219.667" y="483"/>
			<point x="219.667" y="443.667" type="curve" smooth="yes"/>
			<point x="219.667" y="122" type="line" smooth="yes"/>
			<point x="219.667" y="39"/>
			<point x="185.667" y="34.3333"/>
			<point x="120.667" y="31.3333" type="curve"/>
			<point x="113.333" y="25.3333"/>
			<point x="113.333" y="4"/>
			<point x="120.667" y="-2" type="curve"/>
			<point x="180.667" y="-1"/>
			<point x="220.333" y="0"/>
			<point x="269.667" y="0" type="curve" smooth="yes"/>
			<point x="315" y="0"/>
			<point x="346" y="-1"/>
			<point x="406.667" y="-2" type="curve"/>
			<point x="414" y="4"/>
			<point x="414" y="25.3333"/>
			<point x="406.667" y="31.3333" type="curve"/>
			<point x="341.667" y="34.3333"/>
			<point x="314.333" y="39"/>
		</contour>
	</outline>
</glyph>
<glyph name="two" format="2">
	<unicode hex="0032"/>
	<advance width="481"/>
	<outline>
		<contour>
			<point x="57.3333" y="463.333" type="curve" smooth="yes"/>
			<point x="57.3333" y="442.667"/>
			<point x="75" y="423"/>
			<point x="97" y="420.333" type="curve"/>
			<point x="99" y="419.667"/>
			<point x="101.333" y="419.333"/>
			<point x="103.667" y="419.333" type="curve" smooth="yes"/>
			<point x="124.667" y="419.333"/>
			<point x="154.333" y="438.667"/>
			<point x="154.333" y="463.667" type="curve" smooth="yes"/>
			<point x="154.333" y="470.667"/>
			<point x="152.333" y="477"/>
			<point x="150" y="484.667" type="curve"/>
			<point x="147.667" y="491.667"/>
			<point name=".hr01" x="142.667" y="500.333"/>
			<point x="142.667" y="509.333" type="curve" smooth="yes"/>
			<point x="142.667" y="533.667"/>
			<point x="171.667" y="573"/>
			<point x="236.333" y="573" type="curve" smooth="yes"/>
			<point x="277.333" y="573"/>
			<point x="323" y="535.333"/>
			<point x="323" y="451.333" type="curve" smooth="yes"/>
			<point x="323" y="386.333"/>
			<point x="306.333" y="337.333"/>
			<point x="249.333" y="280.667" type="curve" smooth="yes"/>
			<point x="179.667" y="213" type="line"/>
			<point x="171.667" y="205" type="line" smooth="yes"/>
			<point x="75" y="109"/>
			<point x="53.3333" y="68.3333"/>
			<point name=".hr02" x="48.3333" y="27.3333" type="curve"/>
			<point x="48" y="17.6667"/>
			<point x="48.6667" y="8.33333"/>
			<point x="49" y="-1.33333" type="curve"/>
			<point x="59.6667" y="-1.33333"/>
			<point x="104.333" y="0"/>
			<point x="136.667" y="0" type="curve" smooth="yes"/>
			<point x="317.667" y="0" type="line" smooth="yes"/>
			<point x="349.667" y="0"/>
			<point x="391" y="-1.33333"/>
			<point x="401.667" y="-1.33333" type="curve"/>
			<point x="414.333" y="46.6667"/>
			<point x="425" y="119.667"/>
			<point x="428" y="158.667" type="curve"/>
			<point x="419.667" y="164"/>
			<point x="408" y="166.667"/>
			<point x="393.667" y="165.333" type="curve"/>
			<point x="376" y="98.3333"/>
			<point x="356.333" y="72"/>
			<point x="320.333" y="70" type="curve" smooth="yes"/>
			<point x="314.667" y="69.6667"/>
			<point x="309" y="69.6667"/>
			<point x="303" y="69.6667" type="curve" smooth="yes"/>
			<point x="153" y="69.6667" type="line"/>
			<point name=".hr03" x="154" y="108.333"/>
			<point x="192.667" y="155.333"/>
			<point x="214.333" y="176.667" type="curve" smooth="yes"/>
			<point x="216.333" y="178.667"/>
			<point x="217" y="179.333"/>
			<point x="217.667" y="180" type="curve"/>
			<point x="271.333" y="230.667" type="line" smooth="yes"/>
			<point x="290" y="248.667"/>
			<point x="308" y="265.667"/>
			<point x="325.333" y="281.667" type="curve" smooth="yes"/>
			<point x="387" y="340"/>
			<point x="424.333" y="379.667"/>
			<point x="424.333" y="455" type="curve" smooth="yes"/>
			<point x="424.333" y="561.667"/>
			<point x="336.333" y="610"/>
			<point x="248" y="610" type="curve" smooth="yes"/>
			<point x="126.333" y="610"/>
			<point x="57.3333" y="524"/>
		</contour>
	</outline>
</glyph>
<glyph name="four" format="2">
	<unicode hex="0034"/>
	<advance width="481"/>
	<outline>
		<contour>
			<point x="447.667" y="215.667" type="curve" smooth="yes"/>
			<point x="359.667" y="215.667" type="line"/>
			<point x="359.667" y="515" type="line" smooth="yes"/>
			<point x="359.667" y="558"/>
			<point x="359.667" y="593.667"/>
			<point x="361" y="608.667" type="curve"/>
			<point x="359.667" y="610" type="line"/>
			<point x="326.333" y="610" type="line" smooth="yes"/>
			<point x="317.667" y="610"/>
			<point x="310.333" y="606"/>
			<point x="303.667" y="602.667" type="curve"/>
			<point x="297.667" y="602.667" type="line"/>
			<point x="231.667" y="523"/>
			<point x="122.333" y="361"/>
			<point x="34.3333" y="226.333" type="curve" smooth="yes"/>
			<point x="31.6667" y="222.333"/>
			<point x="28" y="217"/>
			<point x="26" y="212.667" type="curve"/>
			<point x="27.3333" y="202.667"/>
			<point x="37.3333" y="182.333"/>
			<point x="49.6667" y="173.667" type="curve"/>
			<point x="54" y="171.667"/>
			<point x="58.6667" y="169.667"/>
			<point x="64.6667" y="169.333" type="curve" smooth="yes"/>
			<point x="69.6667" y="169"/>
			<point x="75.3333" y="168.667"/>
			<point x="83.3333" y="168.667" type="curve" smooth="yes"/>
			<point x="267.667" y="168.667" type="line"/>
			<point x="267.667" y="114.667" type="line" smooth="yes"/>
			<point x="267.667" y="104.333"/>
			<point x="267.667" y="95"/>
			<point x="267.333" y="85.6667" type="curve" smooth="yes"/>
			<point x="264.667" y="35.3333"/>
			<point x="227.667" y="34.3333"/>
			<point x="182.667" y="31.3333" type="curve"/>
			<point x="175.333" y="25.3333"/>
			<point x="175.333" y="4"/>
			<point x="182.667" y="-2" type="curve"/>
			<point x="228.667" y="-1"/>
			<point x="262.667" y="0"/>
			<point x="302" y="0" type="curve" smooth="yes"/>
			<point x="317.667" y="0" type="line" smooth="yes"/>
			<point x="355.333" y="0"/>
			<point x="391.667" y="-1"/>
			<point x="437.333" y="-2" type="curve"/>
			<point x="444.667" y="4"/>
			<point x="444.667" y="25.3333"/>
			<point x="437.333" y="31.3333" type="curve"/>
			<point x="390.333" y="34.6667"/>
			<point x="365.667" y="34.3333"/>
			<point x="361.333" y="79.3333" type="curve" smooth="yes"/>
			<point x="360.333" y="89.6667"/>
			<point x="359.667" y="101.333"/>
			<point x="359.667" y="114.667" type="curve" smooth="yes"/>
			<point x="359.667" y="168.667" type="line"/>
			<point x="433.667" y="168.667" type="line" smooth="yes"/>
			<point x="447.667" y="168.667"/>
			<point x="462.667" y="187.667"/>
			<point x="462.667" y="199.667" type="curve" smooth="yes"/>
			<point x="462.667" y="209.667"/>
			<point x="458.667" y="215.667"/>
		</contour>
		<contour>
			<point x="267.667" y="505" type="curve"/>
			<point x="267.667" y="215.667" type="line"/>
			<point x="79" y="215.667" type="line"/>
			<point x="129.667" y="298.333"/>
			<point x="204" y="418.333"/>
		</contour>
	</outline>
</glyph>
<glyph name="five" format="2">
	<unicode hex="0035"/>
	<advance width="481"/>
	<outline>
		<contour>
			<point x="320.333" y="188.667" type="curve" smooth="yes"/>
			<point x="320.333" y="92.6667"/>
			<point x="275.333" y="27.3333"/>
			<point x="217" y="27.3333" type="curve" smooth="yes"/>
			<point x="190.333" y="27.3333"/>
			<point x="174" y="44.6667"/>
			<point x="160.667" y="64.3333" type="curve"/>
			<point x="157.667" y="68.3333"/>
			<point x="154.667" y="72.3333"/>
			<point x="151.667" y="76.3333" type="curve"/>
			<point x="138.333" y="92.6667"/>
			<point x="119.667" y="106.667"/>
			<point x="95.6667" y="106.667" type="curve" smooth="yes"/>
			<point x="71" y="106.667"/>
			<point x="53.3333" y="87"/>
			<point x="53.3333" y="66.3333" type="curve" smooth="yes"/>
			<point x="53.3333" y="50"/>
			<point x="67.6667" y="31.6667"/>
			<point x="89.3333" y="19.3333" type="curve" smooth="yes"/>
			<point x="120.667" y="1"/>
			<point x="166.667" y="-10"/>
			<point x="204.333" y="-10.6667" type="curve"/>
			<point x="211" y="-10.6667"/>
			<point x="217" y="-10.6667"/>
			<point x="223" y="-10" type="curve"/>
			<point x="341" y="-4"/>
			<point x="422" y="88"/>
			<point x="424.667" y="204.667" type="curve"/>
			<point x="425" y="210.667"/>
			<point x="425" y="217"/>
			<point x="424.333" y="223" type="curve"/>
			<point x="419.667" y="312.333"/>
			<point x="357" y="385.333"/>
			<point x="255.667" y="391.333" type="curve"/>
			<point x="250.333" y="392"/>
			<point x="243.667" y="392"/>
			<point x="237.333" y="392" type="curve"/>
			<point x="197.667" y="391.333"/>
			<point x="156.667" y="383.333"/>
			<point x="137.667" y="377" type="curve"/>
			<point x="157.333" y="532.333" type="line"/>
			<point x="191.333" y="528.667"/>
			<point x="232" y="525"/>
			<point x="278" y="524.667" type="curve"/>
			<point x="283.333" y="524.667"/>
			<point x="288.667" y="524.667"/>
			<point x="293.667" y="524.667" type="curve"/>
			<point x="323.667" y="525.333"/>
			<point x="349" y="527.333"/>
			<point x="392" y="530.667" type="curve"/>
			<point x="409" y="604.667" type="line"/>
			<point x="396.667" y="611.667" type="line"/>
			<point x="338.333" y="606"/>
			<point x="293.333" y="600.667"/>
			<point x="241.333" y="600" type="curve"/>
			<point x="236" y="600"/>
			<point x="230" y="600"/>
			<point x="225" y="600" type="curve"/>
			<point x="189" y="600.667"/>
			<point x="155" y="603.667"/>
			<point x="115.333" y="606.667" type="curve"/>
			<point x="79.3333" y="315.333" type="line"/>
			<point x="85.3333" y="316.333"/>
			<point x="91" y="317"/>
			<point x="96.3333" y="317.333" type="curve"/>
			<point x="146.333" y="334.667"/>
			<point x="176.333" y="339.333"/>
			<point x="209.667" y="340" type="curve"/>
			<point x="214.667" y="340"/>
			<point x="220" y="340"/>
			<point x="225.333" y="339.333" type="curve"/>
			<point x="279.667" y="335.333"/>
			<point x="320.333" y="289.333"/>
		</contour>
	</outline>
</glyph>
<glyph name="six" format="2">
	<unicode hex="0036"/>
	<advance width="481"/>
	<outline>
		<contour>
			<point x="395.333" y="579.667" type="curve"/>
			<point x="396.333" y="591.667"/>
			<point x="393.333" y="604"/>
			<point x="385.333" y="610.667" type="curve"/>
			<point x="271" y="589.333"/>
			<point x="204.667" y="552.333"/>
			<point x="142" y="487" type="curve" smooth="yes"/>
			<point x="78.6667" y="421"/>
			<point x="47.3333" y="331.333"/>
			<point x="44.6667" y="250" type="curve"/>
			<point x="44" y="245.333"/>
			<point x="44" y="241.333"/>
			<point x="44" y="236.667" type="curve" smooth="yes"/>
			<point x="44" y="30"/>
			<point x="160" y="-10.6667"/>
			<point x="245" y="-10.6667" type="curve" smooth="yes"/>
			<point x="384.333" y="-10.6667"/>
			<point x="439.667" y="116"/>
			<point x="439.667" y="202.667" type="curve" smooth="yes"/>
			<point x="439.667" y="271.667"/>
			<point x="399.333" y="356.333"/>
			<point x="276" y="363.667" type="curve" smooth="yes"/>
			<point x="266.667" y="364.333"/>
			<point x="257" y="364.667"/>
			<point x="247.333" y="364.333" type="curve" smooth="yes"/>
			<point x="220" y="363"/>
			<point x="184.667" y="354"/>
			<point x="154.667" y="338.667" type="curve"/>
			<point x="168" y="399.333"/>
			<point x="199.333" y="461"/>
			<point x="247.667" y="505.667" type="curve" smooth="yes"/>
			<point x="290" y="543.667"/>
			<point x="341" y="565.333"/>
		</contour>
		<contour>
			<point x="147" y="301" type="curve"/>
			<point x="181.667" y="323.667"/>
			<point x="210.667" y="325"/>
			<point x="228" y="325" type="curve" smooth="yes"/>
			<point x="310.333" y="325"/>
			<point x="337" y="248"/>
			<point x="339.667" y="193.333" type="curve"/>
			<point x="339.667" y="190.667"/>
			<point x="339.667" y="187.333"/>
			<point x="339.667" y="184.667" type="curve" smooth="yes"/>
			<point x="339.667" y="75.3333"/>
			<point x="301" y="25.6667"/>
			<point x="256.333" y="25.6667" type="curve" smooth="yes"/>
			<point x="198.667" y="25.6667"/>
			<point x="143.667" y="59.6667"/>
			<point x="141.667" y="223" type="curve"/>
			<point x="141.333" y="229.667"/>
			<point x="141.333" y="235.667"/>
			<point x="141.333" y="242.667" type="curve"/>
			<point x="142" y="259.667"/>
			<point x="143.333" y="282"/>
		</contour>
	</outline>
</glyph>
<glyph name="eight" format="2">
	<unicode hex="0038"/>
	<advance width="481"/>
	<outline>
		<contour>
			<point x="412.333" y="489.333" type="curve" smooth="yes"/>
			<point x="412.333" y="562"/>
			<point x="347.667" y="610"/>
			<point x="251.333" y="610" type="curve" smooth="yes"/>
			<point x="142.333" y="610"/>
			<point x="69" y="550.667"/>
			<point x="69" y="463.333" type="curve" smooth="yes"/>
			<point x="69" y="410.333"/>
			<point x="96.3333" y="370.667"/>
			<point x="159.667" y="334" type="curve" smooth="yes"/>
			<point x="184" y="319.667" type="line"/>
			<point x="90" y="273.667"/>
			<point name=".hr01" x="42" y="213.667"/>
			<point x="42" y="140" type="curve" smooth="yes"/>
			<point x="42" y="48"/>
			<point x="114.667" y="-10"/>
			<point x="230" y="-10" type="curve" smooth="yes"/>
			<point x="349.667" y="-10"/>
			<point x="439.333" y="66.3333"/>
			<point x="439.333" y="169" type="curve" smooth="yes"/>
			<point x="439.333" y="226"/>
			<point x="410" y="276.667"/>
			<point x="360.667" y="306" type="curve" smooth="yes"/>
			<point x="292.333" y="345.667" type="line"/>
			<point x="364.667" y="376.667"/>
			<point x="412.333" y="433.333"/>
		</contour>
		<contour>
			<point x="238.667" y="27.3333" type="curve" smooth="yes"/>
			<point x="171.667" y="27.3333"/>
			<point x="127.667" y="72.6667"/>
			<point x="127.667" y="143" type="curve" smooth="yes"/>
			<point x="127.667" y="206"/>
			<point x="159.667" y="263.667"/>
			<point x="215.667" y="300" type="curve"/>
			<point x="264.333" y="273" type="line"/>
			<point x="324" y="238"/>
			<point x="351" y="197"/>
			<point x="351" y="139.667" type="curve" smooth="yes"/>
			<point x="351" y="71.6667"/>
			<point x="306" y="27.3333"/>
		</contour>
		<contour>
			<point x="244.667" y="574.333" type="curve" smooth="yes"/>
			<point x="294.333" y="574.333"/>
			<point x="326.333" y="541.667"/>
			<point x="326.333" y="490" type="curve" smooth="yes"/>
			<point x="326.333" y="448.333"/>
			<point x="300.667" y="400"/>
			<point x="260" y="367.667" type="curve"/>
			<point x="223.333" y="389" type="line" smooth="yes"/>
			<point x="181" y="414"/>
			<point x="157.333" y="449"/>
			<point x="157.333" y="486" type="curve" smooth="yes"/>
			<point name=".hr02" x="157.333" y="539.333"/>
			<point x="191.667" y="574.333"/>
		</contour>
	</outline>
</glyph>
<glyph name="nine" format="2">
	<unicode hex="0039"/>
	<advance width="481"/>
	<outline>
		<contour>
			<point x="92.3333" y="19.6667" type="curve"/>
			<point x="91.3333" y="7.66667"/>
			<point x="94.3333" y="-4.66667"/>
			<point x="102.333" y="-11.3333" type="curve"/>
			<point x="293" y="25"/>
			<point x="443.667" y="155"/>
			<point x="443.667" y="362.667" type="curve" smooth="yes"/>
			<point x="443.667" y="569.333"/>
			<point x="327.667" y="610"/>
			<point x="242.667" y="610" type="curve" smooth="yes"/>
			<point x="103.333" y="610"/>
			<point x="48" y="483.333"/>
			<point x="48" y="396.667" type="curve" smooth="yes"/>
			<point x="48" y="304.333"/>
			<point x="113.667" y="234.333"/>
			<point x="233" y="234.333" type="curve" smooth="yes"/>
			<point x="263" y="234.333"/>
			<point x="302" y="245"/>
			<point x="332.667" y="260.667" type="curve"/>
			<point x="304.667" y="130.667"/>
			<point x="217.333" y="50.3333"/>
		</contour>
		<contour>
			<point x="340.667" y="298.333" type="curve"/>
			<point x="306" y="275.667"/>
			<point x="277" y="274.333"/>
			<point x="259.667" y="274.333" type="curve" smooth="yes"/>
			<point x="182" y="274.333"/>
			<point x="148" y="346"/>
			<point x="148" y="414.667" type="curve" smooth="yes"/>
			<point x="148" y="524"/>
			<point x="186.667" y="573.667"/>
			<point x="231.333" y="573.667" type="curve" smooth="yes"/>
			<point x="305.333" y="573.667"/>
			<point x="346.333" y="503.667"/>
			<point x="346.333" y="366" type="curve" smooth="yes"/>
			<point x="346.333" y="345"/>
			<point x="345" y="319.333"/>
		</contour>
	</outline>
</glyph>
<glyph name="colon" format="2">
	<unicode hex="003A"/>
	<advance width="243"/>
	<outline>
		<contour>
			<point x="66.6667" y="60" type="curve" smooth="yes"/>
			<point x="66.6667" y="28"/>
			<point x="93.3333" y="2"/>
			<point x="126" y="2" type="curve" smooth="yes"/>
			<point x="158.667" y="2"/>
			<point x="186" y="28.6667"/>
			<point x="186" y="60.6667" type="curve" smooth="yes"/>
			<point x="186" y="93"/>
			<point x="159.333" y="119"/>
			<point x="126.667" y="119" type="curve" smooth="yes"/>
			<point x="94" y="119"/>
			<point x="66.6667" y="92.3333"/>
		</contour>
		<contour>
			<point x="66.6667" y="358" type="curve" smooth="yes"/>
			<point x="66.6667" y="326"/>
			<point x="93.3333" y="300"/>
			<point x="126" y="300" type="curve" smooth="yes"/>
			<point x="158.667" y="300"/>
			<point x="186" y="326.667"/>
			<point x="186" y="358.667" type="curve" smooth="yes"/>
			<point x="186" y="391"/>
			<point x="159.333" y="417"/>
			<point x="126.667" y="417" type="curve" smooth="yes"/>
			<point x="94" y="417"/>
			<point x="66.6667" y="390.333"/>
		</contour>
	</outline>
</glyph>
<glyph name="semicolon" format="2">
	<unicode hex="003B"/>
	<advance width="243"/>
	<outline>
		<contour>
			<point x="123" y="105.667" type="curve" smooth="yes"/>
			<point x="93.6667" y="105.667"/>
			<point x="66.6667" y="78.3333"/>
			<point x="66.6667" y="52" type="curve" smooth="yes"/>
			<point x="66.6667" y="25.6667"/>
			<point x="87" y="9"/>
			<point x="104.667" y="4" type="curve"/>
			<point x="107" y="3.66667"/>
			<point x="110" y="3"/>
			<point x="112.333" y="2.66667" type="curve"/>
			<point x="127" y="-0.333333"/>
			<point x="141.333" y="-5.66667"/>
			<point name=".hr01" x="144.667" y="-21.6667" type="curve"/>
			<point x="145.333" y="-23.6667"/>
			<point x="145.333" y="-25.6667"/>
			<point x="145.333" y="-28.3333" type="curve" smooth="yes"/>
			<point x="145.333" y="-51"/>
			<point x="104.333" y="-105.333"/>
			<point x="54.6667" y="-118" type="curve"/>
			<point x="53" y="-129"/>
			<point x="54.6667" y="-137"/>
			<point x="63" y="-144.333" type="curve"/>
			<point x="95.3333" y="-139"/>
			<point x="130" y="-120.667"/>
			<point x="154" y="-96.6667" type="curve" smooth="yes"/>
			<point x="178" y="-72.6667"/>
			<point x="196" y="-36.3333"/>
			<point x="196" y="-1.33333" type="curve" smooth="yes"/>
			<point x="196" y="66"/>
			<point x="167.667" y="105.667"/>
		</contour>
		<contour>
			<point x="66.6667" y="357.667" type="curve" smooth="yes"/>
			<point name=".hr02" x="66.6667" y="325.667"/>
			<point x="93.3333" y="299.667"/>
			<point x="126" y="299.667" type="curve" smooth="yes"/>
			<point x="158.667" y="299.667"/>
			<point x="186" y="326.333"/>
			<point x="186" y="358.333" type="curve" smooth="yes"/>
			<point x="186" y="390.667"/>
			<point x="159.333" y="416.667"/>
			<point x="126.667" y="416.667" type="curve" smooth="yes"/>
			<point x="94" y="416.667"/>
			<point x="66.6667" y="390"/>
		</contour>
	</outline>
</glyph>
<glyph name="equal" format="2">
	<unicode hex="003D"/>
	<advance width="550"/>
	<outline>
		<contour>
			<point x="491.667" y="335.667" type="curve"/>
			<point x="483.667" y="341"/>
			<point x="473" y="347"/>
			<point x="458.333" y="347" type="curve" smooth="yes"/>
			<point x="76.3333" y="347" type="line"/>
			<point x="68.3333" y="340.667"/>
			<point x="59.6667" y="321.667"/>
			<point x="59.6667" y="305.333" type="curve"/>
			<point x="67.6667" y="300"/>
			<point x="79.6667" y="294.667"/>
			<point x="93.6667" y="294.667" type="curve" smooth="yes"/>
			<point x="473.667" y="294.667" type="line"/>
			<point x="482.333" y="301"/>
			<point x="491.667" y="322.667"/>
		</contour>
		<contour>
			<point x="491.667" y="183.333" type="curve"/>
			<point x="483.667" y="188.667"/>
			<point x="473" y="194.667"/>
			<point x="458.333" y="194.667" type="curve" smooth="yes"/>
			<point x="76.3333" y="194.667" type="line"/>
			<point x="68.3333" y="188.333"/>
			<point x="59.6667" y="169.667"/>
			<point x="59.6667" y="153.333" type="curve"/>
			<point x="67.6667" y="148"/>
			<point x="79.6667" y="142.667"/>
			<point x="93.6667" y="142.667" type="curve" smooth="yes"/>
			<point x="473.667" y="142.667" type="line"/>
			<point x="482.333" y="149"/>
			<point x="491.667" y="170.333"/>
		</contour>
	</outline>
</glyph>
<glyph name="greater" format="2">
	<unicode hex="003E"/>
	<advance width="537"/>
	<outline>
		<contour>
			<point x="394.333" y="236.667" type="line"/>
			<point x="77.3333" y="121.333" type="line"/>
			<point x="68.6667" y="108.547"/>
			<point x="68" y="74.0861"/>
			<point x="77.3333" y="67.3333" type="curve"/>
			<point x="480.333" y="213" type="line"/>
			<point x="486.333" y="227.134"/>
			<point x="486.333" y="247.12"/>
			<point x="480.333" y="259.667" type="curve"/>
			<point x="77.3333" y="406.667" type="line"/>
			<point x="68" y="399.914"/>
			<point x="68.6667" y="365.453"/>
			<point x="77.3333" y="352.667" type="curve"/>
		</contour>
	</outline>
</glyph>
<glyph name="question" format="2">
	<unicode hex="003F"/>
	<advance width="433"/>
	<outline>
		<contour>
			<point x="118.333" y="571.333" type="curve" smooth="yes"/>
			<point x="118.333" y="600.667"/>
			<point x="156.667" y="624.667"/>
			<point x="209.333" y="624.667" type="curve" smooth="yes"/>
			<point x="263.333" y="624.667"/>
			<point x="295.333" y="574.667"/>
			<point x="298.667" y="516" type="curve"/>
			<point x="299.333" y="512.667"/>
			<point x="299.333" y="510"/>
			<point x="299.333" y="506.667" type="curve" smooth="yes"/>
			<point x="299.333" y="460.333"/>
			<point x="284" y="429.667"/>
			<point x="247.667" y="395" type="curve"/>
			<point x="243.333" y="391.333"/>
			<point x="239.667" y="387.667"/>
			<point x="235.667" y="383.333" type="curve"/>
			<point x="176.667" y="325.667"/>
			<point x="174" y="270.667"/>
			<point x="174" y="230.333" type="curve" smooth="yes"/>
			<point x="174" y="210" type="line" smooth="yes"/>
			<point x="174" y="201"/>
			<point x="174.667" y="193.667"/>
			<point x="176" y="186.333" type="curve"/>
			<point x="177.667" y="179.667"/>
			<point x="185.667" y="176.667"/>
			<point x="195.333" y="176.667" type="curve" smooth="yes"/>
			<point x="206.333" y="176.667"/>
			<point x="215.333" y="179.667"/>
			<point x="216.667" y="187" type="curve"/>
			<point x="217.333" y="193.667"/>
			<point x="217.667" y="201.333"/>
			<point x="217.667" y="209.333" type="curve" smooth="yes"/>
			<point x="217.667" y="228.333" type="line" smooth="yes"/>
			<point x="217.667" y="255.333"/>
			<point x="220.667" y="279"/>
			<point x="233" y="301.667" type="curve" smooth="yes"/>
			<point x="243" y="320"/>
			<point x="262.333" y="335"/>
			<point x="282.667" y="350" type="curve" smooth="yes"/>
			<point x="330.667" y="385"/>
			<point x="393" y="429.667"/>
			<point x="393" y="507" type="curve" smooth="yes"/>
			<point x="393" y="598.333"/>
			<point x="325.333" y="658.667"/>
			<point x="219.333" y="658.667" type="curve" smooth="yes"/>
			<point x="163.667" y="658.667"/>
			<point x="120.333" y="644.667"/>
			<point x="91" y="619.667" type="curve" smooth="yes"/>
			<point x="59.6667" y="594.333"/>
			<point x="39.3333" y="568"/>
			<point x="39.3333" y="531" type="curve" smooth="yes"/>
			<point x="39.3333" y="496.667"/>
			<point x="64" y="485"/>
			<point x="82" y="483.333" type="curve"/>
			<point x="83.3333" y="483"/>
			<point x="84.6667" y="483"/>
			<point x="85.6667" y="483" type="curve"/>
			<point x="108.333" y="483"/>
			<point name=".hr01" x="129.333" y="496.333"/>
			<point x="129.333" y="520" type="curve" smooth="yes"/>
			<point x="129.333" y="533.333"/>
			<point x="127.333" y="540"/>
			<point x="124" y="545.667" type="curve" smooth="yes"/>
			<point x="120.333" y="551.667"/>
			<point name=".hr02" x="118.333" y="558"/>
		</contour>
		<contour>
			<point x="136.333" y="48" type="curve" smooth="yes"/>
			<point x="136.333" y="16"/>
			<point x="163" y="-10"/>
			<point x="195.667" y="-10" type="curve" smooth="yes"/>
			<point x="228.333" y="-10"/>
			<point x="255.667" y="16.6667"/>
			<point x="255.667" y="48.6667" type="curve" smooth="yes"/>
			<point x="255.667" y="81"/>
			<point x="229" y="107"/>
			<point x="196.333" y="107" type="curve" smooth="yes"/>
			<point x="163.667" y="107"/>
			<point x="136.333" y="80.3333"/>
		</contour>
	</outline>
</glyph>
<glyph name="B" format="2">
	<unicode hex="0042"/>
	<advance width="610"/>
	<outline>
		<contour>
			<point x="156.333" y="645" type="curve" smooth="yes"/>
			<point x="119" y="645"/>
			<point x="45" y="646.333"/>
			<point x="19" y="647" type="curve"/>
			<point x="11.6667" y="641"/>
			<point x="11.6667" y="619.667"/>
			<point x="19" y="613.667" type="curve"/>
			<point x="84" y="610.667"/>
			<point x="104.667" y="606"/>
			<point x="104.667" y="523" type="curve" smooth="yes"/>
			<point x="104.667" y="122" type="line" smooth="yes"/>
			<point x="104.667" y="39"/>
			<point x="84" y="34.3333"/>
			<point x="19" y="31.3333" type="curve"/>
			<point x="11.6667" y="25.3333"/>
			<point x="11.6667" y="4"/>
			<point x="19" y="-2" type="curve"/>
			<point x="45" y="-1.33333"/>
			<point x="119" y="0"/>
			<point x="157" y="0" type="curve" smooth="yes"/>
			<point x="194.333" y="0"/>
			<point x="233" y="-2"/>
			<point x="309" y="-2" type="curve" smooth="yes"/>
			<point x="510" y="-2"/>
			<point name=".hr01" x="567.333" y="93.3333"/>
			<point x="567.333" y="184.667" type="curve" smooth="yes"/>
			<point x="567.333" y="278"/>
			<point x="508" y="333.667"/>
			<point x="414.667" y="359.667" type="curve"/>
			<point x="414.667" y="361.667" type="line"/>
			<point x="466" y="386.333"/>
			<point name=".hr02" x="510" y="439.333"/>
			<point x="510" y="492.333" type="curve" smooth="yes"/>
			<point x="510" y="560"/>
			<point x="478.333" y="647"/>
			<point x="287" y="647" type="curve" smooth="yes"/>
			<point x="247" y="647"/>
			<point x="191" y="645"/>
		</contour>
		<contour>
			<point x="208" y="332.667" type="line"/>
			<point x="277.667" y="332.667" type="line" smooth="yes"/>
			<point x="403.333" y="332.667"/>
			<point x="456.333" y="261"/>
			<point name=".hr03" x="456.333" y="172.333" type="curve" smooth="yes"/>
			<point x="456.333" y="103.667"/>
			<point x="430.667" y="34"/>
			<point x="285.333" y="34" type="curve" smooth="yes"/>
			<point x="218.667" y="34"/>
			<point x="208" y="56.3333"/>
			<point x="208" y="106.667" type="curve" smooth="yes"/>
		</contour>
		<contour>
			<point x="208" y="554" type="line" smooth="yes"/>
			<point x="208" y="599"/>
			<point x="209.667" y="610.333"/>
			<point x="289.333" y="610.333" type="curve" smooth="yes"/>
			<point x="342" y="610.333"/>
			<point x="409.333" y="584.333"/>
			<point name=".hr04" x="409.333" y="483.667" type="curve" smooth="yes"/>
			<point x="409.333" y="400.333"/>
			<point x="355" y="369.333"/>
			<point x="276" y="369.333" type="curve" smooth="yes"/>
			<point x="208" y="369.333" type="line"/>
		</contour>
	</outline>
	<anchor name="m.uni0302" x="267" y="850"/>
	<anchor name="m.uni0316_2" x="268" y="-110"/>
	<anchor name="m.uni031A_3" x="509" y="732"/>
	<anchor name="t.uni0302" x="267.667" y="740"/>
</glyph>
<glyph name="E" format="2">
	<unicode hex="0045"/>
	<advance width="574"/>
	<outline>
		<contour>
			<point x="295" y="362.333" type="curve" smooth="yes"/>
			<point x="207.333" y="362.333" type="line"/>
			<point x="207.333" y="545.333" type="line" smooth="yes"/>
			<point x="207.333" y="582.667"/>
			<point x="221" y="604.333"/>
			<point x="265" y="604.333" type="curve" smooth="yes"/>
			<point x="343.333" y="604.333" type="line" smooth="yes"/>
			<point x="418.333" y="604.333"/>
			<point x="436" y="565"/>
			<point x="458" y="496" type="curve"/>
			<point x="470" y="494"/>
			<point x="484.333" y="496"/>
			<point x="494.333" y="501" type="curve"/>
			<point x="489.333" y="542"/>
			<point x="477.667" y="638"/>
			<point x="475.667" y="646" type="curve"/>
			<point x="475.667" y="648"/>
			<point x="474.667" y="649"/>
			<point x="471.667" y="649" type="curve"/>
			<point x="454.667" y="646"/>
			<point x="446.667" y="645"/>
			<point x="422.667" y="645" type="curve" smooth="yes"/>
			<point x="154.333" y="645" type="line" smooth="yes"/>
			<point x="134.333" y="645"/>
			<point x="60.3333" y="646"/>
			<point x="17" y="647" type="curve"/>
			<point x="11" y="641"/>
			<point x="11" y="619.667"/>
			<point x="17" y="613.667" type="curve"/>
			<point x="87" y="610.667"/>
			<point x="104" y="605.667"/>
			<point x="104" y="522.667" type="curve" smooth="yes"/>
			<point x="104" y="122" type="line" smooth="yes"/>
			<point x="104" y="39"/>
			<point x="87" y="34.3333"/>
			<point x="17" y="31.3333" type="curve"/>
			<point x="11" y="25.3333"/>
			<point x="11" y="4"/>
			<point x="17" y="-2" type="curve"/>
			<point x="58" y="-1"/>
			<point x="133.333" y="0"/>
			<point x="155.333" y="0" type="curve" smooth="yes"/>
			<point x="377" y="0" type="line" smooth="yes"/>
			<point x="425" y="0"/>
			<point x="508.333" y="-2"/>
			<point x="508.333" y="-2" type="curve"/>
			<point x="522.333" y="48"/>
			<point x="534" y="114"/>
			<point x="542" y="165" type="curve"/>
			<point x="532" y="171"/>
			<point x="516.667" y="173"/>
			<point x="503.667" y="170" type="curve"/>
			<point x="483.667" y="98"/>
			<point x="445.333" y="40"/>
			<point x="369.333" y="40" type="curve" smooth="yes"/>
			<point x="258.333" y="40" type="line" smooth="yes"/>
			<point x="223" y="40"/>
			<point x="207.333" y="57.6667"/>
			<point x="207.333" y="98" type="curve" smooth="yes"/>
			<point x="207.333" y="321.667" type="line"/>
			<point x="295" y="321.667" type="line" smooth="yes"/>
			<point x="374.667" y="321.667"/>
			<point x="383" y="300"/>
			<point x="386" y="255" type="curve"/>
			<point x="392" y="249"/>
			<point x="416.333" y="249"/>
			<point x="422.333" y="255" type="curve"/>
			<point x="421.333" y="284"/>
			<point x="420.333" y="309"/>
			<point x="420.333" y="343" type="curve" smooth="yes"/>
			<point x="420.333" y="373"/>
			<point x="421.333" y="403"/>
			<point x="422.333" y="429" type="curve"/>
			<point x="416.333" y="435"/>
			<point x="392" y="435"/>
			<point x="386" y="429" type="curve"/>
			<point x="383" y="374"/>
			<point x="374" y="362.333"/>
		</contour>
	</outline>
	<anchor name="t.uni0302" x="280" y="740"/>
	<anchor name="m.uni0316_2" x="286" y="-110"/>
	<anchor name="m.uni031A_3" x="526" y="732"/>
</glyph>
<glyph name="F" format="2">
	<unicode hex="0046"/>
	<advance width="505"/>
	<outline>
		<contour>
			<point x="18.3333" y="-2" type="curve"/>
			<point x="55" y="-1"/>
			<point x="113" y="0"/>
			<point x="156.333" y="0" type="curve" smooth="yes"/>
			<point x="199.667" y="0"/>
			<point x="259.667" y="-1"/>
			<point x="296.333" y="-2" type="curve"/>
			<point x="303.667" y="4"/>
			<point x="303.667" y="25.3333"/>
			<point x="296.333" y="31.3333" type="curve"/>
			<point x="231.333" y="34.3333"/>
			<point x="207.333" y="39"/>
			<point x="207.333" y="122" type="curve" smooth="yes"/>
			<point x="207.333" y="315" type="line"/>
			<point x="296.333" y="315" type="line" smooth="yes"/>
			<point x="376" y="315"/>
			<point x="384.333" y="293.333"/>
			<point x="387.333" y="248.333" type="curve"/>
			<point x="393.333" y="242.333"/>
			<point x="417.667" y="242.333"/>
			<point x="423.667" y="248.333" type="curve"/>
			<point x="422.333" y="276.667"/>
			<point x="421.667" y="306"/>
			<point x="421.667" y="336.333" type="curve" smooth="yes"/>
			<point x="421.667" y="366.667"/>
			<point x="422.667" y="395.333"/>
			<point x="423.667" y="422.333" type="curve"/>
			<point x="417.667" y="428.333"/>
			<point x="393.333" y="428.333"/>
			<point x="387.333" y="422.333" type="curve"/>
			<point x="384.333" y="367.333"/>
			<point x="375.333" y="355.667"/>
			<point x="296.333" y="355.667" type="curve" smooth="yes"/>
			<point x="207.333" y="355.667" type="line"/>
			<point x="207.333" y="545.333" type="line" smooth="yes"/>
			<point x="207.333" y="589.333"/>
			<point x="221" y="604.333"/>
			<point x="258.333" y="604.333" type="curve" smooth="yes"/>
			<point x="318.333" y="604.333" type="line" smooth="yes"/>
			<point x="414" y="604.333"/>
			<point x="439.333" y="563.333"/>
			<point x="461.333" y="494.333" type="curve"/>
			<point x="473.333" y="493.667"/>
			<point x="485" y="495.667"/>
			<point x="493.667" y="499.333" type="curve"/>
			<point x="489.333" y="541.333"/>
			<point x="476.667" y="638"/>
			<point x="475" y="646" type="curve"/>
			<point x="475" y="648"/>
			<point x="474" y="649"/>
			<point x="471" y="649" type="curve"/>
			<point x="454" y="646"/>
			<point x="448" y="645"/>
			<point x="423.333" y="645" type="curve" smooth="yes"/>
			<point x="154.333" y="645" type="line" smooth="yes"/>
			<point x="133" y="645"/>
			<point x="60.3333" y="646"/>
			<point x="17" y="647" type="curve"/>
			<point x="11" y="641"/>
			<point x="11" y="619.667"/>
			<point x="17" y="613.667" type="curve"/>
			<point x="87" y="610.667"/>
			<point x="104" y="605.667"/>
			<point x="104" y="522.667" type="curve" smooth="yes"/>
			<point x="104" y="122" type="line" smooth="yes"/>
			<point x="104" y="39"/>
			<point x="83.3333" y="34.3333"/>
			<point x="18.3333" y="31.3333" type="curve"/>
			<point x="11" y="25.3333"/>
			<point x="11" y="4"/>
		</contour>
	</outline>
	<anchor name="m.uni0302" x="283" y="850"/>
	<anchor name="m.uni0316_2" x="208" y="-110"/>
	<anchor name="m.uni031A_3" x="506" y="732"/>
	<anchor name="t.uni0302" x="249.333" y="740"/>
</glyph>
<glyph name="J" format="2">
	<unicode hex="004A"/>
	<advance width="339"/>
	<outline>
		<contour>
			<point x="244.333" y="522.667" type="line" smooth="yes"/>
			<point x="244.333" y="605.667"/>
			<point x="261.333" y="610.667"/>
			<point x="321.333" y="613.667" type="curve"/>
			<point x="327.333" y="619.667"/>
			<point x="327.333" y="641"/>
			<point x="321.333" y="647" type="curve"/>
			<point x="279.667" y="646"/>
			<point x="237.333" y="645"/>
			<point x="192" y="645" type="curve" smooth="yes"/>
			<point x="146.333" y="645"/>
			<point x="94" y="646"/>
			<point x="44" y="647" type="curve"/>
			<point x="38" y="641"/>
			<point x="38" y="619.667"/>
			<point x="44" y="613.667" type="curve"/>
			<point x="124" y="610.667"/>
			<point x="141" y="605.667"/>
			<point x="141" y="522.667" type="curve" smooth="yes"/>
			<point x="141" y="81" type="line" smooth="yes"/>
			<point x="141" y="-99"/>
			<point x="104.333" y="-127.333"/>
			<point x="68" y="-127.333" type="curve" smooth="yes"/>
			<point x="49.3333" y="-127.333"/>
			<point x="34" y="-116"/>
			<point x="26" y="-101.667" type="curve"/>
			<point x="17.6667" y="-88"/>
			<point x="10" y="-70"/>
			<point x="-20" y="-70" type="curve" smooth="yes"/>
			<point x="-35.3333" y="-70"/>
			<point x="-68.6667" y="-93"/>
			<point x="-68.6667" y="-117.333" type="curve" smooth="yes"/>
			<point x="-68.6667" y="-157"/>
			<point x="-10.3333" y="-177"/>
			<point x="14" y="-177" type="curve" smooth="yes"/>
			<point x="63.6667" y="-177"/>
			<point x="101.333" y="-164"/>
			<point x="142.333" y="-129" type="curve" smooth="yes"/>
			<point x="186.333" y="-92"/>
			<point x="244.333" y="-40"/>
			<point x="244.333" y="103" type="curve" smooth="yes"/>
		</contour>
	</outline>
	<anchor name="t.uni0302" x="185.333" y="740"/>
</glyph>
<glyph name="K" format="2">
	<unicode hex="004B"/>
	<advance width="670"/>
	<outline>
		<contour>
			<point x="21" y="-2" type="curve"/>
			<point x="64.3333" y="-1"/>
			<point x="119.667" y="0"/>
			<point x="159" y="0" type="curve" smooth="yes"/>
			<point x="197.667" y="0"/>
			<point x="252.333" y="-1"/>
			<point x="295.667" y="-2" type="curve"/>
			<point x="303" y="4"/>
			<point x="303" y="25.3333"/>
			<point x="295.667" y="31.3333" type="curve"/>
			<point x="230.667" y="34.3333"/>
			<point x="210" y="39"/>
			<point x="210" y="122" type="curve" smooth="yes"/>
			<point x="210" y="523" type="line" smooth="yes"/>
			<point x="210" y="606"/>
			<point x="230.667" y="610.667"/>
			<point x="295.667" y="613.667" type="curve"/>
			<point x="303" y="619.667"/>
			<point x="303" y="641"/>
			<point x="295.667" y="647" type="curve"/>
			<point x="251.667" y="646"/>
			<point x="196.333" y="645"/>
			<point x="158.333" y="645" type="curve" smooth="yes"/>
			<point x="119.667" y="645"/>
			<point x="64.3333" y="646"/>
			<point x="21" y="647" type="curve"/>
			<point x="13.6667" y="641"/>
			<point x="13.6667" y="619.667"/>
			<point x="21" y="613.667" type="curve"/>
			<point x="86" y="610.667"/>
			<point x="106.667" y="606"/>
			<point x="106.667" y="523" type="curve" smooth="yes"/>
			<point x="106.667" y="122" type="line" smooth="yes"/>
			<point x="106.667" y="39"/>
			<point x="86" y="34.3333"/>
			<point x="21" y="31.3333" type="curve"/>
			<point x="13.6667" y="25.3333"/>
			<point x="13.6667" y="4"/>
		</contour>
		<contour>
			<point x="194" y="313" type="line"/>
			<point x="235.667" y="313"/>
			<point x="265" y="299.667"/>
			<point x="287" y="271" type="curve" smooth="yes"/>
			<point x="442" y="73.3333" type="line" smooth="yes"/>
			<point x="462" y="47.3333"/>
			<point x="476" y="20"/>
			<point x="478" y="4" type="curve"/>
			<point x="478" y="1"/>
			<point x="479" y="-2"/>
			<point x="483" y="-2" type="curve"/>
			<point x="503" y="-1"/>
			<point x="529.333" y="0"/>
			<point x="553.333" y="0" type="curve" smooth="yes"/>
			<point x="589" y="0"/>
			<point x="625" y="-1"/>
			<point x="660" y="-2" type="curve"/>
			<point x="666" y="4"/>
			<point x="666" y="25.3333"/>
			<point x="660" y="31.3333" type="curve"/>
			<point x="630.667" y="34.6667"/>
			<point x="604.667" y="39.3333"/>
			<point x="575.333" y="73.3333" type="curve" smooth="yes"/>
			<point x="356.333" y="333" type="line" smooth="yes"/>
			<point x="345.333" y="345.667"/>
			<point x="337.667" y="356.667"/>
			<point x="337.667" y="364.667" type="curve" smooth="yes"/>
			<point x="337.667" y="371.667"/>
			<point x="338.667" y="380.333"/>
			<point x="365" y="407" type="curve" smooth="yes"/>
			<point x="499.333" y="540" type="line" smooth="yes"/>
			<point x="549.667" y="590"/>
			<point x="595" y="609"/>
			<point x="641.333" y="613.667" type="curve"/>
			<point x="647.333" y="619.667"/>
			<point x="647.333" y="641"/>
			<point x="641.333" y="647" type="curve"/>
			<point x="612.333" y="646"/>
			<point x="579.333" y="645"/>
			<point x="546.333" y="645" type="curve" smooth="yes"/>
			<point x="508.333" y="645"/>
			<point x="467.333" y="646"/>
			<point x="430" y="647" type="curve"/>
			<point x="424" y="641"/>
			<point x="424" y="619.667"/>
			<point x="430" y="613.667" type="curve"/>
			<point x="473.667" y="609.667"/>
			<point x="495" y="596.667"/>
			<point x="450.333" y="549.667" type="curve" smooth="yes"/>
			<point x="422.885" y="520.745"/>
			<point x="304.667" y="400.667"/>
			<point x="304.667" y="400.667" type="curve"/>
			<point x="265.333" y="361.667"/>
			<point x="233" y="343.667"/>
			<point x="194" y="343.667" type="curve"/>
		</contour>
	</outline>
	<anchor name="m.uni0302" x="334" y="850"/>
	<anchor name="m.uni0316_2" x="340" y="-110"/>
	<anchor name="m.uni031A_3" x="647" y="732"/>
	<anchor name="t.uni0302" x="326.667" y="740"/>
</glyph>
<glyph name="L" format="2">
	<unicode hex="004C"/>
	<advance width="544"/>
	<outline>
		<contour>
			<point x="23" y="-2" type="curve"/>
			<point x="53" y="-1.33333"/>
			<point x="125.333" y="0"/>
			<point x="161" y="0" type="curve" smooth="yes"/>
			<point x="377.333" y="0" type="line" smooth="yes"/>
			<point x="405" y="0"/>
			<point x="487.667" y="-2"/>
			<point x="496.667" y="-2" type="curve"/>
			<point x="506.667" y="48"/>
			<point x="516.667" y="113"/>
			<point x="522.667" y="165" type="curve"/>
			<point x="512.667" y="170"/>
			<point x="498.333" y="172"/>
			<point x="486.333" y="170" type="curve"/>
			<point x="466.333" y="98"/>
			<point x="429.333" y="40"/>
			<point x="323.667" y="40" type="curve" smooth="yes"/>
			<point x="261.667" y="40" type="line" smooth="yes"/>
			<point x="228.667" y="40"/>
			<point x="212" y="59"/>
			<point x="212" y="113" type="curve" smooth="yes"/>
			<point x="212" y="523" type="line" smooth="yes"/>
			<point x="212" y="606"/>
			<point x="232.667" y="610.667"/>
			<point x="297.667" y="613.667" type="curve"/>
			<point x="305" y="619.667"/>
			<point x="305" y="641"/>
			<point x="297.667" y="647" type="curve"/>
			<point x="240.333" y="646"/>
			<point x="199" y="645"/>
			<point x="160.333" y="645" type="curve" smooth="yes"/>
			<point x="123" y="645"/>
			<point x="57.3333" y="646.333"/>
			<point x="23" y="647" type="curve"/>
			<point x="15.6667" y="641"/>
			<point x="15.6667" y="619.667"/>
			<point x="23" y="613.667" type="curve"/>
			<point x="88" y="610.667"/>
			<point x="108.667" y="606"/>
			<point x="108.667" y="523" type="curve" smooth="yes"/>
			<point x="108.667" y="122" type="line" smooth="yes"/>
			<point x="108.667" y="39"/>
			<point x="88" y="34.3333"/>
			<point x="23" y="31.3333" type="curve"/>
			<point x="15.6667" y="25.3333"/>
			<point x="15.6667" y="4"/>
		</contour>
	</outline>
	<anchor name="m.uni0302" x="150.333" y="850"/>
	<anchor name="m.uni0316_2" x="261.333" y="-110"/>
	<anchor name="m.uni031A_3" x="470.333" y="732"/>
	<anchor name="t.uni0302" x="159.667" y="740"/>
</glyph>
<glyph name="M" format="2">
	<unicode hex="004D"/>
	<advance width="859"/>
	<outline>
		<contour>
			<point x="663" y="116" type="line" smooth="yes"/>
			<point x="668" y="35"/>
			<point x="664" y="34.3333"/>
			<point x="599" y="31.3333" type="curve"/>
			<point x="593" y="25.3333"/>
			<point x="593" y="4"/>
			<point x="599" y="-2" type="curve"/>
			<point x="639.333" y="-1"/>
			<point x="696" y="0"/>
			<point x="726" y="0" type="curve" smooth="yes"/>
			<point x="756" y="0"/>
			<point x="802" y="-1"/>
			<point x="835" y="-2" type="curve"/>
			<point x="841" y="4"/>
			<point x="841" y="25.3333"/>
			<point x="835" y="31.3333" type="curve"/>
			<point x="767" y="34.3333"/>
			<point x="764" y="38"/>
			<point x="758" y="121" type="curve" smooth="yes"/>
			<point x="728" y="542" type="line" smooth="yes"/>
			<point x="724" y="596"/>
			<point x="729" y="609.667"/>
			<point x="797" y="613.667" type="curve"/>
			<point x="803" y="619.667"/>
			<point x="803" y="641"/>
			<point x="797" y="647" type="curve"/>
			<point x="642.667" y="645" type="line"/>
			<point x="438" y="159" type="line" smooth="yes"/>
			<point x="435" y="151.667"/>
			<point x="432.667" y="148.333"/>
			<point x="431" y="148.333" type="curve" smooth="yes"/>
			<point x="429.333" y="148.333"/>
			<point x="427" y="152.333"/>
			<point x="424.667" y="158.333" type="curve" smooth="yes"/>
			<point x="228.667" y="645" type="line"/>
			<point x="63.6667" y="647" type="line"/>
			<point x="57.6667" y="641"/>
			<point x="57.6667" y="619.667"/>
			<point x="63.6667" y="613.667" type="curve"/>
			<point x="132.667" y="609.667"/>
			<point x="138.667" y="608"/>
			<point x="131.667" y="533" type="curve" smooth="yes"/>
			<point x="91.6667" y="121" type="line" smooth="yes"/>
			<point x="85.6667" y="61"/>
			<point x="73.6667" y="36.3333"/>
			<point x="16.6667" y="31.3333" type="curve"/>
			<point x="10.6667" y="25.3333"/>
			<point x="10.6667" y="4"/>
			<point x="16.6667" y="-2" type="curve"/>
			<point x="46.6667" y="-1"/>
			<point x="78.6667" y="0"/>
			<point x="102.667" y="0" type="curve" smooth="yes"/>
			<point x="126.667" y="0"/>
			<point x="173.333" y="-1"/>
			<point x="203.333" y="-2" type="curve"/>
			<point x="209.333" y="4"/>
			<point x="209.333" y="25.3333"/>
			<point x="203.333" y="31.3333" type="curve"/>
			<point x="137.333" y="36.3333"/>
			<point x="132.667" y="67"/>
			<point x="137.333" y="123" type="curve" smooth="yes"/>
			<point x="171.333" y="515.333" type="line"/>
			<point x="174" y="515.333" type="line"/>
			<point x="377.667" y="5" type="line" smooth="yes"/>
			<point x="380.667" y="-2"/>
			<point x="388.333" y="-9.33333"/>
			<point x="394.333" y="-9.33333" type="curve" smooth="yes"/>
			<point x="400.333" y="-9.33333"/>
			<point x="406" y="-3.33333"/>
			<point x="410" y="5" type="curve"/>
			<point name=".hr01" x="635" y="534" type="line"/>
			<point x="637" y="534" type="line"/>
		</contour>
	</outline>
	<anchor name="m.uni0302" x="431" y="850"/>
	<anchor name="m.uni0316_2" x="393" y="-110"/>
	<anchor name="t.uni0302" x="401.667" y="740"/>
</glyph>
<glyph name="O" format="2">
	<unicode hex="004F"/>
	<advance width="711"/>
	<outline>
		<contour>
			<point x="675.333" y="329" type="curve" smooth="yes"/>
			<point x="675.333" y="533.333"/>
			<point x="530.667" y="658"/>
			<point x="350.333" y="658" type="curve" smooth="yes"/>
			<point x="155" y="658"/>
			<point x="37" y="502.333"/>
			<point x="37" y="309.667" type="curve" smooth="yes"/>
			<point x="37" y="112.333"/>
			<point x="184.667" y="-10"/>
			<point x="354.667" y="-10" type="curve" smooth="yes"/>
			<point x="554.333" y="-10"/>
			<point x="675.333" y="137.667"/>
		</contour>
		<contour>
			<point x="337.667" y="620" type="curve" smooth="yes"/>
			<point x="461.333" y="620"/>
			<point x="561" y="511.667"/>
			<point x="561" y="309.333" type="curve" smooth="yes"/>
			<point x="561" y="134.667"/>
			<point x="484.333" y="28"/>
			<point x="374.667" y="28" type="curve" smooth="yes"/>
			<point x="256.667" y="28"/>
			<point x="151.333" y="137"/>
			<point x="151.333" y="327.667" type="curve" smooth="yes"/>
			<point x="151.333" y="535.667"/>
			<point x="242" y="620"/>
		</contour>
	</outline>
	<anchor name="t.uni0302" x="335" y="740"/>
	<anchor name="t.uni0315_1" x="620" y="606"/>
	<anchor name="m.uni0316_2" x="350" y="-110"/>
</glyph>
<glyph name="Q" format="2">
	<unicode hex="0051"/>
	<advance width="711"/>
	<outline>
		<contour>
			<point x="37" y="309.667" type="curve" smooth="yes"/>
			<point x="37" y="127.667"/>
			<point x="162.667" y="10"/>
			<point x="315.333" y="-8" type="curve"/>
			<point x="259.333" y="-36.3333"/>
			<point x="180" y="-98"/>
			<point x="145.667" y="-153" type="curve"/>
			<point x="184.667" y="-176.333" type="line"/>
			<point x="196.333" y="-159.667"/>
			<point x="209.333" y="-144.667"/>
			<point x="222" y="-130.667" type="curve"/>
			<point x="236.333" y="-120.667"/>
			<point x="249.667" y="-117.333"/>
			<point x="257.667" y="-117.333" type="curve" smooth="yes"/>
			<point x="300.333" y="-117.333"/>
			<point x="336.667" y="-137.333"/>
			<point x="375.667" y="-160" type="curve" smooth="yes"/>
			<point x="422.667" y="-187.333"/>
			<point x="472.667" y="-215.667"/>
			<point x="543.667" y="-215.667" type="curve" smooth="yes"/>
			<point x="606.667" y="-215.667"/>
			<point x="648.667" y="-186.333"/>
			<point x="687.667" y="-130.333" type="curve"/>
			<point x="670.667" y="-115" type="line"/>
			<point x="648.667" y="-142"/>
			<point x="612.667" y="-152"/>
			<point x="583.667" y="-152" type="curve" smooth="yes"/>
			<point x="542" y="-152"/>
			<point x="502.667" y="-133.333"/>
			<point x="461.333" y="-112.667" type="curve" smooth="yes"/>
			<point x="415" y="-90"/>
			<point x="366" y="-66.6667"/>
			<point x="308" y="-66.6667" type="curve" smooth="yes"/>
			<point x="303.333" y="-66.6667"/>
			<point x="298" y="-66.6667"/>
			<point x="293" y="-67.3333" type="curve"/>
			<point x="340.667" y="-33.3333"/>
			<point x="387.333" y="-13"/>
			<point x="417.667" y="-4.66667" type="curve"/>
			<point x="586" y="24.3333"/>
			<point x="675.333" y="165.333"/>
			<point x="675.333" y="329" type="curve" smooth="yes"/>
			<point x="675.333" y="533.333"/>
			<point x="530.667" y="658"/>
			<point x="350.333" y="658" type="curve" smooth="yes"/>
			<point x="155" y="658"/>
			<point x="37" y="502.333"/>
		</contour>
		<contour>
			<point x="151.333" y="327.667" type="curve" smooth="yes"/>
			<point x="151.333" y="535.667"/>
			<point x="242" y="620"/>
			<point x="337.667" y="620" type="curve" smooth="yes"/>
			<point x="461.333" y="620"/>
			<point x="561" y="511.667"/>
			<point x="561" y="309.333" type="curve" smooth="yes"/>
			<point x="561" y="134.667"/>
			<point x="484.333" y="28"/>
			<point x="374.667" y="28" type="curve" smooth="yes"/>
			<point x="256.667" y="28"/>
			<point x="151.333" y="137"/>
		</contour>
	</outline>
	<anchor name="m.uni0302" x="348" y="850"/>
	<anchor name="t.uni0315_1" x="620" y="606"/>
	<anchor name="m.uni031A_3" x="619" y="732"/>
	<anchor name="t.uni0302" x="344" y="740"/>
</glyph>
<glyph name="R" format="2">
	<unicode hex="0052"/>
	<advance width="630"/>
	<outline>
		<contour>
			<point x="21.6667" y="-2" type="curve"/>
			<point x="65" y="-1"/>
			<point x="121" y="0"/>
			<point x="159.667" y="0" type="curve" smooth="yes"/>
			<point x="198.333" y="0"/>
			<point x="253.667" y="-1"/>
			<point x="296.333" y="-2" type="curve"/>
			<point x="303.667" y="4"/>
			<point name=".hr01" x="303.667" y="25.3333"/>
			<point x="296.333" y="31.3333" type="curve"/>
			<point x="231.333" y="34.3333"/>
			<point x="210.667" y="39"/>
			<point x="210.667" y="122" type="curve" smooth="yes"/>
			<point x="210.667" y="288.333" type="line"/>
			<point x="293" y="288.333"/>
			<point x="308.667" y="276"/>
			<point x="322.667" y="253" type="curve" smooth="yes"/>
			<point x="433" y="79" type="line" smooth="yes"/>
			<point x="462.667" y="32.6667"/>
			<point x="505" y="-10"/>
			<point x="565" y="-10" type="curve" smooth="yes"/>
			<point x="588.333" y="-10"/>
			<point x="617" y="-7.66667"/>
			<point name=".hr02" x="627" y="-2.66667" type="curve"/>
			<point x="631" y="4.33333"/>
			<point x="630" y="16.6667"/>
			<point name=".hr03" x="626" y="24.6667" type="curve"/>
			<point x="581" y="24.6667"/>
			<point x="556.667" y="55.3333"/>
			<point x="530" y="98" type="curve" smooth="yes"/>
			<point x="400.667" y="308" type="line"/>
			<point x="447.333" y="324.667"/>
			<point x="533.333" y="376.667"/>
			<point x="533.333" y="480.667" type="curve" smooth="yes"/>
			<point x="533.333" y="618.333"/>
			<point x="416.333" y="652.667"/>
			<point x="301.333" y="652.667" type="curve" smooth="yes"/>
			<point x="262.667" y="652.667"/>
			<point x="206" y="644.333"/>
			<point x="155.667" y="643.667" type="curve" smooth="yes"/>
			<point x="110.667" y="643"/>
			<point name=".hr04" x="59" y="646.333"/>
			<point x="21.6667" y="647" type="curve"/>
			<point x="14.3333" y="641"/>
			<point x="14.3333" y="619.667"/>
			<point x="21.6667" y="613.667" type="curve"/>
			<point x="86.6667" y="610.667"/>
			<point x="107.333" y="606"/>
			<point x="107.333" y="523" type="curve" smooth="yes"/>
			<point x="107.333" y="122" type="line" smooth="yes"/>
			<point x="107.333" y="39"/>
			<point x="86.6667" y="34.3333"/>
			<point x="21.6667" y="31.3333" type="curve"/>
			<point x="14.3333" y="25.3333"/>
			<point x="14.3333" y="4"/>
		</contour>
		<contour>
			<point name=".hr05" x="210.667" y="325" type="line"/>
			<point x="210.667" y="544" type="line" smooth="yes"/>
			<point x="210.667" y="586"/>
			<point x="226.333" y="616.333"/>
			<point x="291.333" y="616.333" type="curve" smooth="yes"/>
			<point x="351.333" y="616.333"/>
			<point x="421.667" y="593.667"/>
			<point x="421.667" y="474.333" type="curve" smooth="yes"/>
			<point x="421.667" y="350"/>
			<point x="349.667" y="325"/>
			<point x="257" y="325" type="curve" smooth="yes"/>
		</contour>
	</outline>
	<anchor name="m.uni0302" x="285.667" y="850"/>
	<anchor name="m.uni0316_2" x="274.667" y="-110"/>
	<anchor name="m.uni031A_3" x="532.333" y="732"/>
	<anchor name="t.uni0302" x="277.667" y="740"/>
	<guideline x="0" y="816" angle="0"/>
</glyph>
<glyph name="T" format="2">
	<unicode hex="0054"/>
	<advance width="615"/>
	<outline>
		<contour>
			<point x="368.333" y="122.333" type="curve" smooth="yes"/>
			<point x="368.333" y="503.667" type="line" smooth="yes"/>
			<point x="368.333" y="567.667"/>
			<point x="378.333" y="605.333"/>
			<point x="414.333" y="605.333" type="curve" smooth="yes"/>
			<point x="436.333" y="605.333" type="line" smooth="yes"/>
			<point x="511.333" y="605.333"/>
			<point x="556.667" y="579.667"/>
			<point x="573.667" y="502.667" type="curve"/>
			<point x="584.667" y="502.667"/>
			<point x="600.333" y="503.667"/>
			<point x="609.333" y="507.667" type="curve"/>
			<point x="602.333" y="553.667"/>
			<point x="597.333" y="605"/>
			<point x="596.333" y="650" type="curve"/>
			<point x="596.333" y="651"/>
			<point x="594.333" y="653"/>
			<point x="593.333" y="653" type="curve"/>
			<point x="559.333" y="650"/>
			<point x="448.333" y="645"/>
			<point x="369.333" y="645" type="curve" smooth="yes"/>
			<point x="265" y="645" type="line" smooth="yes"/>
			<point x="188" y="645"/>
			<point x="70" y="650"/>
			<point x="32" y="653" type="curve"/>
			<point x="30" y="653"/>
			<point x="28" y="651"/>
			<point x="28" y="650" type="curve"/>
			<point x="24" y="605"/>
			<point x="14" y="552.667"/>
			<point x="3" y="504.667" type="curve"/>
			<point x="13" y="500.667"/>
			<point x="26.6667" y="499.667"/>
			<point x="38.6667" y="499.667" type="curve"/>
			<point x="58.6667" y="579.667"/>
			<point x="103" y="605.333"/>
			<point x="169" y="605.333" type="curve" smooth="yes"/>
			<point x="218" y="605.333" type="line" smooth="yes"/>
			<point x="255" y="605.333"/>
			<point x="265" y="567.667"/>
			<point x="265" y="506.667" type="curve" smooth="yes"/>
			<point x="265" y="122.333" type="line" smooth="yes"/>
			<point x="265" y="39.3333"/>
			<point x="248" y="34.3333"/>
			<point x="168" y="31.3333" type="curve"/>
			<point x="162" y="25.3333"/>
			<point x="162" y="4"/>
			<point x="168" y="-2" type="curve"/>
			<point x="217" y="-1"/>
			<point x="268.333" y="0"/>
			<point x="316.333" y="0" type="curve" smooth="yes"/>
			<point x="363.667" y="0"/>
			<point x="415.333" y="-1"/>
			<point x="465.333" y="-2" type="curve"/>
			<point x="471.333" y="4"/>
			<point x="471.333" y="25.3333"/>
			<point x="465.333" y="31.3333" type="curve"/>
			<point x="385.333" y="34.3333"/>
			<point x="368.333" y="39.3333"/>
		</contour>
	</outline>
	<anchor name="m.uni0302" x="313.667" y="850"/>
	<anchor name="m.uni0316_2" x="313.333" y="-110"/>
	<anchor name="m.uni031A_3" x="619" y="732"/>
	<anchor name="t.uni0302" x="315.667" y="740"/>
</glyph>
<glyph name="U" format="2">
	<unicode hex="0055"/>
	<advance width="685"/>
	<outline>
		<contour>
			<point x="190.333" y="522.667" type="line" smooth="yes"/>
			<point x="190.333" y="605.667"/>
			<point x="205.333" y="610.667"/>
			<point x="282.333" y="613.667" type="curve"/>
			<point x="288.333" y="619.667"/>
			<point x="288.333" y="641"/>
			<point x="282.333" y="647" type="curve"/>
			<point x="234.667" y="646"/>
			<point x="180" y="645"/>
			<point x="138" y="645" type="curve" smooth="yes"/>
			<point x="97" y="645"/>
			<point x="52.6667" y="646"/>
			<point x="10" y="647" type="curve"/>
			<point x="4" y="641"/>
			<point x="4" y="619.667"/>
			<point x="10" y="613.667" type="curve"/>
			<point x="70" y="610.667"/>
			<point x="87" y="605.667"/>
			<point x="87" y="522.667" type="curve" smooth="yes"/>
			<point x="87" y="234" type="line" smooth="yes"/>
			<point x="87" y="32"/>
			<point x="212.667" y="-10"/>
			<point x="339.333" y="-10" type="curve" smooth="yes"/>
			<point x="544.333" y="-10"/>
			<point x="598.667" y="117"/>
			<point x="598.667" y="295" type="curve" smooth="yes"/>
			<point x="598.667" y="522.667" type="line" smooth="yes"/>
			<point x="598.667" y="603.667"/>
			<point x="616" y="607"/>
			<point x="675.667" y="613.667" type="curve"/>
			<point x="681.667" y="619.667"/>
			<point x="681.667" y="641"/>
			<point x="675.667" y="647" type="curve"/>
			<point x="637.333" y="646"/>
			<point x="596.667" y="645"/>
			<point x="572" y="645" type="curve" smooth="yes"/>
			<point x="548.333" y="645"/>
			<point x="498.333" y="646"/>
			<point x="452.333" y="647" type="curve"/>
			<point x="446.333" y="641"/>
			<point x="446.333" y="619.667"/>
			<point x="452.333" y="613.667" type="curve"/>
			<point x="527.667" y="607"/>
			<point x="544.333" y="604.333"/>
			<point x="544.333" y="522.667" type="curve" smooth="yes"/>
			<point x="544.333" y="277" type="line" smooth="yes"/>
			<point x="544.333" y="165"/>
			<point x="529.333" y="31.3333"/>
			<point x="360.333" y="31.3333" type="curve" smooth="yes"/>
			<point x="219.333" y="31.3333"/>
			<point x="190.333" y="150"/>
			<point x="190.333" y="267" type="curve" smooth="yes"/>
		</contour>
	</outline>
	<anchor name="t.uni0302" x="352" y="740"/>
	<anchor name="m.uni0316_2" x="328" y="-110"/>
</glyph>
<glyph name="V" format="2">
	<unicode hex="0056"/>
	<advance width="668"/>
	<outline>
		<contour>
			<point x="300" y="11" type="line" smooth="yes"/>
			<point x="306.333" y="-5.33333"/>
			<point x="315" y="-12"/>
			<point x="326.333" y="-12" type="curve" smooth="yes"/>
			<point x="338.333" y="-12"/>
			<point x="347.333" y="-4.33333"/>
			<point x="353.667" y="11" type="curve" smooth="yes"/>
			<point x="562.667" y="528.333" type="line" smooth="yes"/>
			<point x="583.333" y="579.667"/>
			<point x="604.667" y="608"/>
			<point x="661.333" y="613.667" type="curve"/>
			<point x="667.333" y="619.667"/>
			<point x="667.333" y="641"/>
			<point x="661.333" y="647" type="curve"/>
			<point x="631.333" y="646"/>
			<point x="597.333" y="645"/>
			<point x="571.333" y="645" type="curve" smooth="yes"/>
			<point x="542.333" y="645"/>
			<point x="494" y="646"/>
			<point x="454.333" y="647" type="curve"/>
			<point x="448.333" y="641"/>
			<point x="448.333" y="619.667"/>
			<point x="454.333" y="613.667" type="curve"/>
			<point x="516.333" y="609.333"/>
			<point x="531.667" y="589.333"/>
			<point x="512.667" y="540.667" type="curve" smooth="yes"/>
			<point x="356.333" y="142.667" type="line"/>
			<point x="352.667" y="142.667" type="line"/>
			<point x="200" y="547" type="line" smooth="yes"/>
			<point x="181" y="598"/>
			<point x="197.333" y="608"/>
			<point x="258.667" y="613.667" type="curve"/>
			<point x="264.667" y="619.667"/>
			<point x="264.667" y="641"/>
			<point x="258.667" y="647" type="curve"/>
			<point x="219.667" y="646"/>
			<point x="156.333" y="645"/>
			<point x="119.333" y="645" type="curve" smooth="yes"/>
			<point x="81.6667" y="645"/>
			<point x="39.6667" y="646"/>
			<point x="5.33333" y="647" type="curve"/>
			<point x="-0.666667" y="641"/>
			<point x="0" y="619.667"/>
			<point x="6" y="613.667" type="curve"/>
			<point x="55.6667" y="609"/>
			<point x="72" y="596"/>
			<point x="96" y="535" type="curve" smooth="yes"/>
		</contour>
	</outline>
	<anchor name="m.uni0302" x="349.333" y="850"/>
	<anchor name="m.uni0316_2" x="328" y="-110"/>
	<anchor name="m.uni031A_3" x="679" y="732"/>
	<anchor name="t.uni0302" x="340.333" y="740"/>
</glyph>
<glyph name="W" format="2">
	<unicode hex="0057"/>
	<advance width="977"/>
	<outline>
		<contour>
			<point x="624.667" y="13.6667" type="line" smooth="yes"/>
			<point x="631" y="-4"/>
			<point x="638" y="-12"/>
			<point x="651" y="-12" type="curve" smooth="yes"/>
			<point x="662.667" y="-12"/>
			<point x="672" y="-3"/>
			<point x="677.667" y="13" type="curve" smooth="yes"/>
			<point x="874.333" y="543" type="line" smooth="yes"/>
			<point x="890" y="586"/>
			<point x="915.333" y="610.667"/>
			<point x="966.667" y="613.667" type="curve"/>
			<point x="972.667" y="619.667"/>
			<point x="972.667" y="641"/>
			<point x="966.667" y="647" type="curve"/>
			<point x="936.333" y="646"/>
			<point x="903.667" y="645"/>
			<point x="874.667" y="645" type="curve" smooth="yes"/>
			<point x="843.667" y="645"/>
			<point x="798.667" y="646"/>
			<point x="759.667" y="647" type="curve"/>
			<point x="753.667" y="641"/>
			<point x="753.667" y="619.667"/>
			<point x="759.667" y="613.667" type="curve"/>
			<point x="806" y="608.667"/>
			<point x="839" y="599.667"/>
			<point x="825" y="558.667" type="curve" smooth="yes"/>
			<point x="679.333" y="145.333" type="line"/>
			<point x="675.333" y="146.333" type="line"/>
			<point x="538.333" y="560.333" type="line" smooth="yes"/>
			<point x="523.333" y="607.333"/>
			<point x="559" y="610.667"/>
			<point x="597.667" y="613.667" type="curve"/>
			<point x="603.667" y="619.667"/>
			<point x="603.667" y="641"/>
			<point x="597.667" y="647" type="curve"/>
			<point x="558" y="646"/>
			<point x="495.333" y="645"/>
			<point x="455.667" y="645" type="curve" smooth="yes"/>
			<point x="420" y="645"/>
			<point x="378" y="646"/>
			<point x="344.333" y="647" type="curve"/>
			<point x="338.333" y="641"/>
			<point x="338.333" y="619.667"/>
			<point x="344.333" y="613.667" type="curve"/>
			<point x="392.667" y="610.333"/>
			<point x="418.667" y="587"/>
			<point x="430.333" y="555.667" type="curve" smooth="yes"/>
		</contour>
		<contour>
			<point x="272.667" y="13.6667" type="line" smooth="yes"/>
			<point x="278.333" y="-4"/>
			<point x="287.333" y="-12"/>
			<point x="298.333" y="-12" type="curve" smooth="yes"/>
			<point x="310.333" y="-12"/>
			<point x="319.667" y="-4.66667"/>
			<point x="327" y="13.6667" type="curve" smooth="yes"/>
			<point x="498" y="418.667" type="line"/>
			<point x="472.667" y="489.667" type="line"/>
			<point x="332.333" y="147.333" type="line"/>
			<point x="328" y="148.333" type="line"/>
			<point x="192" y="572.333" type="line" smooth="yes"/>
			<point x="180.667" y="606.667"/>
			<point x="210.667" y="611.333"/>
			<point x="250" y="613.667" type="curve"/>
			<point x="256" y="619.667"/>
			<point x="256" y="641"/>
			<point x="250" y="647" type="curve"/>
			<point x="215.667" y="646"/>
			<point x="153" y="645"/>
			<point x="114" y="645" type="curve" smooth="yes"/>
			<point x="77" y="645"/>
			<point x="39" y="646"/>
			<point x="7.33333" y="647" type="curve"/>
			<point x="1.33333" y="641"/>
			<point x="1.33333" y="619.667"/>
			<point x="7.33333" y="613.667" type="curve"/>
			<point x="50.3333" y="610.333"/>
			<point x="67" y="607.333"/>
			<point x="84.6667" y="557" type="curve" smooth="yes"/>
		</contour>
	</outline>
	<anchor name="m.uni0302" x="480" y="850"/>
	<anchor name="m.uni0316_2" x="484.333" y="-110"/>
	<anchor name="m.uni031A_3" x="979" y="732"/>
	<anchor name="t.uni0302" x="462.333" y="740"/>
</glyph>
<glyph name="X" format="2">
	<unicode hex="0058"/>
	<advance width="679"/>
	<outline>
		<contour>
			<point x="419.333" y="-1.66667" type="curve"/>
			<point x="457.333" y="-0.666667"/>
			<point x="507.333" y="0.333333"/>
			<point x="547.333" y="0.333333" type="curve" smooth="yes"/>
			<point x="586.333" y="0.333333"/>
			<point x="632.667" y="-0.666667"/>
			<point x="662.667" y="-1.66667" type="curve"/>
			<point x="668.667" y="4.33333"/>
			<point x="667.667" y="25.6667"/>
			<point x="661.667" y="31.6667" type="curve"/>
			<point x="619.667" y="34.6667"/>
			<point x="599.667" y="44.3333"/>
			<point x="559.333" y="101" type="curve" smooth="yes"/>
			<point x="363.667" y="369.333" type="line"/>
			<point x="240.333" y="559" type="line"/>
			<point x="213.667" y="598"/>
			<point x="211.333" y="610.667"/>
			<point x="267.333" y="613.667" type="curve"/>
			<point x="273.333" y="619.667"/>
			<point x="273.333" y="641"/>
			<point x="267.333" y="647" type="curve"/>
			<point x="229.333" y="646"/>
			<point x="182.333" y="645"/>
			<point x="142.333" y="645" type="curve" smooth="yes"/>
			<point x="103.333" y="645"/>
			<point x="52.6667" y="646"/>
			<point x="22.6667" y="647" type="curve"/>
			<point x="16.6667" y="641"/>
			<point x="17.6667" y="619.667"/>
			<point x="23.6667" y="613.667" type="curve"/>
			<point x="65.6667" y="610.667"/>
			<point x="84.6667" y="604"/>
			<point x="124.667" y="547" type="curve"/>
			<point x="303" y="300.333" type="line"/>
			<point x="443.333" y="86.3333" type="line"/>
			<point x="470.333" y="48"/>
			<point x="475.333" y="34.6667"/>
			<point x="419.333" y="31.6667" type="curve"/>
			<point x="413.333" y="25.6667"/>
			<point x="413.333" y="4.33333"/>
		</contour>
		<contour>
			<point x="8" y="-1.66667" type="curve"/>
			<point x="38" y="-0.666667"/>
			<point x="82" y="0.333333"/>
			<point x="105" y="0.333333" type="curve" smooth="yes"/>
			<point x="128" y="0.333333"/>
			<point x="175.667" y="-0.666667"/>
			<point x="215.667" y="-1.66667" type="curve"/>
			<point x="221.667" y="4.33333"/>
			<point x="221.667" y="25.6667"/>
			<point x="215.667" y="31.6667" type="curve"/>
			<point x="171.667" y="34.6667"/>
			<point x="152.667" y="44"/>
			<point x="175" y="76" type="curve" smooth="yes"/>
			<point x="330" y="299.667" type="line"/>
			<point x="302.333" y="332.333" type="line"/>
			<point x="118" y="89" type="line" smooth="yes"/>
			<point x="86" y="46.3333"/>
			<point x="53" y="35.6667"/>
			<point x="8" y="31.6667" type="curve"/>
			<point x="2" y="25.6667"/>
			<point x="2" y="4.33333"/>
		</contour>
		<contour>
			<point x="339" y="362" type="line"/>
			<point x="363.333" y="331.667" type="line"/>
			<point x="536.667" y="556.333" type="line" smooth="yes"/>
			<point x="569.333" y="598.333"/>
			<point x="600" y="609.667"/>
			<point x="645" y="613.667" type="curve"/>
			<point x="651" y="619.667"/>
			<point x="651" y="641"/>
			<point x="645" y="647" type="curve"/>
			<point x="615" y="646"/>
			<point x="574" y="645"/>
			<point x="551" y="645" type="curve" smooth="yes"/>
			<point x="528" y="645"/>
			<point x="482.333" y="646"/>
			<point x="442.333" y="647" type="curve"/>
			<point x="436.333" y="641"/>
			<point x="436.333" y="619.667"/>
			<point x="442.333" y="613.667" type="curve"/>
			<point x="486.333" y="610.667"/>
			<point x="504" y="601.333"/>
			<point x="483" y="569.333" type="curve"/>
		</contour>
	</outline>
	<anchor name="m.uni0302" x="345.333" y="850"/>
	<anchor name="m.uni0316_2" x="307" y="-110"/>
	<anchor name="m.uni031A_3" x="689" y="732"/>
	<anchor name="t.uni0302" x="347.333" y="740"/>
	<guideline x="379" y="375" angle="52.2597"/>
	<guideline x="471" y="572" angle="234.898"/>
</glyph>
<glyph name="Z" format="2">
	<unicode hex="005A"/>
	<advance width="611"/>
	<outline>
		<contour>
			<point x="34" y="15" type="curve" smooth="yes"/>
			<point x="34" y="5"/>
			<point x="39" y="0"/>
			<point x="53" y="0" type="curve" smooth="yes"/>
			<point x="395.333" y="0" type="line" smooth="yes"/>
			<point x="439" y="0"/>
			<point x="538.333" y="-3"/>
			<point x="557" y="-4.66667" type="curve"/>
			<point x="557.667" y="-4.66667"/>
			<point x="559.667" y="-2.66667"/>
			<point x="559.667" y="-2.33333" type="curve"/>
			<point x="563.333" y="47.6667"/>
			<point x="573.333" y="111.667"/>
			<point x="586" y="167.333" type="curve"/>
			<point x="578" y="170"/>
			<point x="565" y="172.333"/>
			<point x="552.333" y="172.333" type="curve"/>
			<point x="525" y="98.3333"/>
			<point x="492.333" y="44"/>
			<point x="397.667" y="42.6667" type="curve" smooth="yes"/>
			<point x="202.333" y="40" type="line"/>
			<point x="185" y="40"/>
			<point x="177.333" y="44.3333"/>
			<point x="177.333" y="52.3333" type="curve" smooth="yes"/>
			<point x="177.333" y="57.3333"/>
			<point x="180.667" y="63.3333"/>
			<point x="185.667" y="72" type="curve"/>
			<point x="553.667" y="591" type="line" smooth="yes"/>
			<point x="573.667" y="619.333"/>
			<point x="577" y="625.333"/>
			<point x="577" y="636.333" type="curve" smooth="yes"/>
			<point x="577" y="643"/>
			<point x="572.667" y="647"/>
			<point x="562.667" y="647" type="curve" smooth="yes"/>
			<point x="550.333" y="647"/>
			<point x="521.667" y="645"/>
			<point x="492" y="645" type="curve" smooth="yes"/>
			<point x="277.667" y="645" type="line" smooth="yes"/>
			<point x="220.667" y="645"/>
			<point x="118" y="650"/>
			<point x="81.3333" y="653.667" type="curve"/>
			<point x="80.6667" y="653.667"/>
			<point x="77.3333" y="651.667"/>
			<point x="77.3333" y="650.667" type="curve"/>
			<point x="74" y="600.333"/>
			<point x="63.6667" y="537.667"/>
			<point x="54.6667" y="494.333" type="curve"/>
			<point x="64.6667" y="491"/>
			<point x="76.3333" y="489.333"/>
			<point x="87.6667" y="489.333" type="curve"/>
			<point x="108.333" y="562"/>
			<point x="147.667" y="601.333"/>
			<point x="219.667" y="602" type="curve" smooth="yes"/>
			<point x="424" y="604.667" type="line"/>
			<point x="430.667" y="604.667"/>
			<point x="434.333" y="602"/>
			<point x="434.333" y="596.667" type="curve" smooth="yes"/>
			<point x="434.333" y="592.333"/>
			<point x="430.667" y="585.667"/>
			<point x="426" y="579" type="curve" smooth="yes"/>
			<point x="42" y="38" type="line"/>
			<point x="36" y="30"/>
			<point x="34" y="22"/>
		</contour>
	</outline>
	<anchor name="m.uni0302" x="320" y="850"/>
	<anchor name="m.uni0316_2" x="287" y="-110"/>
	<anchor name="m.uni031A_3" x="619" y="732"/>
	<anchor name="t.uni0302" x="311.667" y="740"/>
</glyph>
<glyph name="backslash" format="2">
	<unicode hex="005C"/>
	<advance width="294"/>
	<outline>
		<contour>
			<point x="62" y="698" type="line"/>
			<point x="11" y="698" type="line"/>
			<point x="241" y="-48" type="line"/>
			<point x="292" y="-48" type="line"/>
		</contour>
	</outline>
</glyph>
<glyph name="asciicircum" format="2">
	<unicode hex="005E"/>
	<advance width="518"/>
	<outline>
		<contour>
			<point x="259" y="585" type="line"/>
			<point x="358" y="346" type="line"/>
			<point x="407" y="346" type="line"/>
			<point x="281" y="650" type="line"/>
			<point x="239" y="650" type="line"/>
			<point x="112" y="346" type="line"/>
			<point x="161" y="346" type="line"/>
		</contour>
	</outline>
</glyph>
<glyph name="grave" format="2">
	<unicode hex="0060"/>
	<advance width="392"/>
	<outline>
		<contour>
			<point x="184.667" y="662.667" type="line"/>
			<point x="180.667" y="663.667"/>
			<point x="173" y="664.667"/>
			<point x="168" y="664.667" type="curve" smooth="yes"/>
			<point x="133.333" y="664.667"/>
			<point x="108.333" y="645.667"/>
			<point x="100.333" y="638.667" type="curve"/>
			<point x="98.3333" y="627.667" type="line"/>
			<point x="214.667" y="520" type="line" smooth="yes"/>
			<point x="231" y="505"/>
			<point x="239" y="500"/>
			<point x="245.667" y="500" type="curve" smooth="yes"/>
			<point x="254" y="500"/>
			<point x="261.333" y="506.333"/>
			<point x="261.333" y="512.667" type="curve" smooth="yes"/>
			<point x="261.333" y="520"/>
			<point x="259" y="528.333"/>
			<point x="254.333" y="537.333" type="curve"/>
		</contour>
	</outline>
	<anchor name="_t.uni0302" x="175" y="500"/>
</glyph>
<glyph name="a" format="2">
	<unicode hex="0061"/>
	<advance width="473"/>
	<outline>
		<contour>
			<point x="293.667" y="48.3333" type="line"/>
			<point x="300" y="14"/>
			<point x="316.333" y="-10"/>
			<point x="364.333" y="-10" type="curve" smooth="yes"/>
			<point x="408" y="-10"/>
			<point x="445" y="8.33333"/>
			<point x="471.333" y="33.3333" type="curve"/>
			<point name=".hr01" x="469.333" y="45.3333"/>
			<point x="465.333" y="54"/>
			<point x="454" y="60.6667" type="curve"/>
			<point x="445" y="53.3333"/>
			<point x="430.333" y="45.3333"/>
			<point x="415.333" y="45.3333" type="curve" smooth="yes"/>
			<point x="388.667" y="45.3333"/>
			<point x="386.333" y="77.3333"/>
			<point x="386.333" y="124.333" type="curve" smooth="yes"/>
			<point x="386.333" y="270.333" type="line" smooth="yes"/>
			<point x="386.333" y="393"/>
			<point x="323" y="440.667"/>
			<point x="229" y="440.667" type="curve" smooth="yes"/>
			<point x="150" y="440.667"/>
			<point x="57.3333" y="390.667"/>
			<point x="57.3333" y="330.667" type="curve" smooth="yes"/>
			<point x="57.3333" y="305.333"/>
			<point x="69.3333" y="290"/>
			<point x="97.6667" y="290" type="curve" smooth="yes"/>
			<point x="129" y="290"/>
			<point x="149.667" y="311.333"/>
			<point x="149.667" y="328" type="curve" smooth="yes"/>
			<point x="149.667" y="334.333"/>
			<point x="148.667" y="341"/>
			<point x="147" y="345.667" type="curve"/>
			<point x="145.667" y="351"/>
			<point x="145" y="358.333"/>
			<point x="145" y="369" type="curve" smooth="yes"/>
			<point x="145" y="393.333"/>
			<point x="176" y="404.667"/>
			<point x="212.333" y="404.667" type="curve" smooth="yes"/>
			<point x="263.667" y="404.667"/>
			<point x="292" y="370"/>
			<point x="292" y="262.333" type="curve"/>
			<point x="208.333" y="240.667" type="line"/>
			<point x="99" y="210.333"/>
			<point name=".hr02" x="38.6667" y="163.667"/>
			<point x="38.6667" y="97" type="curve" smooth="yes"/>
			<point x="38.6667" y="20"/>
			<point x="90" y="-10"/>
			<point x="160" y="-10" type="curve" smooth="yes"/>
			<point x="195" y="-10"/>
			<point x="228.333" y="0.666667"/>
			<point x="267" y="30.3333" type="curve" smooth="yes"/>
			<point x="290.333" y="48.3333" type="line"/>
		</contour>
		<contour>
			<point x="292" y="228" type="line"/>
			<point x="292" y="81.3333" type="line"/>
			<point x="258.333" y="53.3333"/>
			<point x="228" y="37.3333"/>
			<point x="201.333" y="37.3333" type="curve" smooth="yes"/>
			<point x="157.333" y="37.3333"/>
			<point x="134" y="72.6667"/>
			<point x="134" y="104.667" type="curve" smooth="yes"/>
			<point x="134" y="150"/>
			<point x="155.667" y="190"/>
			<point x="222" y="208.333" type="curve" smooth="yes"/>
		</contour>
	</outline>
	<anchor name="t.uni0302" x="217" y="500"/>
	<anchor name="m.uni0316_2" x="196" y="-110"/>
	<anchor name="b.uni0321_4" x="410" y="16"/>
</glyph>
<glyph name="c" format="2">
	<unicode hex="0063"/>
	<advance width="437"/>
	<outline>
		<contour>
			<point x="406" y="89.6667" type="curve"/>
			<point x="403.333" y="99.6667"/>
			<point x="397.333" y="108.667"/>
			<point x="387.667" y="109.333" type="curve"/>
			<point x="351.667" y="67.6667"/>
			<point x="311.667" y="46.6667"/>
			<point x="273.333" y="46.6667" type="curve" smooth="yes"/>
			<point x="199.667" y="46.6667"/>
			<point x="139.333" y="114"/>
			<point x="139.333" y="232" type="curve" smooth="yes"/>
			<point x="139.333" y="342.333"/>
			<point x="179.667" y="404.667"/>
			<point x="241.333" y="404.667" type="curve" smooth="yes"/>
			<point x="293" y="404.667"/>
			<point x="303.333" y="368.333"/>
			<point x="307" y="334.333" type="curve" smooth="yes"/>
			<point x="310" y="307.333"/>
			<point x="328.333" y="294.667"/>
			<point x="353" y="294.667" type="curve" smooth="yes"/>
			<point x="377.667" y="294.667"/>
			<point x="404" y="311.667"/>
			<point x="404" y="342.667" type="curve" smooth="yes"/>
			<point x="404" y="394.333"/>
			<point x="348" y="440.667"/>
			<point x="247.667" y="440.667" type="curve" smooth="yes"/>
			<point x="142.333" y="440.667"/>
			<point x="37" y="349.667"/>
			<point x="37" y="205.667" type="curve" smooth="yes"/>
			<point x="37" y="74"/>
			<point x="113.667" y="-10"/>
			<point x="241.667" y="-10" type="curve" smooth="yes"/>
			<point x="301.667" y="-10"/>
			<point x="360" y="16.6667"/>
		</contour>
	</outline>
	<anchor name="t.uni0302" x="242" y="500"/>
	<anchor name="m.uni0316_2" x="236" y="-110"/>
	<anchor name="b.uni0321_4" x="361" y="42"/>
</glyph>
<glyph name="h" format="2">
	<unicode hex="0068"/>
	<advance width="565"/>
	<outline>
		<contour>
			<point x="19.6667" y="-2" type="curve"/>
			<point x="55.6667" y="-1"/>
			<point x="95.3333" y="0"/>
			<point x="140.333" y="0" type="curve" smooth="yes"/>
			<point x="181.667" y="0"/>
			<point x="214" y="-1"/>
			<point x="247" y="-2" type="curve"/>
			<point x="253" y="4"/>
			<point x="253" y="25.3333"/>
			<point x="247" y="31.3333" type="curve"/>
			<point x="199" y="35"/>
			<point x="188" y="40.6667"/>
			<point x="188" y="123.667" type="curve" smooth="yes"/>
			<point x="188" y="583" type="line" smooth="yes"/>
			<point x="188" y="648"/>
			<point x="191.667" y="684.333"/>
			<point x="191.667" y="687" type="curve" smooth="yes"/>
			<point x="191.667" y="694.667"/>
			<point x="186.667" y="698"/>
			<point x="177.667" y="698" type="curve"/>
			<point x="148.667" y="687.333"/>
			<point x="72" y="674.333"/>
			<point x="21.6667" y="671.333" type="curve"/>
			<point x="19.3333" y="662"/>
			<point x="21" y="647.667"/>
			<point x="26.6667" y="640.667" type="curve"/>
			<point x="83" y="636.333"/>
			<point x="92" y="626.667"/>
			<point x="92" y="561" type="curve" smooth="yes"/>
			<point x="92" y="123.667" type="line" smooth="yes"/>
			<point x="92" y="40.6667"/>
			<point x="78.6667" y="35"/>
			<point x="19.6667" y="31.3333" type="curve"/>
			<point x="13.6667" y="25.3333"/>
			<point x="13.6667" y="4"/>
		</contour>
		<contour>
			<point x="323.667" y="-2" type="curve"/>
			<point x="356.333" y="-1"/>
			<point x="389.667" y="0"/>
			<point x="432.333" y="0" type="curve" smooth="yes"/>
			<point x="477.333" y="0"/>
			<point x="514" y="-1"/>
			<point x="550.333" y="-2" type="curve"/>
			<point x="555.667" y="4"/>
			<point x="555.667" y="25.3333"/>
			<point x="550.333" y="31.3333" type="curve"/>
			<point x="492.667" y="35.6667"/>
			<point x="480" y="41.3333"/>
			<point x="480" y="124" type="curve" smooth="yes"/>
			<point x="480" y="275.333" type="line" smooth="yes"/>
			<point x="480" y="367.333"/>
			<point x="460.333" y="440.667"/>
			<point x="362.333" y="440.667" type="curve" smooth="yes"/>
			<point x="291.667" y="440.667"/>
			<point x="230.667" y="399"/>
			<point x="173.667" y="342.333" type="curve"/>
			<point x="175" y="305.333" type="line"/>
			<point x="217.333" y="346.667"/>
			<point x="266.667" y="381.333"/>
			<point x="315.667" y="381.333" type="curve" smooth="yes"/>
			<point x="367.667" y="381.333"/>
			<point x="384" y="328.667"/>
			<point x="384" y="281" type="curve" smooth="yes"/>
			<point x="384" y="124" type="line" smooth="yes"/>
			<point x="384" y="41.3333"/>
			<point x="372" y="35.6667"/>
			<point x="323.667" y="31.3333" type="curve"/>
			<point x="318.333" y="25.3333"/>
			<point x="318.333" y="4"/>
		</contour>
	</outline>
	<anchor name="m.uni0302" x="299" y="645"/>
	<anchor name="m.uni0316_2" x="286.333" y="-110"/>
	<anchor name="m.uni031A_3" x="429" y="580"/>
	<anchor name="b.uni0321_4" x="423" y="10"/>
</glyph>
<glyph name="o" format="2">
	<unicode hex="006F"/>
	<advance width="520"/>
	<outline>
		<contour>
			<point x="39.6667" y="205.667" type="curve" smooth="yes"/>
			<point x="39.6667" y="94"/>
			<point x="119.667" y="-10"/>
			<point x="259" y="-10" type="curve" smooth="yes"/>
			<point x="392.667" y="-10"/>
			<point x="480" y="81.3333"/>
			<point x="480" y="214.667" type="curve" smooth="yes"/>
			<point x="480" y="327.667"/>
			<point x="412.333" y="440.667"/>
			<point x="260.667" y="440.667" type="curve" smooth="yes"/>
			<point x="122.667" y="440.667"/>
			<point x="39.6667" y="339"/>
		</contour>
		<contour>
			<point x="245.333" y="403.333" type="curve" smooth="yes"/>
			<point x="325.333" y="403.333"/>
			<point x="376" y="324.333"/>
			<point x="376" y="182.667" type="curve" smooth="yes"/>
			<point x="376" y="58.6667"/>
			<point x="317" y="27.3333"/>
			<point x="273.667" y="27.3333" type="curve" smooth="yes"/>
			<point x="177" y="27.3333"/>
			<point x="143.667" y="152.333"/>
			<point x="143.667" y="228.333" type="curve" smooth="yes"/>
			<point x="143.667" y="317"/>
			<point x="163" y="403.333"/>
		</contour>
	</outline>
	<anchor name="t.uni0302" x="245.333" y="500"/>
	<anchor name="t.uni0315_1" x="420" y="396"/>
	<anchor name="m.uni0316_2" x="243" y="-110"/>
	<anchor name="b.uni0321_4" x="372" y="44"/>
</glyph>
<glyph name="p" format="2">
	<unicode hex="0070"/>
	<advance width="540"/>
	<outline>
		<contour>
			<point x="13" y="-234" type="curve"/>
			<point x="50.3333" y="-233"/>
			<point x="89" y="-232"/>
			<point x="133.333" y="-232" type="curve" smooth="yes"/>
			<point x="177.667" y="-232"/>
			<point x="223.333" y="-233"/>
			<point x="259.667" y="-234" type="curve"/>
			<point x="265.667" y="-228"/>
			<point x="265.667" y="-206.667"/>
			<point x="259.667" y="-200.667" type="curve"/>
			<point x="192" y="-196.667"/>
			<point x="181" y="-193"/>
			<point x="181" y="-110" type="curve" smooth="yes"/>
			<point x="181" y="314.333" type="line" smooth="yes"/>
			<point x="181" y="362"/>
			<point x="175.667" y="404.667"/>
			<point x="171" y="431.667" type="curve" smooth="yes"/>
			<point x="169.667" y="439"/>
			<point x="165.333" y="442.667"/>
			<point x="155.333" y="442.667" type="curve"/>
			<point x="124.333" y="432"/>
			<point x="87" y="421.333"/>
			<point x="18" y="412.333" type="curve"/>
			<point x="16" y="406.333"/>
			<point x="18" y="389"/>
			<point x="20" y="383" type="curve"/>
			<point x="74.3333" y="378"/>
			<point x="85" y="372"/>
			<point x="85" y="314.333" type="curve" smooth="yes"/>
			<point x="85" y="-110" type="line" smooth="yes"/>
			<point x="85" y="-193"/>
			<point x="74" y="-197"/>
			<point x="13" y="-200.667" type="curve"/>
			<point x="7" y="-206.667"/>
			<point x="7" y="-228"/>
		</contour>
		<contour>
			<point x="166" y="15.6667" type="line"/>
			<point x="191.333" y="1.66667"/>
			<point x="239" y="-10"/>
			<point x="270.667" y="-10" type="curve" smooth="yes"/>
			<point x="414.667" y="-10"/>
			<point x="501.667" y="98"/>
			<point x="501.667" y="235.667" type="curve" smooth="yes"/>
			<point x="501.667" y="346.667"/>
			<point x="426.667" y="440.667"/>
			<point x="318" y="440.667" type="curve" smooth="yes"/>
			<point x="277.667" y="440.667"/>
			<point x="221.667" y="404.333"/>
			<point x="183.333" y="363.667" type="curve"/>
			<point x="172" y="363.667" type="line"/>
			<point x="172" y="309.667" type="line"/>
			<point x="198" y="341.333"/>
			<point x="246.667" y="387.667"/>
			<point x="288.667" y="387.667" type="curve" smooth="yes"/>
			<point x="345" y="387.667"/>
			<point x="397.667" y="323"/>
			<point x="397.667" y="208.667" type="curve" smooth="yes"/>
			<point x="397.667" y="126"/>
			<point x="368.333" y="26.6667"/>
			<point x="264.667" y="26.6667" type="curve" smooth="yes"/>
			<point x="235.667" y="26.6667"/>
			<point x="203" y="40.3333"/>
			<point x="166" y="77.6667" type="curve"/>
		</contour>
	</outline>
	<anchor name="m.uni0302" x="271" y="646"/>
	<anchor name="m.uni0316_2" x="179" y="-319"/>
	<anchor name="m.uni031A_3" x="429" y="580"/>
	<anchor name="t.uni0302" x="254.667" y="500"/>
</glyph>
<glyph name="q" format="2">
	<unicode hex="0071"/>
	<advance width="526"/>
	<outline>
		<contour>
			<point x="35.3333" y="207.333" type="curve" smooth="yes"/>
			<point x="35.3333" y="102.667"/>
			<point x="102.667" y="-10"/>
			<point x="241.667" y="-10" type="curve" smooth="yes"/>
			<point x="278" y="-10"/>
			<point x="310.333" y="2.33333"/>
			<point x="345.333" y="22" type="curve"/>
			<point x="348.333" y="22" type="line"/>
			<point x="348.333" y="-110.667" type="line" smooth="yes"/>
			<point x="348.333" y="-193.667"/>
			<point x="337.333" y="-197"/>
			<point x="276.333" y="-200.667" type="curve"/>
			<point x="270.333" y="-206.667"/>
			<point x="270.333" y="-228"/>
			<point x="276.333" y="-234" type="curve"/>
			<point x="313.667" y="-233"/>
			<point x="352.333" y="-232"/>
			<point x="396.667" y="-232" type="curve" smooth="yes"/>
			<point x="441" y="-232"/>
			<point x="480" y="-233"/>
			<point x="516.333" y="-234" type="curve"/>
			<point x="522.333" y="-228"/>
			<point x="522.333" y="-206.667"/>
			<point x="516.333" y="-200.667" type="curve"/>
			<point x="455.333" y="-197.333"/>
			<point x="444.333" y="-193.667"/>
			<point x="444.333" y="-110.667" type="curve" smooth="yes"/>
			<point x="444.333" y="329" type="line" smooth="yes"/>
			<point x="444.333" y="364.333"/>
			<point x="445.667" y="399.667"/>
			<point x="448.333" y="420.333" type="curve"/>
			<point x="448.333" y="433.333"/>
			<point x="440" y="442.667"/>
			<point x="428" y="442.667" type="curve" smooth="yes"/>
			<point x="417" y="442.667"/>
			<point x="393.333" y="422.333"/>
			<point x="379.333" y="404.333" type="curve"/>
			<point x="342" y="426"/>
			<point x="311.333" y="440.667"/>
			<point x="260.667" y="440.667" type="curve" smooth="yes"/>
			<point x="135" y="440.667"/>
			<point x="35.3333" y="339.667"/>
		</contour>
		<contour>
			<point x="139.333" y="227.667" type="curve" smooth="yes"/>
			<point x="139.333" y="330.333"/>
			<point x="182" y="404"/>
			<point x="257" y="404" type="curve" smooth="yes"/>
			<point x="292.333" y="404"/>
			<point x="315.667" y="391.667"/>
			<point x="348.333" y="350" type="curve"/>
			<point x="348.333" y="59.6667" type="line"/>
			<point x="321.333" y="44.6667"/>
			<point x="300.667" y="38"/>
			<point x="273.333" y="38" type="curve" smooth="yes"/>
			<point x="218" y="38"/>
			<point x="139.333" y="78"/>
		</contour>
	</outline>
	<anchor name="m.uni0302" x="238" y="645"/>
	<anchor name="m.uni0316_2" x="348" y="-319"/>
	<anchor name="m.uni031A_3" x="469" y="732"/>
</glyph>
<glyph name="s" format="2">
	<unicode hex="0073"/>
	<advance width="402"/>
	<outline>
		<contour>
			<point x="48" y="140.667" type="curve"/>
			<point x="52" y="93"/>
			<point x="54" y="41.3333"/>
			<point x="56.6667" y="0" type="curve"/>
			<point x="65" y="2"/>
			<point x="74" y="3"/>
			<point x="80.3333" y="3" type="curve" smooth="yes"/>
			<point x="89.6667" y="3"/>
			<point x="99.6667" y="2.33333"/>
			<point x="115.333" y="-1.33333" type="curve" smooth="yes"/>
			<point x="136" y="-6.33333"/>
			<point x="162" y="-10"/>
			<point x="193.667" y="-10" type="curve" smooth="yes"/>
			<point x="258.333" y="-10"/>
			<point x="359" y="23.3333"/>
			<point x="359" y="120" type="curve" smooth="yes"/>
			<point x="359" y="185.667"/>
			<point x="310.667" y="225.333"/>
			<point x="248.667" y="251.667" type="curve" smooth="yes"/>
			<point x="194.667" y="275"/>
			<point name=".hr01" x="147.333" y="289.667"/>
			<point x="147.333" y="341.667" type="curve" smooth="yes"/>
			<point x="147.333" y="381.667"/>
			<point x="177.667" y="403.333"/>
			<point x="210.333" y="403.333" type="curve" smooth="yes"/>
			<point x="236.333" y="403.333"/>
			<point x="286.333" y="387.333"/>
			<point x="303.333" y="310.333" type="curve"/>
			<point x="311.667" y="306.667"/>
			<point x="327.667" y="307.667"/>
			<point x="334.333" y="312.667" type="curve"/>
			<point x="338.667" y="348.333"/>
			<point x="341" y="385"/>
			<point x="342.667" y="418" type="curve"/>
			<point x="308.333" y="423.667"/>
			<point x="266" y="440.667"/>
			<point x="213.333" y="440.667" type="curve" smooth="yes"/>
			<point x="126.667" y="440.667"/>
			<point x="62.3333" y="391"/>
			<point x="62.3333" y="321.333" type="curve" smooth="yes"/>
			<point x="62.3333" y="254.667"/>
			<point x="100.667" y="221"/>
			<point x="172.667" y="187.667" type="curve" smooth="yes"/>
			<point x="235.667" y="157.667"/>
			<point x="269.667" y="137.667"/>
			<point x="269.667" y="95" type="curve" smooth="yes"/>
			<point x="269.667" y="46"/>
			<point x="227" y="26.3333"/>
			<point x="189.333" y="26.3333" type="curve" smooth="yes"/>
			<point x="125" y="26.3333"/>
			<point x="99.6667" y="77"/>
			<point name=".hr02" x="82" y="142" type="curve"/>
			<point x="72.6667" y="147"/>
			<point x="57.3333" y="146"/>
		</contour>
	</outline>
	<anchor name="t.uni0302" x="198" y="500"/>
	<anchor name="m.uni0316_2" x="196" y="-110"/>
	<anchor name="m.uni031A_3" x="366" y="580"/>
	<anchor name="b.uni0321_4" x="290" y="13"/>
</glyph>
<glyph name="t" format="2">
	<unicode hex="0074"/>
	<advance width="330"/>
	<outline>
		<contour>
			<point x="64.3333" y="430.667" type="line" smooth="yes"/>
			<point x="50.3333" y="430.667"/>
			<point x="34.6667" y="424.667"/>
			<point x="23.6667" y="415.667" type="curve"/>
			<point x="23.6667" y="394" type="line" smooth="yes"/>
			<point x="23.6667" y="389"/>
			<point x="24.6667" y="388"/>
			<point x="28.6667" y="388" type="curve" smooth="yes"/>
			<point x="89.6667" y="388" type="line"/>
			<point x="89.6667" y="94.3333" type="line" smooth="yes"/>
			<point x="89.6667" y="22.6667"/>
			<point x="122.333" y="-10"/>
			<point x="177.667" y="-10" type="curve" smooth="yes"/>
			<point x="226.667" y="-10"/>
			<point x="280.333" y="14"/>
			<point x="313" y="52.6667" type="curve"/>
			<point x="311.667" y="63.3333"/>
			<point x="305.667" y="69.3333"/>
			<point x="295" y="73.3333" type="curve"/>
			<point x="273.333" y="56.6667"/>
			<point x="245" y="50"/>
			<point x="221.333" y="50" type="curve" smooth="yes"/>
			<point x="196" y="50"/>
			<point x="184.333" y="75.6667"/>
			<point x="184.333" y="133.667" type="curve" smooth="yes"/>
			<point x="184.333" y="388" type="line"/>
			<point x="287.333" y="388" type="line" smooth="yes"/>
			<point x="297.333" y="388"/>
			<point x="311.333" y="392"/>
			<point x="311.333" y="401" type="curve" smooth="yes"/>
			<point x="311.333" y="424.667" type="line" smooth="yes"/>
			<point x="311.333" y="428.667"/>
			<point x="308.333" y="430.667"/>
			<point x="303.333" y="430.667" type="curve" smooth="yes"/>
			<point x="184.333" y="430.667" type="line"/>
			<point x="185.333" y="468" type="line" smooth="yes"/>
			<point x="187.333" y="533.667"/>
			<point x="191.333" y="567.333"/>
			<point x="192.333" y="575.667" type="curve"/>
			<point x="192.333" y="581.667"/>
			<point x="189.333" y="584.667"/>
			<point x="184.333" y="584.667" type="curve" smooth="yes"/>
			<point x="177" y="584.667"/>
			<point x="100.667" y="554"/>
			<point x="97.3333" y="546.667" type="curve"/>
			<point x="93" y="535"/>
			<point x="89.6667" y="496"/>
			<point x="89.6667" y="430.667" type="curve"/>
		</contour>
	</outline>
	<anchor name="m.uni0316_2" x="163" y="-110"/>
	<anchor name="m.uni031A_3" x="279" y="580"/>
	<anchor name="b.uni0321_4" x="237" y="15"/>
	<anchor name="t.uni0302" x="139" y="650"/>
</glyph>
<glyph name="w" format="2">
	<unicode hex="0077"/>
	<advance width="757"/>
	<outline>
		<contour>
			<point x="246.333" y="-12" type="curve" smooth="yes"/>
			<point x="255.667" y="-12"/>
			<point x="267.333" y="-7.33333"/>
			<point x="274.667" y="10.3333" type="curve" smooth="yes"/>
			<point x="373.333" y="256.333" type="line"/>
			<point x="474" y="8.33333" type="line" smooth="yes"/>
			<point x="480.333" y="-7"/>
			<point x="492" y="-12"/>
			<point x="503" y="-12" type="curve" smooth="yes"/>
			<point x="512.333" y="-12"/>
			<point x="523.333" y="-7"/>
			<point x="530" y="9.66667" type="curve" smooth="yes"/>
			<point x="658.333" y="322.667" type="line" smooth="yes"/>
			<point x="675.333" y="364.333"/>
			<point x="691.667" y="395.667"/>
			<point x="744.333" y="399.333" type="curve"/>
			<point x="750.333" y="405.333"/>
			<point x="750.333" y="426.667"/>
			<point x="744.333" y="432.667" type="curve"/>
			<point x="723.667" y="431.667"/>
			<point x="703" y="430.667"/>
			<point x="674.333" y="430.667" type="curve" smooth="yes"/>
			<point x="642" y="430.667"/>
			<point x="599.667" y="431.667"/>
			<point x="567.333" y="432.667" type="curve"/>
			<point x="561.333" y="426.667"/>
			<point x="561.333" y="405.333"/>
			<point x="567.333" y="399.333" type="curve"/>
			<point x="635.333" y="395.333"/>
			<point x="630" y="367.333"/>
			<point x="614.667" y="327.667" type="curve" smooth="yes"/>
			<point x="539.333" y="136.333" type="line" smooth="yes"/>
			<point x="531.333" y="115.667"/>
			<point x="526.667" y="116"/>
			<point x="520" y="133.333" type="curve" smooth="yes"/>
			<point x="443" y="337.667" type="line" smooth="yes"/>
			<point x="425.667" y="383"/>
			<point x="425" y="395"/>
			<point x="480" y="399.333" type="curve"/>
			<point x="486" y="405.333"/>
			<point x="486" y="426.667"/>
			<point x="480" y="432.667" type="curve"/>
			<point x="447.667" y="431.667"/>
			<point x="406.667" y="430.667"/>
			<point x="369.667" y="430.667" type="curve" smooth="yes"/>
			<point x="342.333" y="430.667"/>
			<point x="305" y="431.667"/>
			<point x="273.667" y="432.667" type="curve"/>
			<point x="267.667" y="426.667"/>
			<point x="267.667" y="405.333"/>
			<point x="273.667" y="399.333" type="curve"/>
			<point x="321.667" y="394.333"/>
			<point x="329.333" y="368.667"/>
			<point x="348" y="321.667" type="curve" smooth="yes"/>
			<point x="353" y="308.333" type="line"/>
			<point x="287.333" y="138" type="line" smooth="yes"/>
			<point x="277.667" y="113.667"/>
			<point x="275" y="112.333"/>
			<point x="265" y="137" type="curve"/>
			<point x="191.667" y="333.667" type="line" smooth="yes"/>
			<point x="174.333" y="379.333"/>
			<point x="175" y="395.667"/>
			<point x="221" y="399.333" type="curve"/>
			<point x="227" y="405.333"/>
			<point x="227" y="426.667"/>
			<point x="221" y="432.667" type="curve"/>
			<point x="189.667" y="431.667"/>
			<point x="153.333" y="430.667"/>
			<point x="113.667" y="430.667" type="curve" smooth="yes"/>
			<point x="76.6667" y="430.667"/>
			<point x="41.6667" y="431.667"/>
			<point x="12" y="432.667" type="curve"/>
			<point x="6" y="426.667"/>
			<point x="6" y="405.333"/>
			<point x="12" y="399.333" type="curve"/>
			<point x="62.6667" y="393.667"/>
			<point x="71" y="380.667"/>
			<point x="91.3333" y="329" type="curve" smooth="yes"/>
			<point x="219.333" y="8.33333" type="line" smooth="yes"/>
			<point x="225.667" y="-7.33333"/>
			<point x="235.333" y="-12"/>
		</contour>
	</outline>
	<anchor name="m.uni0302" x="345" y="646"/>
	<anchor name="m.uni0316_2" x="352" y="-110"/>
	<anchor name="m.uni031A_3" x="719" y="580"/>
</glyph>
<glyph name="z" format="2">
	<unicode hex="007A"/>
	<advance width="433"/>
	<outline>
		<contour>
			<point x="67.6667" y="441.333" type="curve"/>
			<point x="65.6667" y="441.333"/>
			<point x="61.6667" y="437.333"/>
			<point x="61.6667" y="435.333" type="curve"/>
			<point x="60.6667" y="390.333"/>
			<point x="55.3333" y="352"/>
			<point x="46.6667" y="303" type="curve"/>
			<point x="55.6667" y="299"/>
			<point x="71" y="297"/>
			<point x="83" y="300" type="curve"/>
			<point x="103" y="373"/>
			<point x="134" y="391.667"/>
			<point x="164" y="392.667" type="curve" smooth="yes"/>
			<point x="282.667" y="396.333" type="line"/>
			<point x="284.667" y="394.333" type="line"/>
			<point x="39.3333" y="32" type="line" smooth="yes"/>
			<point x="31.3333" y="20"/>
			<point x="30.3333" y="17"/>
			<point x="30.3333" y="12" type="curve" smooth="yes"/>
			<point x="30.3333" y="5"/>
			<point x="38.3333" y="0"/>
			<point x="53.3333" y="0" type="curve"/>
			<point x="378.667" y="-3" type="line"/>
			<point x="390.667" y="31"/>
			<point x="403.667" y="83"/>
			<point x="410.667" y="133" type="curve"/>
			<point x="404.667" y="137"/>
			<point x="389.333" y="139"/>
			<point x="377.333" y="139" type="curve"/>
			<point x="363.333" y="110" type="line" smooth="yes"/>
			<point x="338.333" y="57"/>
			<point x="317.333" y="36.3333"/>
			<point x="265.333" y="35.6667" type="curve" smooth="yes"/>
			<point x="144.667" y="35" type="line"/>
			<point x="144.333" y="37.3333" type="line"/>
			<point x="391.333" y="404.333" type="line" smooth="yes"/>
			<point x="398" y="414.333"/>
			<point x="400.333" y="422.667"/>
			<point x="400.333" y="426.333" type="curve" smooth="yes"/>
			<point x="400.333" y="430.333"/>
			<point x="395.333" y="433.333"/>
			<point x="388.333" y="433.333" type="curve" smooth="yes"/>
			<point x="383.333" y="433.333"/>
			<point x="342" y="431.333"/>
			<point x="313" y="431.333" type="curve" smooth="yes"/>
			<point x="126.667" y="431.333" type="line" smooth="yes"/>
			<point x="94.6667" y="431.333"/>
			<point x="83.6667" y="437"/>
		</contour>
	</outline>
	<anchor name="t.uni0302" x="220" y="500"/>
	<anchor name="m.uni0316_2" x="207" y="-110"/>
	<anchor name="m.uni031A_3" x="399" y="580"/>
</glyph>
<glyph name="bar" format="2">
	<unicode hex="007C"/>
	<advance width="210"/>
	<outline>
		<contour>
			<point x="130" y="-232.333" type="line"/>
			<point x="130" y="698" type="line"/>
			<point x="80.6667" y="698" type="line"/>
			<point x="80.6667" y="-232.333" type="line"/>
		</contour>
	</outline>
</glyph>
<glyph name="asciitilde" format="2">
	<unicode hex="007E"/>
	<advance width="457"/>
	<outline>
		<contour>
			<point x="149.333" y="274.667" type="curve" smooth="yes"/>
			<point x="173.667" y="274.667"/>
			<point x="194.667" y="263.667"/>
			<point x="217.667" y="245.333" type="curve" smooth="yes"/>
			<point x="242.333" y="225.333"/>
			<point x="275.333" y="211"/>
			<point x="299" y="211" type="curve" smooth="yes"/>
			<point x="328" y="211"/>
			<point x="397.667" y="225.333"/>
			<point x="428" y="326" type="curve"/>
			<point x="426.667" y="329.333"/>
			<point x="422.667" y="335.333"/>
			<point name=".hr01" x="418" y="339" type="curve"/>
			<point x="415.667" y="340"/>
			<point x="411.667" y="340.333"/>
			<point x="408" y="340.667" type="curve"/>
			<point x="385.333" y="288.333"/>
			<point x="334.667" y="274.667"/>
			<point x="306.667" y="274.667" type="curve" smooth="yes"/>
			<point x="289.667" y="274.667"/>
			<point x="268.333" y="284.667"/>
			<point x="246.333" y="302.333" type="curve"/>
			<point x="243.667" y="304.333"/>
			<point x="240.667" y="306.333"/>
			<point x="238" y="308.333" type="curve" smooth="yes"/>
			<point x="216.333" y="325"/>
			<point x="187.667" y="336.333"/>
			<point x="163.667" y="337.667" type="curve"/>
			<point x="161" y="338.333"/>
			<point x="159" y="338.333"/>
			<point x="156" y="338.333" type="curve"/>
			<point x="107.667" y="337.667"/>
			<point x="52.3333" y="300.333"/>
			<point x="30" y="237.333" type="curve"/>
			<point x="28" y="228.667"/>
			<point x="28" y="218"/>
			<point x="29.3333" y="208.333" type="curve"/>
			<point x="34.3333" y="206"/>
			<point x="39" y="205"/>
			<point x="44" y="204.667" type="curve"/>
			<point x="67.3333" y="253"/>
			<point x="116.667" y="274.667"/>
		</contour>
	</outline>
</glyph>
<glyph name="exclamdown" format="2">
	<unicode hex="00A1"/>
	<advance width="281"/>
	<outline>
		<contour>
			<point x="140.333" y="-227.333" type="curve" smooth="yes"/>
			<point x="166.667" y="-227.333"/>
			<point x="199.667" y="-208.333"/>
			<point x="199.667" y="-153.667" type="curve" smooth="yes"/>
			<point x="199.667" y="-94"/>
			<point x="188" y="-61"/>
			<point x="179.667" y="9.33333" type="curve" smooth="yes"/>
			<point x="170" y="84.6667"/>
			<point x="161.333" y="184.667"/>
			<point x="159.667" y="214.667" type="curve" smooth="yes"/>
			<point x="158.667" y="230"/>
			<point x="155.667" y="241.333"/>
			<point x="140.333" y="241.333" type="curve" smooth="yes"/>
			<point x="126" y="241.333"/>
			<point x="122.333" y="227.667"/>
			<point x="121.667" y="214" type="curve" smooth="yes"/>
			<point x="120" y="188.333"/>
			<point x="115.667" y="115"/>
			<point x="101.667" y="10.3333" type="curve" smooth="yes"/>
			<point x="93" y="-58"/>
			<point x="81" y="-98.6667"/>
			<point x="81" y="-153.667" type="curve" smooth="yes"/>
			<point x="81" y="-206.667"/>
			<point x="112" y="-227.333"/>
		</contour>
		<contour>
			<point x="129.333" y="382.667" type="curve" smooth="yes"/>
			<point x="129.333" y="376"/>
			<point x="134.667" y="370"/>
			<point x="140.667" y="370" type="curve" smooth="yes"/>
			<point x="146.667" y="370"/>
			<point x="151.333" y="375.333"/>
			<point x="151.333" y="382" type="curve" smooth="yes"/>
			<point x="151.333" y="388.333"/>
			<point x="146" y="394.333"/>
			<point x="140" y="394.333" type="curve" smooth="yes"/>
			<point x="134" y="394.333"/>
			<point x="129.333" y="389"/>
		</contour>
	</outline>
</glyph>
<glyph name="sterling" format="2">
	<unicode hex="00A3"/>
	<advance width="490"/>
	<outline>
		<contour>
			<point x="76.6667" y="297.333" type="curve" smooth="yes"/>
			<point x="135.333" y="297.333" type="line"/>
			<point x="135.333" y="282" type="line" smooth="yes"/>
			<point x="135.333" y="193"/>
			<point x="125" y="133"/>
			<point x="95.6667" y="96" type="curve"/>
			<point x="91.6667" y="92"/>
			<point x="87.3333" y="88"/>
			<point x="82.6667" y="84.6667" type="curve"/>
			<point x="77.3333" y="80.3333"/>
			<point x="71.6667" y="76.3333"/>
			<point x="66.3333" y="72" type="curve"/>
			<point x="40" y="56.3333"/>
			<point x="16.6667" y="36.6667"/>
			<point x="16.6667" y="16.3333" type="curve" smooth="yes"/>
			<point x="16.6667" y="0"/>
			<point x="32" y="-13.3333"/>
			<point x="52" y="-13.3333" type="curve" smooth="yes"/>
			<point x="76.6667" y="-13.3333"/>
			<point x="99" y="-0.666667"/>
			<point x="99" y="24.3333" type="curve" smooth="yes"/>
			<point x="99" y="36"/>
			<point x="103.333" y="50"/>
			<point x="138.333" y="50" type="curve" smooth="yes"/>
			<point x="167.333" y="50"/>
			<point x="188.667" y="41.3333"/>
			<point x="209" y="29" type="curve" smooth="yes"/>
			<point x="237.333" y="11"/>
			<point x="265" y="-10.6667"/>
			<point x="316.333" y="-10.6667" type="curve" smooth="yes"/>
			<point x="384.667" y="-10.6667"/>
			<point x="433.667" y="34.3333"/>
			<point x="456" y="86.3333" type="curve"/>
			<point x="452" y="93.3333"/>
			<point name=".hr01" x="444.667" y="97.3333"/>
			<point x="436.333" y="98.6667" type="curve"/>
			<point x="410.333" y="63"/>
			<point x="364.333" y="50.6667"/>
			<point x="334.333" y="50.6667" type="curve" smooth="yes"/>
			<point x="312.333" y="50.6667"/>
			<point x="298.333" y="56.3333"/>
			<point x="284.333" y="64" type="curve" smooth="yes"/>
			<point x="258.333" y="77.6667"/>
			<point x="233.333" y="97"/>
			<point x="155" y="97" type="curve"/>
			<point x="190.333" y="128"/>
			<point x="233.333" y="182"/>
			<point x="235.333" y="297.333" type="curve"/>
			<point x="324.333" y="297.333" type="line" smooth="yes"/>
			<point x="328" y="297.333"/>
			<point x="331.333" y="297.333"/>
			<point x="335.333" y="297.667" type="curve"/>
			<point x="348.667" y="298"/>
			<point x="363.667" y="303.333"/>
			<point x="363.667" y="312.667" type="curve" smooth="yes"/>
			<point x="363.667" y="331.333" type="line" smooth="yes"/>
			<point x="363.667" y="335"/>
			<point x="360.667" y="337.333"/>
			<point x="355.667" y="338" type="curve"/>
			<point x="351.667" y="338.667"/>
			<point x="346.667" y="339"/>
			<point x="341.333" y="339" type="curve" smooth="yes"/>
			<point x="235.333" y="339" type="line"/>
			<point x="235.333" y="411.333" type="line" smooth="yes"/>
			<point x="235.333" y="498.667"/>
			<point x="264" y="566.667"/>
			<point x="310.333" y="566.667" type="curve" smooth="yes"/>
			<point x="332.333" y="566.667"/>
			<point x="342" y="550.667"/>
			<point x="356" y="537" type="curve" smooth="yes"/>
			<point x="368.667" y="525"/>
			<point x="380" y="515.667"/>
			<point x="396" y="515.667" type="curve" smooth="yes"/>
			<point x="423.333" y="515.667"/>
			<point x="442.333" y="534"/>
			<point x="442.333" y="562" type="curve" smooth="yes"/>
			<point x="442.333" y="601.667"/>
			<point x="380.667" y="612"/>
			<point x="357.667" y="612" type="curve" smooth="yes"/>
			<point x="304.333" y="612"/>
			<point x="255.667" y="591"/>
			<point x="218.667" y="554.667" type="curve" smooth="yes"/>
			<point x="165.333" y="502.667"/>
			<point x="135.333" y="449"/>
			<point x="135.333" y="360.333" type="curve" smooth="yes"/>
			<point x="135.333" y="339" type="line"/>
			<point x="101" y="339" type="line" smooth="yes"/>
			<point x="97" y="339"/>
			<point x="93.3333" y="339"/>
			<point x="89.6667" y="338.667" type="curve"/>
			<point x="70" y="338"/>
			<point x="63.3333" y="326.333"/>
			<point x="63.3333" y="318.333" type="curve" smooth="yes"/>
			<point x="63.3333" y="313" type="line" smooth="yes"/>
			<point x="63.3333" y="309.333"/>
			<point x="63.6667" y="306.333"/>
			<point x="65" y="303" type="curve" smooth="yes"/>
			<point x="66.6667" y="299"/>
			<point x="69.6667" y="297.333"/>
		</contour>
	</outline>
</glyph>
<glyph name="section" format="2">
	<unicode hex="00A7"/>
	<advance width="471"/>
	<outline>
		<contour>
			<point x="398.333" y="-35.3333" type="curve" smooth="yes"/>
			<point x="398.333" y="6"/>
			<point x="386" y="41.6667"/>
			<point x="353.333" y="76.6667" type="curve"/>
			<point x="395.667" y="111.333"/>
			<point name=".hr01" x="427.667" y="156.667"/>
			<point x="427.667" y="219" type="curve" smooth="yes"/>
			<point x="427.667" y="338"/>
			<point x="336.667" y="381.333"/>
			<point x="249.333" y="426.333" type="curve" smooth="yes"/>
			<point x="244.667" y="428.667"/>
			<point x="240.333" y="430.667"/>
			<point x="236" y="433" type="curve" smooth="yes"/>
			<point x="188.333" y="458.667"/>
			<point x="162.667" y="485"/>
			<point x="157.333" y="522" type="curve"/>
			<point x="156" y="527.333"/>
			<point x="155.333" y="532.667"/>
			<point x="155.333" y="538.667" type="curve" smooth="yes"/>
			<point x="155.333" y="584.667"/>
			<point x="184" y="622"/>
			<point x="230" y="625" type="curve" smooth="yes"/>
			<point x="236" y="625.333"/>
			<point x="242" y="625"/>
			<point x="247.333" y="624.333" type="curve" smooth="yes"/>
			<point x="284.667" y="620.333"/>
			<point x="297" y="595"/>
			<point x="303" y="565.667" type="curve"/>
			<point x="303" y="560.333"/>
			<point x="298.333" y="560"/>
			<point x="298.333" y="549.667" type="curve"/>
			<point x="301.667" y="533.333"/>
			<point x="314" y="505.333"/>
			<point x="345.667" y="505.333" type="curve" smooth="yes"/>
			<point x="371.333" y="505.333"/>
			<point x="388.333" y="524"/>
			<point x="388.333" y="547.333" type="curve" smooth="yes"/>
			<point x="388.333" y="601.667"/>
			<point x="336" y="658"/>
			<point x="238.667" y="658" type="curve" smooth="yes"/>
			<point x="192.667" y="658"/>
			<point x="153" y="644.333"/>
			<point x="125.333" y="621.667" type="curve" smooth="yes"/>
			<point x="93.6667" y="595.667"/>
			<point x="76.3333" y="558"/>
			<point x="75" y="523" type="curve" smooth="yes"/>
			<point x="74.6667" y="515.333"/>
			<point x="74.6667" y="508"/>
			<point x="76" y="500.667" type="curve"/>
			<point x="78.6667" y="466.667"/>
			<point x="91.3333" y="437.333"/>
			<point x="116.333" y="410.667" type="curve"/>
			<point x="77" y="378.333"/>
			<point x="46.6667" y="335"/>
			<point name=".hr02" x="44" y="280.667" type="curve"/>
			<point x="43.3333" y="275.667"/>
			<point x="43.3333" y="270.333"/>
			<point x="43.3333" y="265.333" type="curve"/>
			<point x="45" y="176.333"/>
			<point x="104.333" y="127.667"/>
			<point x="183" y="84.3333" type="curve" smooth="yes"/>
			<point x="200.667" y="75"/>
			<point x="218.667" y="65"/>
			<point x="235" y="55.6667" type="curve" smooth="yes"/>
			<point x="281.333" y="28.6667"/>
			<point x="308.333" y="-0.333333"/>
			<point x="313.667" y="-34.3333" type="curve"/>
			<point x="315" y="-39.6667"/>
			<point x="315.667" y="-45"/>
			<point x="315.667" y="-51" type="curve" smooth="yes"/>
			<point x="315.667" y="-101.667"/>
			<point x="284.333" y="-136"/>
			<point x="240.667" y="-138.333" type="curve" smooth="yes"/>
			<point x="235" y="-138.667"/>
			<point x="229.333" y="-138"/>
			<point x="224.333" y="-137.333" type="curve"/>
			<point x="185" y="-133.333"/>
			<point x="173.667" y="-102.667"/>
			<point x="167.667" y="-78.3333" type="curve"/>
			<point x="167.667" y="-73.6667"/>
			<point x="173" y="-71"/>
			<point x="173" y="-62.3333" type="curve"/>
			<point x="169.667" y="-46.6667"/>
			<point x="158" y="-22.3333"/>
			<point x="130.667" y="-19" type="curve"/>
			<point x="128.667" y="-18.3333"/>
			<point x="126.667" y="-18"/>
			<point x="124.333" y="-18" type="curve" smooth="yes"/>
			<point x="99" y="-18"/>
			<point x="82.6667" y="-37"/>
			<point x="82.6667" y="-59.6667" type="curve" smooth="yes"/>
			<point x="82.6667" y="-115"/>
			<point x="143.333" y="-171"/>
			<point x="232.333" y="-171" type="curve" smooth="yes"/>
			<point x="346.667" y="-171"/>
			<point x="398.333" y="-102.333"/>
		</contour>
		<contour>
			<point x="136.667" y="391" type="curve"/>
			<point x="148" y="381.333"/>
			<point x="160.333" y="373"/>
			<point x="173.667" y="364.667" type="curve"/>
			<point x="189" y="356.333"/>
			<point x="204.333" y="347.333"/>
			<point x="220" y="338.667" type="curve" smooth="yes"/>
			<point x="298.333" y="296"/>
			<point x="364" y="257.667"/>
			<point x="366" y="175" type="curve"/>
			<point name=".hr03" x="366" y="170.333"/>
			<point x="366" y="165.667"/>
			<point x="365.333" y="161" type="curve" smooth="yes"/>
			<point x="362" y="136.667"/>
			<point x="349.667" y="114.667"/>
			<point x="332.333" y="97" type="curve"/>
			<point x="312" y="115"/>
			<point x="286" y="133"/>
			<point x="254.333" y="150.333" type="curve"/>
			<point x="250" y="153.333"/>
			<point x="245.333" y="155.333"/>
			<point x="240.333" y="158" type="curve" smooth="yes"/>
			<point x="164" y="199.333"/>
			<point x="108" y="240.333"/>
			<point x="105.667" y="311.667" type="curve" smooth="yes"/>
			<point x="105.333" y="317.667"/>
			<point x="105" y="323"/>
			<point x="105.667" y="328.667" type="curve" smooth="yes"/>
			<point x="109" y="353"/>
			<point x="119.333" y="372.667"/>
		</contour>
	</outline>
</glyph>
<glyph name="dieresis" format="2">
	<unicode hex="00A8"/>
	<advance width="390"/>
	<outline>
		<contour>
			<point x="57.6667" y="576" type="curve" smooth="yes"/>
			<point x="57.6667" y="548.667"/>
			<point x="80" y="526.667"/>
			<point x="107.333" y="526.667" type="curve" smooth="yes"/>
			<point x="135" y="526.667"/>
			<point x="157" y="548.667"/>
			<point x="157" y="576" type="curve" smooth="yes"/>
			<point x="157" y="603.667"/>
			<point x="135" y="626.333"/>
			<point x="107.333" y="626.333" type="curve" smooth="yes"/>
			<point x="80" y="626.333"/>
			<point x="57.6667" y="603.667"/>
		</contour>
		<contour>
			<point x="233" y="576" type="curve" smooth="yes"/>
			<point x="233" y="548.667"/>
			<point x="255" y="526.667"/>
			<point x="282.667" y="526.667" type="curve" smooth="yes"/>
			<point x="310" y="526.667"/>
			<point x="332.333" y="548.667"/>
			<point x="332.333" y="576" type="curve" smooth="yes"/>
			<point x="332.333" y="603.667"/>
			<point x="310" y="626.333"/>
			<point x="282.667" y="626.333" type="curve" smooth="yes"/>
			<point x="255" y="626.333"/>
			<point x="233" y="603.667"/>
		</contour>
	</outline>
	<anchor name="_t.uni0302" x="195" y="526.667"/>
	<guideline x="190" y="0" angle="90"/>
	<guideline x="0" y="530" angle="0"/>
</glyph>
<glyph name="guillemotleft" format="2">
	<unicode hex="00AB"/>
	<advance width="547"/>
	<outline>
		<contour>
			<point x="191.333" y="212.333" type="curve"/>
			<point x="239.333" y="220.667"/>
			<point x="279" y="239.667"/>
			<point x="337.333" y="264.333" type="curve"/>
			<point x="339.333" y="272"/>
			<point x="336.667" y="280.333"/>
			<point x="331" y="284.333" type="curve"/>
			<point x="265.333" y="253"/>
			<point x="220.667" y="238.667"/>
			<point x="173" y="219" type="curve"/>
			<point x="183.333" y="231.001"/>
			<point x="194.667" y="244.361"/>
			<point x="207.667" y="267.667" type="curve"/>
			<point x="243.333" y="238.333"/>
			<point x="272" y="209.333"/>
			<point x="321.333" y="153" type="curve"/>
			<point x="305" y="125.667"/>
			<point x="297.333" y="118"/>
			<point x="276" y="104.333" type="curve"/>
			<point x="241.333" y="155.813"/>
			<point x="216.667" y="185.044"/>
		</contour>
		<contour>
			<point x="248.667" y="212.333" type="curve"/>
			<point x="296.667" y="220.667"/>
			<point x="336.333" y="239.667"/>
			<point x="394.667" y="264.333" type="curve"/>
			<point x="396.667" y="272"/>
			<point x="394" y="280.333"/>
			<point x="388.333" y="284.333" type="curve"/>
			<point x="322.667" y="253"/>
			<point x="278" y="238.667"/>
			<point x="230.333" y="219" type="curve"/>
			<point x="240.667" y="231.001"/>
			<point x="252" y="244.361"/>
			<point x="265" y="267.667" type="curve"/>
			<point x="300.667" y="238.333"/>
			<point x="329.333" y="209.333"/>
			<point x="378.667" y="153" type="curve"/>
			<point x="362.333" y="125.667"/>
			<point x="354.667" y="118"/>
			<point x="333.333" y="104.333" type="curve"/>
			<point x="298.667" y="155.813"/>
			<point x="274" y="185.044"/>
		</contour>
	</outline>
</glyph>
<glyph name="registered" format="2">
	<unicode hex="00AE"/>
	<advance width="677"/>
	<outline>
		<contour>
			<point x="321" y="21" type="curve" smooth="yes"/>
			<point x="478" y="21"/>
			<point x="608.333" y="149"/>
			<point x="608.333" y="306" type="curve" smooth="yes"/>
			<point x="608.333" y="463"/>
			<point x="478" y="590"/>
			<point x="321" y="590" type="curve" smooth="yes"/>
			<point x="164" y="590"/>
			<point x="33.3333" y="463"/>
			<point x="33.3333" y="306" type="curve" smooth="yes"/>
			<point x="33.3333" y="150"/>
			<point x="163" y="21"/>
		</contour>
		<contour>
			<point x="321" y="552.333" type="curve" smooth="yes"/>
			<point x="457" y="552.333"/>
			<point x="564.333" y="442.333"/>
			<point x="564.333" y="306" type="curve" smooth="yes"/>
			<point x="564.333" y="169.667"/>
			<point x="456.333" y="59"/>
			<point x="321" y="59" type="curve" smooth="yes"/>
			<point x="183.667" y="59"/>
			<point x="77.3333" y="170.667"/>
			<point x="77.3333" y="306" type="curve" smooth="yes"/>
			<point x="77.3333" y="442"/>
			<point x="184" y="552.333"/>
		</contour>
		<contour>
			<point x="427.667" y="370.667" type="curve" smooth="yes"/>
			<point x="427.667" y="400.667"/>
			<point x="407.667" y="445.667"/>
			<point x="332.667" y="445.667" type="curve" smooth="yes"/>
			<point x="309.333" y="445.667"/>
			<point x="277" y="444.333"/>
			<point x="260" y="444" type="curve" smooth="yes"/>
			<point x="240" y="443.667"/>
			<point x="213.667" y="444"/>
			<point x="197.667" y="444" type="curve"/>
			<point x="195.667" y="440.667"/>
			<point x="195" y="433.667"/>
			<point x="195.667" y="428.333" type="curve"/>
			<point x="196.333" y="425.667"/>
			<point x="197.333" y="423.333"/>
			<point x="198.333" y="422.333" type="curve"/>
			<point x="201.667" y="422"/>
			<point x="205.333" y="421"/>
			<point x="208.333" y="421" type="curve"/>
			<point x="214" y="420.333"/>
			<point x="220" y="419.333"/>
			<point x="224.333" y="418" type="curve"/>
			<point x="228" y="416.667"/>
			<point x="230.333" y="412.667"/>
			<point x="231.667" y="408.333" type="curve"/>
			<point x="233.667" y="401"/>
			<point x="234.333" y="392"/>
			<point x="234.333" y="380.667" type="curve" smooth="yes"/>
			<point x="234.333" y="232.667" type="line" smooth="yes"/>
			<point x="234.333" y="217.667"/>
			<point x="233" y="207.333"/>
			<point x="229" y="199" type="curve" smooth="yes"/>
			<point x="227" y="194.667"/>
			<point x="223.667" y="193"/>
			<point x="218.333" y="191.667" type="curve"/>
			<point x="215" y="191"/>
			<point x="211.667" y="191"/>
			<point x="208.333" y="190.333" type="curve"/>
			<point x="205.333" y="190.333"/>
			<point x="201.667" y="189.667"/>
			<point x="198.333" y="189.333" type="curve"/>
			<point x="197" y="188.333"/>
			<point x="196" y="185.667"/>
			<point x="195.333" y="183" type="curve"/>
			<point x="194.667" y="177.333"/>
			<point x="195.333" y="170.667"/>
			<point x="197.333" y="167" type="curve"/>
			<point x="214.333" y="168"/>
			<point x="237" y="168.667"/>
			<point x="254" y="169" type="curve"/>
			<point x="260.667" y="169" type="line" smooth="yes"/>
			<point x="277" y="169"/>
			<point x="308" y="167.667"/>
			<point x="322.667" y="167" type="curve"/>
			<point name=".hr01" x="323.333" y="167" type="line"/>
			<point x="325.333" y="170.667"/>
			<point x="326" y="177.333"/>
			<point x="325.333" y="183" type="curve"/>
			<point x="324.667" y="185.667"/>
			<point x="323.667" y="188.333"/>
			<point x="322.667" y="189.333" type="curve"/>
			<point name=".hr02" x="319.333" y="189.667"/>
			<point x="315.667" y="190.333"/>
			<point x="312.333" y="190.333" type="curve"/>
			<point x="309" y="191"/>
			<point x="305.667" y="191"/>
			<point x="302.333" y="191.667" type="curve"/>
			<point x="296.667" y="193"/>
			<point x="294" y="195"/>
			<point x="292" y="198.667" type="curve"/>
			<point x="288" y="207"/>
			<point x="286.667" y="217"/>
			<point x="286.667" y="232" type="curve" smooth="yes"/>
			<point x="286.667" y="287" type="line"/>
			<point x="291.667" y="287"/>
			<point x="316.333" y="286"/>
			<point x="320.333" y="283.333" type="curve"/>
			<point x="368.333" y="204" type="line"/>
			<point x="383" y="177.667"/>
			<point x="405.667" y="167.667"/>
			<point x="426.333" y="166.333" type="curve" smooth="yes"/>
			<point name=".hr03" x="431.667" y="166"/>
			<point x="436.667" y="166"/>
			<point name=".hr04" x="441" y="166.667" type="curve"/>
			<point x="448" y="167.333"/>
			<point x="455.333" y="169"/>
			<point name=".hr05" x="463.333" y="172" type="curve"/>
			<point x="464" y="177.333"/>
			<point x="463.333" y="183.667"/>
			<point x="460.667" y="187.667" type="curve"/>
			<point x="444.667" y="185.667"/>
			<point name=".hr06" x="430.333" y="194"/>
			<point x="418.667" y="214" type="curve" smooth="yes"/>
			<point x="370.667" y="296" type="line"/>
			<point x="391.333" y="302.667"/>
			<point x="427.667" y="327.333"/>
		</contour>
		<contour>
			<point x="371" y="370.667" type="curve" smooth="yes"/>
			<point x="371" y="327"/>
			<point x="353.333" y="314"/>
			<point x="326.667" y="312" type="curve" smooth="yes"/>
			<point x="313.333" y="311"/>
			<point x="299.667" y="311"/>
			<point name=".hr07" x="286.667" y="311" type="curve"/>
			<point name=".hr08" x="286.667" y="389" type="line"/>
			<point x="286.667" y="399.333" type="line"/>
			<point x="288.333" y="412"/>
			<point x="302.333" y="423"/>
			<point x="322.667" y="423" type="curve" smooth="yes"/>
			<point x="356.667" y="423"/>
			<point x="371" y="404.667"/>
		</contour>
	</outline>
</glyph>
<glyph name="macron" format="2">
	<unicode hex="00AF"/>
	<advance width="397"/>
	<outline>
		<contour>
			<point x="315" y="530" type="line" smooth="yes"/>
			<point x="328" y="530"/>
			<point x="339" y="549.667"/>
			<point x="339" y="561.667" type="curve" smooth="yes"/>
			<point x="339" y="567.667"/>
			<point x="335" y="577.333"/>
			<point x="325" y="577.333" type="curve" smooth="yes"/>
			<point x="81" y="577.333" type="line" smooth="yes"/>
			<point x="69" y="577.333"/>
			<point x="59" y="558.667"/>
			<point x="59" y="546.667" type="curve" smooth="yes"/>
			<point x="59" y="539.667"/>
			<point x="62" y="530"/>
			<point x="71" y="530" type="curve" smooth="yes"/>
		</contour>
	</outline>
</glyph>
<glyph name="paragraph" format="2">
	<unicode hex="00B6"/>
	<advance width="602"/>
	<outline>
		<contour>
			<point x="498" y="-155.333" type="curve" smooth="yes"/>
			<point x="498" y="568" type="line" smooth="yes"/>
			<point x="498" y="603.333"/>
			<point x="509.333" y="614.667"/>
			<point x="548" y="616.667" type="curve" smooth="yes"/>
			<point x="575" y="618" type="line"/>
			<point x="579" y="618"/>
			<point x="582.333" y="621"/>
			<point x="582.333" y="625.667" type="curve" smooth="yes"/>
			<point x="582.333" y="638.333" type="line"/>
			<point x="581" y="646.667" type="line"/>
			<point x="549.333" y="645.667"/>
			<point x="513.667" y="645"/>
			<point x="475.333" y="644.667" type="curve"/>
			<point x="460" y="644.667"/>
			<point name=".hr01" x="432" y="643.667"/>
			<point x="403" y="643.667" type="curve" smooth="yes"/>
			<point x="376" y="643.667"/>
			<point x="316.333" y="646.667"/>
			<point x="241.333" y="646.667" type="curve" smooth="yes"/>
			<point x="115.333" y="646.667"/>
			<point x="53.6667" y="567.667"/>
			<point x="48.3333" y="482.667" type="curve" smooth="yes"/>
			<point x="47.3333" y="466.333"/>
			<point x="47.6667" y="451"/>
			<point x="49.6667" y="435.667" type="curve"/>
			<point x="61.6667" y="308.333"/>
			<point x="157.333" y="259.667"/>
			<point x="270.333" y="259.667" type="curve" smooth="yes"/>
			<point x="291" y="259.667"/>
			<point x="306.667" y="262"/>
			<point x="317.333" y="265.667" type="curve"/>
			<point x="317.333" y="-140.333" type="line" smooth="yes"/>
			<point x="317.333" y="-149.333"/>
			<point x="317.333" y="-158"/>
			<point x="317" y="-165.667" type="curve" smooth="yes"/>
			<point x="315.667" y="-187.667"/>
			<point x="308" y="-197"/>
			<point x="285.667" y="-201.333" type="curve"/>
			<point x="281" y="-202.667"/>
			<point x="275.667" y="-203.333"/>
			<point x="268.333" y="-204" type="curve"/>
			<point name=".hr02" x="240.667" y="-205.333" type="line"/>
			<point x="236.667" y="-205.333"/>
			<point x="234" y="-208"/>
			<point x="234" y="-213" type="curve" smooth="yes"/>
			<point x="234" y="-232.667" type="line"/>
			<point x="235.333" y="-234" type="line"/>
			<point x="282.667" y="-232.667"/>
			<point x="336.667" y="-232.667"/>
			<point x="397.333" y="-232.667" type="curve" smooth="yes"/>
			<point x="465" y="-232.667"/>
			<point x="527.667" y="-232.667"/>
			<point x="581" y="-234" type="curve"/>
			<point x="582.333" y="-232.667" type="line"/>
			<point x="582.333" y="-213" type="line" smooth="yes"/>
			<point x="582.333" y="-208.333"/>
			<point x="579" y="-205.333"/>
			<point x="575" y="-205.333" type="curve"/>
			<point x="548" y="-204" type="line" smooth="yes"/>
			<point name=".hr03" x="510.667" y="-201.667"/>
			<point x="498" y="-194"/>
		</contour>
		<contour>
			<point x="407" y="-201.667" type="curve" smooth="yes"/>
			<point x="383" y="-201.667"/>
			<point x="370.333" y="-182.667"/>
			<point x="370.333" y="-155" type="curve" smooth="yes"/>
			<point x="370.333" y="539.667" type="line"/>
			<point x="370.333" y="567" type="line" smooth="yes"/>
			<point x="370.333" y="595.333"/>
			<point x="382" y="613.333"/>
			<point x="408" y="613.333" type="curve"/>
			<point x="428.667" y="613"/>
			<point x="445" y="608"/>
			<point x="445" y="568" type="curve" smooth="yes"/>
			<point x="445" y="-155.667" type="line" smooth="yes"/>
			<point x="445" y="-190.333"/>
			<point x="432" y="-201.667"/>
		</contour>
	</outline>
</glyph>
<glyph name="cedilla" format="2">
	<unicode hex="00B8"/>
	<advance width="541"/>
	<outline>
		<contour>
			<point x="250" y="-101.667" type="line"/>
			<point x="266.667" y="-98.6667"/>
			<point x="280.667" y="-98.6667"/>
			<point x="299.333" y="-100.667" type="curve" smooth="yes"/>
			<point x="320.667" y="-102.667"/>
			<point x="331.667" y="-115.333"/>
			<point x="331.667" y="-135.667" type="curve" smooth="yes"/>
			<point x="331.667" y="-162"/>
			<point x="311" y="-176"/>
			<point x="281" y="-176" type="curve" smooth="yes"/>
			<point x="261" y="-176"/>
			<point x="250" y="-172"/>
			<point x="223" y="-162" type="curve"/>
			<point x="215.333" y="-168"/>
			<point x="213" y="-176.667"/>
			<point x="213" y="-188" type="curve"/>
			<point x="234.667" y="-198"/>
			<point x="248.333" y="-203.667"/>
			<point x="275" y="-205" type="curve"/>
			<point x="279" y="-205"/>
			<point x="283.333" y="-205"/>
			<point x="288" y="-204.667" type="curve"/>
			<point x="346.667" y="-203.333"/>
			<point x="391.667" y="-171.667"/>
			<point x="393.667" y="-129" type="curve"/>
			<point x="394" y="-125.333"/>
			<point x="394" y="-122"/>
			<point x="393.333" y="-118.333" type="curve"/>
			<point x="390" y="-83"/>
			<point x="361.333" y="-63"/>
			<point x="326" y="-59" type="curve" smooth="yes"/>
			<point x="316.667" y="-58"/>
			<point x="307" y="-57.6667"/>
			<point x="298.333" y="-58.3333" type="curve"/>
			<point x="321.667" y="2.33333" type="line"/>
			<point x="287.667" y="2.33333" type="line"/>
			<point x="244" y="-95.6667" type="line"/>
		</contour>
	</outline>
</glyph>
<glyph name="uni00B9" format="2">
	<unicode hex="00B9"/>
	<advance width="318"/>
	<outline>
		<contour>
			<point x="135" y="626.667" type="curve" smooth="yes"/>
			<point x="147" y="626.667"/>
			<point x="149" y="617.667"/>
			<point x="149" y="585.667" type="curve" smooth="yes"/>
			<point x="149" y="449" type="line" smooth="yes"/>
			<point x="149" y="398"/>
			<point x="118" y="395"/>
			<point x="78" y="393" type="curve"/>
			<point x="73" y="385"/>
			<point x="74" y="369.667"/>
			<point x="78" y="363.667" type="curve"/>
			<point x="108" y="364.667"/>
			<point x="145.333" y="364.667"/>
			<point x="180.333" y="364.667" type="curve" smooth="yes"/>
			<point x="215.333" y="364.667"/>
			<point x="239.333" y="364.667"/>
			<point x="269.333" y="363.667" type="curve"/>
			<point x="273.333" y="370.667"/>
			<point x="273.333" y="385"/>
			<point x="269.333" y="393" type="curve"/>
			<point x="235.333" y="395"/>
			<point x="214.333" y="398"/>
			<point x="214.333" y="449" type="curve" smooth="yes"/>
			<point x="214.333" y="696.667" type="line"/>
			<point x="209.333" y="701.667"/>
			<point x="196.667" y="699.667"/>
			<point x="191.667" y="696.667" type="curve" smooth="yes"/>
			<point x="147.333" y="671"/>
			<point x="115" y="657.667"/>
			<point x="68" y="640.667" type="curve"/>
			<point x="68" y="628.667"/>
			<point x="70" y="617.667"/>
			<point x="78" y="611.667" type="curve"/>
			<point x="103" y="620.667"/>
			<point x="122" y="626.667"/>
		</contour>
	</outline>
</glyph>
<glyph name="onehalf" format="2">
	<unicode hex="00BD"/>
	<advance width="673"/>
	<outline>
		<contour>
			<point x="400.333" y="173" type="curve" smooth="yes"/>
			<point x="400.333" y="156"/>
			<point x="412" y="142.667"/>
			<point x="429" y="142.667" type="curve" smooth="yes"/>
			<point x="442.667" y="142.667"/>
			<point x="458.333" y="149"/>
			<point x="461.333" y="166.333" type="curve"/>
			<point x="462.333" y="169.333"/>
			<point x="461.667" y="173.333"/>
			<point x="461.667" y="177.333" type="curve" smooth="yes"/>
			<point x="461.667" y="181.667"/>
			<point x="461.667" y="186"/>
			<point x="462.333" y="190.333" type="curve"/>
			<point x="462.333" y="192.333"/>
			<point x="462.333" y="194.667"/>
			<point x="463" y="197" type="curve"/>
			<point x="463.667" y="201"/>
			<point x="465" y="205.667"/>
			<point x="467.333" y="208" type="curve"/>
			<point x="473.667" y="217"/>
			<point x="486" y="222"/>
			<point x="508" y="222" type="curve" smooth="yes"/>
			<point x="515.333" y="222"/>
			<point x="526.667" y="219.667"/>
			<point x="534" y="213.667" type="curve" smooth="yes"/>
			<point x="545.333" y="204.667"/>
			<point x="554.667" y="189"/>
			<point x="554.667" y="162.333" type="curve" smooth="yes"/>
			<point x="554.667" y="125.667"/>
			<point x="540.333" y="100.667"/>
			<point x="511.667" y="74.6667" type="curve" smooth="yes"/>
			<point x="504.667" y="68.3333"/>
			<point x="496.667" y="62.3333"/>
			<point x="489" y="55.3333" type="curve"/>
			<point x="477.667" y="46.3333"/>
			<point x="466.667" y="36.3333"/>
			<point x="456.667" y="27.3333" type="curve"/>
			<point x="423.333" y="-4.66667"/>
			<point x="399.667" y="-40.3333"/>
			<point x="399.667" y="-79" type="curve"/>
			<point x="615.667" y="-79" type="line"/>
			<point x="624.667" y="-51.3333"/>
			<point x="634" y="-15.6667"/>
			<point x="638" y="21.3333" type="curve"/>
			<point x="633" y="25.3333"/>
			<point x="623.667" y="26.6667"/>
			<point x="612.667" y="26.6667" type="curve"/>
			<point x="601.667" y="-2"/>
			<point x="584.333" y="-38.6667"/>
			<point x="553.333" y="-38.6667" type="curve" smooth="yes"/>
			<point x="470.667" y="-38.6667" type="line"/>
			<point x="475.333" y="-19"/>
			<point x="483.667" y="0"/>
			<point x="502.333" y="18.3333" type="curve"/>
			<point x="511.667" y="27"/>
			<point x="521.333" y="35.6667"/>
			<point x="533.333" y="44.6667" type="curve"/>
			<point x="544" y="53.3333" type="line"/>
			<point x="564" y="68.6667"/>
			<point x="583.333" y="85.3333"/>
			<point x="596.667" y="100.333" type="curve" smooth="yes"/>
			<point x="616.667" y="122.333"/>
			<point x="625.667" y="142.333"/>
			<point x="625.667" y="167.667" type="curve" smooth="yes"/>
			<point x="625.667" y="199.667"/>
			<point x="613.667" y="220"/>
			<point x="592.667" y="234" type="curve" smooth="yes"/>
			<point x="570.667" y="248.333"/>
			<point x="541" y="252"/>
			<point x="515.333" y="252" type="curve" smooth="yes"/>
			<point x="436.333" y="252"/>
			<point x="400.333" y="199.667"/>
		</contour>
		<contour>
			<point x="134" y="577.667" type="curve" smooth="yes"/>
			<point x="146" y="577.667"/>
			<point x="148" y="568.667"/>
			<point x="148" y="536.667" type="curve" smooth="yes"/>
			<point x="148" y="400" type="line" smooth="yes"/>
			<point x="148" y="349"/>
			<point x="117" y="346"/>
			<point x="77" y="344" type="curve"/>
			<point x="72" y="336"/>
			<point x="73" y="320.667"/>
			<point x="77" y="314.667" type="curve"/>
			<point x="107" y="315.667"/>
			<point x="144.333" y="315.667"/>
			<point x="179.333" y="315.667" type="curve" smooth="yes"/>
			<point x="214.333" y="315.667"/>
			<point x="238.333" y="315.667"/>
			<point x="268.333" y="314.667" type="curve"/>
			<point x="272.333" y="321.667"/>
			<point x="272.333" y="336"/>
			<point x="268.333" y="344" type="curve"/>
			<point x="236.333" y="346"/>
			<point x="216" y="348.333"/>
			<point x="214" y="390.667" type="curve"/>
			<point x="213.333" y="393.333"/>
			<point x="213.333" y="396.667"/>
			<point x="213.333" y="400" type="curve" smooth="yes"/>
			<point x="213.333" y="647.667" type="line"/>
			<point x="209" y="652"/>
			<point x="200" y="651"/>
			<point x="193.667" y="648.333" type="curve"/>
			<point x="192.333" y="648.333"/>
			<point x="191.333" y="648"/>
			<point x="190.667" y="647.667" type="curve"/>
			<point x="146.333" y="622"/>
			<point x="114" y="608.667"/>
			<point x="67" y="591.667" type="curve"/>
			<point x="67" y="579.667"/>
			<point x="69" y="568.667"/>
			<point x="77" y="562.667" type="curve"/>
			<point x="102" y="571.667"/>
			<point x="121" y="577.667"/>
		</contour>
		<contour>
			<point x="538.667" y="601" type="line"/>
			<point x="80.6667" y="-54" type="line"/>
			<point x="121.667" y="-62" type="line"/>
			<point x="580.667" y="593" type="line"/>
		</contour>
	</outline>
</glyph>
<glyph name="threequarters" format="2">
	<unicode hex="00BE"/>
	<advance width="673"/>
	<outline>
		<contour>
			<point x="592.667" y="-18.6667" type="curve" smooth="yes"/>
			<point x="592.667" y="4.33333" type="line"/>
			<point x="645" y="4.33333" type="line"/>
			<point x="650" y="41" type="line"/>
			<point x="592.667" y="41" type="line"/>
			<point x="592.667" y="226.333" type="line" smooth="yes"/>
			<point x="592.667" y="235.333"/>
			<point x="582.333" y="236.333"/>
			<point x="576" y="236.333" type="curve" smooth="yes"/>
			<point x="568.333" y="236.333"/>
			<point x="557" y="236.333"/>
			<point x="550.667" y="235.667" type="curve"/>
			<point x="537.667" y="226.333"/>
			<point x="527" y="214.667"/>
			<point x="517.667" y="203" type="curve" smooth="yes"/>
			<point x="481.333" y="159"/>
			<point x="434" y="101.667"/>
			<point x="399.333" y="48" type="curve"/>
			<point x="395" y="42.3333"/>
			<point x="391.333" y="37"/>
			<point x="387.667" y="30" type="curve"/>
			<point x="385.667" y="27" type="line"/>
			<point x="386.333" y="23"/>
			<point x="386.333" y="17"/>
			<point x="389" y="11.6667" type="curve"/>
			<point x="391.667" y="7.66667"/>
			<point x="396.667" y="4.33333"/>
			<point x="406.667" y="4.33333" type="curve" smooth="yes"/>
			<point x="530.333" y="4.33333" type="line"/>
			<point x="530.333" y="-18.6667" type="line" smooth="yes"/>
			<point x="530.333" y="-63"/>
			<point x="511.333" y="-66"/>
			<point x="471.333" y="-68" type="curve"/>
			<point x="466.333" y="-76"/>
			<point x="467.333" y="-91.3333"/>
			<point x="471.333" y="-97.3333" type="curve"/>
			<point x="498.667" y="-96.3333"/>
			<point x="517.667" y="-96.3333"/>
			<point x="546" y="-96.3333" type="curve" smooth="yes"/>
			<point x="560.333" y="-96.3333" type="line" smooth="yes"/>
			<point x="592.333" y="-96.3333"/>
			<point x="614.667" y="-96.3333"/>
			<point x="643.333" y="-97.3333" type="curve"/>
			<point x="647.333" y="-90.3333"/>
			<point x="647.333" y="-76"/>
			<point x="643.333" y="-68" type="curve"/>
			<point x="609.333" y="-66"/>
			<point x="592.667" y="-63"/>
		</contour>
		<contour>
			<point x="187.667" y="576.667" type="curve" smooth="yes"/>
			<point x="187.667" y="535"/>
			<point x="153.667" y="507.667"/>
			<point x="109.667" y="501.667" type="curve"/>
			<point x="107.667" y="492.333"/>
			<point x="107.667" y="481.667"/>
			<point x="111" y="473.667" type="curve"/>
			<point x="120.667" y="475.333"/>
			<point x="128" y="476.333"/>
			<point x="135.667" y="476.333" type="curve" smooth="yes"/>
			<point x="165.333" y="476.333"/>
			<point x="210.667" y="469.667"/>
			<point name=".hr01" x="210.667" y="417" type="curve" smooth="yes"/>
			<point x="210.667" y="353.667"/>
			<point x="166" y="337.333"/>
			<point x="140" y="337.333" type="curve" smooth="yes"/>
			<point x="119" y="337.333"/>
			<point x="107.333" y="342.667"/>
			<point x="100" y="349" type="curve"/>
			<point x="97.3333" y="352"/>
			<point x="95" y="355.667"/>
			<point x="92.3333" y="360.333" type="curve" smooth="yes"/>
			<point x="86.6667" y="370.667"/>
			<point x="78.6667" y="378"/>
			<point x="65.6667" y="378.667" type="curve"/>
			<point x="62.3333" y="379.333"/>
			<point x="60" y="379.333"/>
			<point x="57" y="379" type="curve" smooth="yes"/>
			<point x="43.3333" y="377.333"/>
			<point x="31.3333" y="366.667"/>
			<point x="31.3333" y="352.667" type="curve" smooth="yes"/>
			<point x="31.3333" y="350.333"/>
			<point x="31.6667" y="347.333"/>
			<point x="32.6667" y="345" type="curve"/>
			<point x="42" y="318.333"/>
			<point x="96" y="308.667"/>
			<point x="129.333" y="307.333" type="curve"/>
			<point x="131.333" y="307.333"/>
			<point x="132.667" y="307.333"/>
			<point x="134" y="307.333" type="curve" smooth="yes"/>
			<point x="217.333" y="307.333"/>
			<point x="283.667" y="353.667"/>
			<point x="283.667" y="425" type="curve" smooth="yes"/>
			<point x="283.667" y="481.667"/>
			<point x="240.333" y="506.333"/>
			<point x="206" y="512" type="curve"/>
			<point x="205.333" y="512.333"/>
			<point x="205.667" y="513"/>
			<point x="206" y="513.333" type="curve"/>
			<point x="235" y="530.333"/>
			<point x="255.667" y="554"/>
			<point name=".hr02" x="255.667" y="581.667" type="curve" smooth="yes"/>
			<point x="255.667" y="620.333"/>
			<point x="218.333" y="644"/>
			<point x="162" y="644" type="curve" smooth="yes"/>
			<point x="69.6667" y="644"/>
			<point x="40.3333" y="591.333"/>
			<point x="40.3333" y="573.667" type="curve" smooth="yes"/>
			<point x="40.3333" y="570.333"/>
			<point x="43.3333" y="552.333"/>
			<point x="66.6667" y="552.333" type="curve" smooth="yes"/>
			<point x="91.6667" y="552.333"/>
			<point x="94.6667" y="573"/>
			<point x="98" y="585" type="curve" smooth="yes"/>
			<point x="103.333" y="603.333"/>
			<point x="129.667" y="614"/>
			<point x="148.333" y="614" type="curve" smooth="yes"/>
			<point x="166.333" y="614"/>
			<point x="187.667" y="603.667"/>
		</contour>
		<contour>
			<point x="568.667" y="601" type="line"/>
			<point x="110" y="-54" type="line"/>
			<point x="151.667" y="-62" type="line"/>
			<point x="610" y="593" type="line"/>
		</contour>
		<contour>
			<point x="530.333" y="176.667" type="curve"/>
			<point x="530.333" y="41" type="line"/>
			<point x="433.333" y="41" type="line"/>
			<point x="448.667" y="67"/>
			<point x="493.667" y="130"/>
		</contour>
	</outline>
</glyph>
<glyph name="questiondown" format="2">
	<unicode hex="00BF"/>
	<advance width="433"/>
	<outline>
		<contour>
			<point x="307" y="-142" type="curve" smooth="yes"/>
			<point x="307" y="-171.333"/>
			<point x="268.667" y="-195.333"/>
			<point x="216" y="-195.333" type="curve" smooth="yes"/>
			<point x="162" y="-195.333"/>
			<point x="130" y="-145.333"/>
			<point x="126.667" y="-86.6667" type="curve"/>
			<point x="126" y="-83.3333"/>
			<point x="126" y="-80.6667"/>
			<point x="126" y="-77.3333" type="curve" smooth="yes"/>
			<point x="126" y="-31"/>
			<point x="141.333" y="-0.333333"/>
			<point x="177.667" y="34.3333" type="curve"/>
			<point x="182" y="38"/>
			<point x="186" y="41.6667"/>
			<point x="189.667" y="46" type="curve"/>
			<point x="248.667" y="103.667"/>
			<point x="251.333" y="158.667"/>
			<point x="251.333" y="199" type="curve" smooth="yes"/>
			<point x="251.333" y="219.333" type="line" smooth="yes"/>
			<point x="251.333" y="228.333"/>
			<point x="251" y="236"/>
			<point x="249.333" y="243" type="curve"/>
			<point x="248" y="249.667"/>
			<point x="240" y="252.667"/>
			<point x="230" y="252.667" type="curve" smooth="yes"/>
			<point x="219" y="252.667"/>
			<point x="210.333" y="249.667"/>
			<point x="209" y="242.333" type="curve"/>
			<point x="208" y="235.667"/>
			<point x="207.667" y="228"/>
			<point x="207.667" y="220" type="curve" smooth="yes"/>
			<point x="207.667" y="201" type="line" smooth="yes"/>
			<point x="207.667" y="174"/>
			<point x="204.667" y="150.333"/>
			<point x="192.333" y="127.667" type="curve" smooth="yes"/>
			<point x="182.333" y="109.333"/>
			<point x="163" y="94.3333"/>
			<point x="142.667" y="79.3333" type="curve" smooth="yes"/>
			<point x="94.6667" y="44.3333"/>
			<point x="32.3333" y="-0.333333"/>
			<point x="32.3333" y="-77.6667" type="curve" smooth="yes"/>
			<point x="32.3333" y="-169"/>
			<point x="100" y="-229.333"/>
			<point x="206" y="-229.333" type="curve" smooth="yes"/>
			<point x="261.667" y="-229.333"/>
			<point x="305" y="-215.333"/>
			<point x="334.333" y="-190.333" type="curve" smooth="yes"/>
			<point x="365.667" y="-165"/>
			<point x="386" y="-138.667"/>
			<point x="386" y="-101.667" type="curve" smooth="yes"/>
			<point x="386" y="-67.3333"/>
			<point x="361.333" y="-55.6667"/>
			<point x="343.333" y="-54" type="curve"/>
			<point x="342" y="-53.6667"/>
			<point x="340.667" y="-53.6667"/>
			<point x="339.667" y="-53.6667" type="curve"/>
			<point x="317" y="-53.6667"/>
			<point name=".hr01" x="296" y="-67"/>
			<point x="296" y="-90.6667" type="curve" smooth="yes"/>
			<point x="296" y="-104"/>
			<point x="298" y="-110.667"/>
			<point x="301.667" y="-116.333" type="curve"/>
			<point x="305" y="-122.333"/>
			<point name=".hr02" x="307" y="-128.667"/>
		</contour>
		<contour>
			<point x="289" y="381.333" type="curve" smooth="yes"/>
			<point x="289" y="413.333"/>
			<point x="262.333" y="439.333"/>
			<point x="229.667" y="439.333" type="curve" smooth="yes"/>
			<point x="197" y="439.333"/>
			<point x="169.667" y="412.667"/>
			<point x="169.667" y="380.667" type="curve" smooth="yes"/>
			<point x="169.667" y="348.333"/>
			<point x="196.333" y="322.333"/>
			<point x="229" y="322.333" type="curve" smooth="yes"/>
			<point x="261.667" y="322.333"/>
			<point x="289" y="349"/>
		</contour>
	</outline>
</glyph>
<glyph name="Oslash" format="2">
	<unicode hex="00D8"/>
	<advance width="711"/>
	<outline>
		<contour>
			<point x="101.333" y="-23.6667" type="curve"/>
			<point x="162" y="51.3333" type="line"/>
			<point x="216.333" y="12"/>
			<point x="283.333" y="-10"/>
			<point x="354.667" y="-10" type="curve" smooth="yes"/>
			<point x="456.333" y="-10"/>
			<point x="539" y="29"/>
			<point x="594.667" y="93" type="curve" smooth="yes"/>
			<point x="600.667" y="99.6667"/>
			<point x="605.667" y="106.333"/>
			<point x="610.667" y="113.333" type="curve" smooth="yes"/>
			<point x="652.333" y="170.667"/>
			<point x="675.333" y="243.667"/>
			<point x="675.333" y="329" type="curve" smooth="yes"/>
			<point x="675.333" y="430.667"/>
			<point x="639.333" y="512.333"/>
			<point x="581.667" y="568.667" type="curve"/>
			<point x="633" y="632.333" type="line"/>
			<point x="627.667" y="645.667"/>
			<point x="613.333" y="658.667"/>
			<point x="596.667" y="662" type="curve"/>
			<point x="546" y="599" type="line"/>
			<point x="491.333" y="637.333"/>
			<point x="424" y="658"/>
			<point x="350.333" y="658" type="curve" smooth="yes"/>
			<point x="252.333" y="658"/>
			<point x="172" y="618.333"/>
			<point x="118" y="553.333" type="curve" smooth="yes"/>
			<point x="65.3333" y="490.667"/>
			<point x="37" y="405"/>
			<point x="37" y="309.667" type="curve" smooth="yes"/>
			<point x="37" y="214.667"/>
			<point x="71" y="137.333"/>
			<point x="126" y="82" type="curve"/>
			<point x="65.3333" y="8" type="line"/>
			<point x="71.3333" y="-5.33333"/>
			<point x="84.6667" y="-20.3333"/>
		</contour>
		<contour>
			<point x="522.667" y="496" type="line"/>
			<point x="547" y="448"/>
			<point x="561" y="385.333"/>
			<point x="561" y="309.333" type="curve" smooth="yes"/>
			<point x="561" y="134.667"/>
			<point x="484.333" y="28"/>
			<point x="374.667" y="28" type="curve" smooth="yes"/>
			<point x="312.667" y="28"/>
			<point x="255" y="58.3333"/>
			<point x="213" y="114.667" type="curve"/>
		</contour>
		<contour>
			<point x="337.667" y="620" type="curve" smooth="yes"/>
			<point x="400" y="620"/>
			<point x="456" y="592.333"/>
			<point x="496.333" y="539" type="curve"/>
			<point x="187.333" y="158" type="line"/>
			<point x="164.667" y="203.333"/>
			<point x="151.333" y="260.667"/>
			<point x="151.333" y="327.667" type="curve" smooth="yes"/>
			<point x="151.333" y="535.667"/>
			<point x="242" y="620"/>
		</contour>
	</outline>
	<anchor name="m.uni0302" x="351" y="850"/>
	<anchor name="m.uni0316_2" x="350" y="-110"/>
</glyph>
<glyph name="aring" format="2">
	<unicode hex="00E5"/>
	<advance width="473"/>
	<outline>
		<contour>
			<point x="293.667" y="48.3333" type="line"/>
			<point x="299.333" y="16.6667"/>
			<point x="314.333" y="-5.33333"/>
			<point x="353" y="-9.33333" type="curve" smooth="yes"/>
			<point x="359.667" y="-10"/>
			<point x="366.667" y="-9.66667"/>
			<point x="373.667" y="-9.33333" type="curve" smooth="yes"/>
			<point x="412.667" y="-7.33333"/>
			<point x="447.333" y="10.3333"/>
			<point x="471.333" y="33.3333" type="curve"/>
			<point name=".hr01" x="469.333" y="45.3333"/>
			<point x="465.333" y="54"/>
			<point x="454" y="60.6667" type="curve"/>
			<point x="445" y="53.3333"/>
			<point x="430.333" y="45.3333"/>
			<point x="415.333" y="45.3333" type="curve" smooth="yes"/>
			<point x="388.667" y="45.3333"/>
			<point x="386" y="77.3333"/>
			<point x="386" y="124.333" type="curve"/>
			<point x="386.667" y="270.333" type="line"/>
			<point x="386.667" y="413"/>
			<point x="305" y="440.667"/>
			<point x="229" y="440.667" type="curve" smooth="yes"/>
			<point x="150" y="440.667"/>
			<point x="57.3333" y="390.667"/>
			<point x="57.3333" y="330.667" type="curve" smooth="yes"/>
			<point x="57.3333" y="307"/>
			<point x="68" y="292.667"/>
			<point x="92" y="290.667" type="curve"/>
			<point x="93.6667" y="290.333"/>
			<point x="95.6667" y="290"/>
			<point x="97.6667" y="290" type="curve" smooth="yes"/>
			<point name=".hr02" x="127.333" y="290"/>
			<point x="147" y="309.333"/>
			<point x="149" y="324.667" type="curve"/>
			<point x="149.333" y="325.667"/>
			<point x="149.667" y="327"/>
			<point x="149.667" y="328" type="curve"/>
			<point x="149.667" y="334.333"/>
			<point x="148.667" y="341"/>
			<point x="147" y="345.667" type="curve"/>
			<point x="146" y="350"/>
			<point name=".hr03" x="144.667" y="356"/>
			<point x="144.667" y="365.667" type="curve" smooth="yes"/>
			<point x="144.667" y="369.333"/>
			<point x="145.333" y="372.667"/>
			<point x="146.333" y="376.333" type="curve"/>
			<point x="150.667" y="390.667"/>
			<point name=".hr04" x="166.667" y="400.667"/>
			<point x="193" y="403.333" type="curve" smooth="yes"/>
			<point x="201.667" y="404"/>
			<point x="210.333" y="404.667"/>
			<point x="218" y="404.333" type="curve" smooth="yes"/>
			<point x="251" y="402.333"/>
			<point x="290.667" y="382.667"/>
			<point x="291.667" y="278.333" type="curve"/>
			<point x="292" y="271"/>
			<point x="290" y="265.333"/>
			<point x="288" y="261.667" type="curve"/>
			<point x="208.333" y="240.667" type="line" smooth="yes"/>
			<point x="109.333" y="213.667"/>
			<point name=".hr05" x="38.6667" y="168.667"/>
			<point x="38.6667" y="97" type="curve" smooth="yes"/>
			<point x="38.6667" y="23.3333"/>
			<point x="83.3333" y="-7.33333"/>
			<point x="154.333" y="-10" type="curve"/>
			<point x="158.667" y="-10"/>
			<point x="163" y="-10"/>
			<point x="167.667" y="-9.66667" type="curve" smooth="yes"/>
			<point x="200" y="-8"/>
			<point x="234" y="5"/>
			<point x="273.333" y="34.6667" type="curve" smooth="yes"/>
			<point x="279.333" y="39"/>
			<point x="284.667" y="43.6667"/>
			<point x="290.333" y="48" type="curve"/>
		</contour>
		<contour>
			<point name=".hr06" x="127" y="582" type="curve" smooth="yes"/>
			<point x="127" y="536"/>
			<point x="168" y="497.667"/>
			<point x="214" y="497.667" type="curve" smooth="yes"/>
			<point x="261.667" y="497.667"/>
			<point x="301.333" y="537"/>
			<point x="301.333" y="582" type="curve" smooth="yes"/>
			<point x="301.333" y="629"/>
			<point x="259.667" y="666.333"/>
			<point x="214" y="666.333" type="curve" smooth="yes"/>
			<point x="167.667" y="666.333"/>
			<point x="127" y="628"/>
		</contour>
		<contour>
			<point x="292" y="228" type="line"/>
			<point name=".hr07" x="292" y="105.667" type="line"/>
			<point x="292" y="96" type="line"/>
			<point x="290.667" y="86.3333"/>
			<point x="285.333" y="80.3333"/>
			<point x="278.667" y="75.3333" type="curve" smooth="yes"/>
			<point x="254.333" y="56.3333"/>
			<point x="225" y="37.3333"/>
			<point x="201.333" y="37.3333" type="curve" smooth="yes"/>
			<point x="153.667" y="37.3333"/>
			<point x="134" y="73.6667"/>
			<point x="134" y="104.667" type="curve" smooth="yes"/>
			<point x="134" y="147"/>
			<point x="149" y="188"/>
			<point x="222" y="208.333" type="curve" smooth="yes"/>
		</contour>
		<contour>
			<point x="214" y="633.667" type="curve" smooth="yes"/>
			<point x="243" y="633.667"/>
			<point x="262" y="612.333"/>
			<point name=".hr08" x="262" y="582" type="curve" smooth="yes"/>
			<point x="262" y="554.667"/>
			<point x="244.333" y="530.333"/>
			<point x="214" y="530.333" type="curve" smooth="yes"/>
			<point x="183.667" y="530.333"/>
			<point x="166.333" y="554.667"/>
			<point x="166.333" y="582" type="curve" smooth="yes"/>
			<point x="166.333" y="611.333"/>
			<point x="184" y="633.667"/>
		</contour>
	</outline>
	<anchor name="m.uni0302" x="224" y="840.667"/>
</glyph>
<glyph name="eth" format="2">
	<unicode hex="00F0"/>
	<advance width="510"/>
	<outline>
		<contour>
			<point x="34.3333" y="208.333" type="curve" smooth="yes"/>
			<point x="34.3333" y="104.333"/>
			<point x="115" y="-10"/>
			<point x="243.667" y="-10" type="curve" smooth="yes"/>
			<point x="302" y="-10"/>
			<point x="361.333" y="9.66667"/>
			<point x="403.667" y="50.6667" type="curve" smooth="yes"/>
			<point x="445" y="91.6667"/>
			<point x="470" y="154"/>
			<point x="470" y="237.667" type="curve" smooth="yes"/>
			<point x="470" y="321.333"/>
			<point x="448.667" y="395.333"/>
			<point x="412.333" y="458.667" type="curve" smooth="yes"/>
			<point x="384.667" y="506"/>
			<point x="347" y="548.333"/>
			<point x="309.333" y="584.667" type="curve" smooth="yes"/>
			<point x="304" y="590"/>
			<point x="298.333" y="595.333"/>
			<point x="293" y="600.667" type="curve"/>
			<point x="390.667" y="666" type="line"/>
			<point x="368" y="699.333" type="line"/>
			<point x="334.333" y="676.333"/>
			<point x="294.667" y="651"/>
			<point x="260" y="627" type="curve"/>
			<point x="227" y="653.333"/>
			<point x="189.667" y="677"/>
			<point x="150.667" y="698" type="curve"/>
			<point x="131.667" y="672.667" type="line"/>
			<point x="155.333" y="656"/>
			<point x="178.667" y="635"/>
			<point x="200.333" y="613" type="curve" smooth="yes"/>
			<point x="205.333" y="608"/>
			<point x="211" y="602.667"/>
			<point x="215.667" y="597.667" type="curve"/>
			<point x="110.667" y="527" type="line"/>
			<point x="133.333" y="493.667" type="line"/>
			<point x="167.667" y="516.333"/>
			<point x="207.333" y="543"/>
			<point x="242.667" y="567" type="curve"/>
			<point x="277.667" y="526"/>
			<point x="307" y="480.333"/>
			<point x="328.333" y="429.667" type="curve"/>
			<point x="306" y="437.333"/>
			<point x="283.333" y="440.667"/>
			<point x="260.667" y="440.667" type="curve" smooth="yes"/>
			<point x="215.667" y="440.667"/>
			<point x="154.667" y="423.667"/>
			<point x="107.667" y="382" type="curve" smooth="yes"/>
			<point x="65.6667" y="345.667"/>
			<point x="34.3333" y="290"/>
		</contour>
		<contour>
			<point x="260.333" y="28" type="curve" smooth="yes"/>
			<point x="194" y="28"/>
			<point x="138.333" y="112.667"/>
			<point x="138.333" y="225.667" type="curve" smooth="yes"/>
			<point x="138.333" y="300.667"/>
			<point x="163.667" y="403.333"/>
			<point x="258.667" y="403.333" type="curve" smooth="yes"/>
			<point x="297" y="403.333"/>
			<point x="330.333" y="385"/>
			<point x="353" y="357.667" type="curve"/>
			<point x="363" y="315.333"/>
			<point x="367.333" y="269.667"/>
			<point x="367.333" y="223.667" type="curve" smooth="yes"/>
			<point x="367.333" y="63"/>
			<point x="304.333" y="28"/>
		</contour>
	</outline>
</glyph>
<glyph name="oslash" format="2">
	<unicode hex="00F8"/>
	<advance width="525"/>
	<outline>
		<contour>
			<point x="426" y="461" type="curve"/>
			<point x="383.667" y="409" type="line"/>
			<point x="351.333" y="428.667"/>
			<point x="311.333" y="440.667"/>
			<point x="262.333" y="440.667" type="curve" smooth="yes"/>
			<point x="190.667" y="440.667"/>
			<point x="134" y="413"/>
			<point x="96.3333" y="369.333" type="curve" smooth="yes"/>
			<point x="59.6667" y="326"/>
			<point x="41.3333" y="267.333"/>
			<point x="41.3333" y="205.667" type="curve" smooth="yes"/>
			<point x="41.3333" y="151.667"/>
			<point x="60" y="99.6667"/>
			<point x="95.6667" y="59.6667" type="curve"/>
			<point x="44.6667" y="-2" type="line"/>
			<point x="48.0846" y="-13.853"/>
			<point x="63.7959" y="-28.0408"/>
			<point x="76.6667" y="-30" type="curve"/>
			<point x="127" y="31.3333" type="line"/>
			<point x="161.667" y="5.66667"/>
			<point name=".hr01" x="206.667" y="-10"/>
			<point x="260.667" y="-10" type="curve" smooth="yes"/>
			<point x="327" y="-10"/>
			<point x="379.333" y="12"/>
			<point x="415.667" y="46.3333" type="curve" smooth="yes"/>
			<point x="462.667" y="90.6667"/>
			<point x="481.667" y="155.333"/>
			<point x="481.667" y="214.667" type="curve" smooth="yes"/>
			<point x="481.667" y="277.333"/>
			<point x="460.667" y="340"/>
			<point x="416" y="383.667" type="curve"/>
			<point x="459" y="436" type="line"/>
			<point x="454.321" y="446.244"/>
			<point x="439.849" y="459.028"/>
		</contour>
		<contour>
			<point x="358" y="312.667" type="line"/>
			<point x="370.667" y="278.667"/>
			<point x="377.667" y="234.667"/>
			<point x="377.667" y="182.667" type="curve" smooth="yes"/>
			<point x="377.667" y="58.6667"/>
			<point x="318.667" y="27.3333"/>
			<point x="275.333" y="27.3333" type="curve" smooth="yes"/>
			<point x="229.333" y="27.3333"/>
			<point x="198.667" y="55.3333"/>
			<point x="177.667" y="93" type="curve"/>
		</contour>
		<contour>
			<point x="247" y="403.333" type="curve" smooth="yes"/>
			<point x="284" y="403.333"/>
			<point x="315.333" y="386.333"/>
			<point x="337.333" y="353.333" type="curve"/>
			<point x="159.333" y="137.667" type="line"/>
			<point x="149.667" y="168.333"/>
			<point x="145.333" y="201.333"/>
			<point x="145.333" y="228.333" type="curve" smooth="yes"/>
			<point x="145.333" y="317"/>
			<point x="164.667" y="403.333"/>
		</contour>
	</outline>
	<anchor name="m.uni0316_2" x="243" y="-110"/>
	<anchor name="b.uni0321_4" x="372" y="44"/>
</glyph>
<glyph name="thorn" format="2">
	<unicode hex="00FE"/>
	<advance width="531"/>
	<outline>
		<contour>
			<point x="186" y="-110" type="curve" smooth="yes"/>
			<point x="186" y="-10" type="line" smooth="yes"/>
			<point x="186" y="0"/>
			<point x="186.667" y="5"/>
			<point x="188.667" y="7.66667" type="curve"/>
			<point x="192" y="8"/>
			<point x="195.667" y="6"/>
			<point x="200" y="4" type="curve"/>
			<point x="204" y="2" type="line"/>
			<point x="223.667" y="-5.66667"/>
			<point x="244.333" y="-10"/>
			<point x="268.333" y="-10" type="curve" smooth="yes"/>
			<point x="325.333" y="-10"/>
			<point x="376" y="8.66667"/>
			<point x="416" y="45.6667" type="curve" smooth="yes"/>
			<point x="464.667" y="90"/>
			<point x="493.333" y="153.667"/>
			<point x="493.333" y="235.667" type="curve" smooth="yes"/>
			<point x="493.333" y="289.667"/>
			<point x="474.333" y="344.333"/>
			<point x="440.667" y="382" type="curve" smooth="yes"/>
			<point x="409" y="419"/>
			<point x="364.333" y="440.667"/>
			<point x="314.333" y="440.667" type="curve" smooth="yes"/>
			<point x="270.667" y="440.667"/>
			<point x="226.667" y="411.667"/>
			<point x="198.333" y="383.667" type="curve" smooth="yes"/>
			<point x="188" y="373.333"/>
			<point x="186.333" y="373"/>
			<point x="186" y="387.333" type="curve"/>
			<point x="186" y="580.333" type="line" smooth="yes"/>
			<point x="186" y="640.333"/>
			<point x="190" y="685.667"/>
			<point x="190" y="685.667" type="curve"/>
			<point x="190" y="694"/>
			<point name=".hr01" x="184.333" y="698"/>
			<point x="173.667" y="698" type="curve"/>
			<point x="147.667" y="687.667"/>
			<point x="70.6667" y="675.667"/>
			<point x="21" y="670.667" type="curve"/>
			<point x="19" y="663.333"/>
			<point x="21" y="645.333"/>
			<point x="25.6667" y="639.333" type="curve"/>
			<point x="30.6667" y="639"/>
			<point x="35.3333" y="638.667"/>
			<point x="39.6667" y="638.333" type="curve" smooth="yes"/>
			<point x="80.3333" y="634.667"/>
			<point x="90" y="630.667"/>
			<point x="90" y="562" type="curve" smooth="yes"/>
			<point x="90" y="-110" type="line" smooth="yes"/>
			<point x="90" y="-193"/>
			<point x="79" y="-197"/>
			<point x="18" y="-200.667" type="curve"/>
			<point x="12" y="-206.667"/>
			<point x="12" y="-228"/>
			<point x="18" y="-234" type="curve"/>
			<point x="60" y="-233"/>
			<point x="91.3333" y="-232"/>
			<point x="138.333" y="-232" type="curve" smooth="yes"/>
			<point x="187.333" y="-232"/>
			<point x="221.667" y="-233"/>
			<point x="264.667" y="-234" type="curve"/>
			<point x="270.667" y="-228"/>
			<point x="270.667" y="-206.667"/>
			<point x="264.667" y="-200.667" type="curve"/>
			<point x="197" y="-196.667"/>
			<point name=".hr02" x="186" y="-193"/>
		</contour>
		<contour>
			<point x="184.667" y="305.667" type="line"/>
			<point name=".hr03" x="194.333" y="361.333"/>
			<point x="256.333" y="387.667"/>
			<point x="286.333" y="387.667" type="curve" smooth="yes"/>
			<point x="308.333" y="387.667"/>
			<point x="326.333" y="379"/>
			<point x="341.333" y="363.333" type="curve" smooth="yes"/>
			<point x="377.667" y="326"/>
			<point x="389.333" y="272"/>
			<point x="389.333" y="208.667" type="curve" smooth="yes"/>
			<point x="389.333" y="122.667"/>
			<point x="362.667" y="26.6667"/>
			<point x="263" y="26.6667" type="curve" smooth="yes"/>
			<point x="251" y="26.6667"/>
			<point x="227" y="28.3333"/>
			<point x="202.333" y="49.3333" type="curve" smooth="yes"/>
			<point x="200.333" y="51"/>
			<point x="198" y="52.6667"/>
			<point x="196" y="55" type="curve"/>
			<point x="188" y="66.6667"/>
			<point x="184.667" y="76"/>
			<point x="184.667" y="102.333" type="curve" smooth="yes"/>
		</contour>
	</outline>
	<anchor name="m.uni0302" x="278" y="646"/>
</glyph>
<glyph name="Aogonek" format="2">
	<unicode hex="0104"/>
	<advance width="710"/>
	<outline>
		<contour>
			<point x="693" y="-149" type="curve"/>
			<point x="688.667" y="-141.667"/>
			<point x="683" y="-136.667"/>
			<point x="675.333" y="-134" type="curve"/>
			<point x="657" y="-152.333"/>
			<point x="640.667" y="-164.667"/>
			<point x="616.667" y="-165" type="curve"/>
			<point x="610.333" y="-165.333"/>
			<point x="604" y="-164.667"/>
			<point x="599.333" y="-164" type="curve"/>
			<point x="578.333" y="-159.333"/>
			<point x="567" y="-144.667"/>
			<point x="567" y="-120" type="curve" smooth="yes"/>
			<point x="567" y="-77.6667"/>
			<point x="597" y="-28"/>
			<point x="639.667" y="-10" type="curve"/>
			<point x="659.333" y="-5"/>
			<point x="680.333" y="-1.66667"/>
			<point x="700" y="-2" type="curve"/>
			<point x="706" y="4"/>
			<point x="706" y="25.3333"/>
			<point x="700" y="31.3333" type="curve"/>
			<point x="661" y="35.3333"/>
			<point x="627.333" y="37"/>
			<point x="610" y="86" type="curve" smooth="yes"/>
			<point x="404" y="658" type="line"/>
			<point x="389" y="649"/>
			<point x="351" y="630"/>
			<point x="330.667" y="630" type="curve"/>
			<point x="111" y="112" type="line"/>
			<point x="107" y="102" type="line" smooth="yes"/>
			<point x="81" y="40"/>
			<point x="51" y="34.3333"/>
			<point x="7" y="31.3333" type="curve"/>
			<point x="1" y="25.3333"/>
			<point x="1" y="4"/>
			<point x="7" y="-2" type="curve"/>
			<point x="36.6667" y="-1"/>
			<point x="64.6667" y="0"/>
			<point x="97.6667" y="0" type="curve" smooth="yes"/>
			<point x="138.667" y="0"/>
			<point x="190.333" y="-1"/>
			<point x="227.333" y="-2" type="curve"/>
			<point x="233.333" y="4"/>
			<point x="233.333" y="25.3333"/>
			<point x="227.333" y="31.3333" type="curve"/>
			<point x="189.333" y="34.3333"/>
			<point x="142.333" y="38"/>
			<point x="158.333" y="79" type="curve" smooth="yes"/>
			<point x="212.667" y="222" type="line" smooth="yes"/>
			<point x="217.667" y="235"/>
			<point x="223.667" y="239"/>
			<point x="247.667" y="239" type="curve" smooth="yes"/>
			<point x="451.667" y="239" type="line"/>
			<point x="505.667" y="82" type="line"/>
			<point x="509" y="72" type="line" smooth="yes"/>
			<point x="519.667" y="41.3333"/>
			<point x="493.333" y="35.6667"/>
			<point x="456.667" y="33" type="curve"/>
			<point x="450" y="32.3333"/>
			<point x="442.333" y="32"/>
			<point x="435" y="31.3333" type="curve"/>
			<point x="429" y="25.3333"/>
			<point x="429" y="4"/>
			<point x="435" y="-2" type="curve"/>
			<point x="469.333" y="-1"/>
			<point x="527.333" y="0"/>
			<point x="568.667" y="0" type="curve" smooth="yes"/>
			<point x="592" y="0" type="line"/>
			<point x="534.667" y="-28.3333"/>
			<point x="495" y="-85.3333"/>
			<point x="495" y="-129.333" type="curve" smooth="yes"/>
			<point x="495" y="-156"/>
			<point x="503.667" y="-175"/>
			<point x="518" y="-187.333" type="curve"/>
			<point x="528.667" y="-198.333"/>
			<point x="543" y="-205.333"/>
			<point x="560" y="-208" type="curve" smooth="yes"/>
			<point x="572.333" y="-210"/>
			<point x="585.333" y="-209.667"/>
			<point x="598.333" y="-208" type="curve"/>
			<point x="633.667" y="-205"/>
			<point x="668.333" y="-186.667"/>
		</contour>
		<contour>
			<point x="266.333" y="283" type="line" smooth="yes"/>
			<point x="244.333" y="283"/>
			<point x="237.333" y="286"/>
			<point x="241.333" y="296" type="curve" smooth="yes"/>
			<point x="338.667" y="543.333" type="line"/>
			<point x="345" y="543.333" type="line"/>
			<point x="435" y="283" type="line"/>
		</contour>
	</outline>
	<anchor name="m.uni0302" x="365" y="850"/>
</glyph>
<glyph name="dcaron" format="2">
	<unicode hex="010F"/>
	<advance width="550"/>
	<outline>
		<contour>
			<point x="351" y="48.6667" type="curve"/>
			<point x="353.667" y="24.6667"/>
			<point x="359.667" y="-4.33333"/>
			<point x="359.667" y="-4.33333" type="curve"/>
			<point x="365.333" y="-10.3333"/>
			<point x="371.333" y="-11.3333"/>
			<point x="380" y="-10" type="curve"/>
			<point x="407" y="5.33333"/>
			<point x="450.333" y="20"/>
			<point name=".hr01" x="514" y="27.6667" type="curve"/>
			<point x="518.667" y="33.6667"/>
			<point x="518" y="50.3333"/>
			<point x="513.333" y="56.3333" type="curve"/>
			<point x="452.667" y="61.3333"/>
			<point x="443" y="79.3333"/>
			<point x="443" y="131" type="curve" smooth="yes"/>
			<point x="443" y="583" type="line" smooth="yes"/>
			<point x="443" y="648"/>
			<point x="446.667" y="687"/>
			<point x="446.667" y="687" type="curve"/>
			<point x="446.667" y="694.667"/>
			<point x="441.667" y="698"/>
			<point x="432.667" y="698" type="curve"/>
			<point x="403.667" y="687.333"/>
			<point x="327" y="674.333"/>
			<point x="276.667" y="671.333" type="curve"/>
			<point x="274.333" y="662"/>
			<point x="276" y="647"/>
			<point x="281.667" y="640" type="curve"/>
			<point x="286.333" y="639.667"/>
			<point x="290.667" y="639.667"/>
			<point x="294.667" y="639.333" type="curve" smooth="yes"/>
			<point x="338.333" y="636"/>
			<point x="347" y="633"/>
			<point x="347" y="560.333" type="curve" smooth="yes"/>
			<point x="347" y="436.333" type="line" smooth="yes"/>
			<point x="347" y="433"/>
			<point x="347" y="429.333"/>
			<point x="345.667" y="427" type="curve"/>
			<point x="343.667" y="426.667"/>
			<point x="341" y="426.333"/>
			<point x="337" y="426.667" type="curve"/>
			<point x="328.667" y="428.333"/>
			<point x="294.667" y="440.667"/>
			<point x="265" y="440.667" type="curve" smooth="yes"/>
			<point x="201.333" y="440.667"/>
			<point x="153.333" y="418"/>
			<point x="112.333" y="380" type="curve" smooth="yes"/>
			<point x="66.6667" y="336"/>
			<point x="38.3333" y="274.667"/>
			<point x="38.3333" y="201.333" type="curve" smooth="yes"/>
			<point x="38.3333" y="132.333"/>
			<point x="60" y="68"/>
			<point x="104.333" y="30.6667" type="curve"/>
			<point x="134.333" y="4"/>
			<point name=".hr02" x="166.667" y="-10"/>
			<point x="214" y="-10" type="curve" smooth="yes"/>
			<point x="249" y="-10"/>
			<point x="298.333" y="18"/>
			<point x="338" y="49.3333" type="curve"/>
			<point x="342.333" y="52"/>
			<point x="349.333" y="53.3333"/>
		</contour>
		<contour>
			<point x="336.667" y="88.3333" type="curve"/>
			<point x="305" y="61.3333"/>
			<point x="266" y="43.3333"/>
			<point x="245.333" y="43.3333" type="curve" smooth="yes"/>
			<point x="192.667" y="43.3333"/>
			<point x="142.333" y="101.333"/>
			<point x="142.333" y="223.667" type="curve" smooth="yes"/>
			<point x="142.333" y="289.333"/>
			<point x="153.667" y="331.333"/>
			<point x="170" y="355.667" type="curve" smooth="yes"/>
			<point x="196.333" y="396"/>
			<point x="233.333" y="403.333"/>
			<point x="256.667" y="403.333" type="curve" smooth="yes"/>
			<point x="289.333" y="403.333"/>
			<point x="314.333" y="393.667"/>
			<point x="335.667" y="367.333" type="curve"/>
			<point x="345" y="351.667"/>
			<point x="347" y="341.667"/>
			<point x="347" y="316" type="curve" smooth="yes"/>
			<point x="347" y="127.667" type="line" smooth="yes"/>
			<point x="347" y="122"/>
			<point x="347" y="117"/>
			<point x="346.333" y="112" type="curve" smooth="yes"/>
			<point x="345" y="103.333"/>
			<point x="342.333" y="96.3333"/>
		</contour>
		<contour>
			<point x="525" y="698" type="curve" smooth="yes"/>
			<point x="493" y="698"/>
			<point x="480" y="680"/>
			<point x="480" y="664" type="curve" smooth="yes"/>
			<point x="480" y="648"/>
			<point x="485" y="625"/>
			<point x="526" y="625" type="curve" smooth="yes"/>
			<point x="533.667" y="625"/>
			<point x="539" y="617"/>
			<point x="539" y="605" type="curve" smooth="yes"/>
			<point x="539" y="582"/>
			<point x="519" y="545"/>
			<point x="477" y="536" type="curve"/>
			<point x="481.667" y="519" type="line"/>
			<point x="558.667" y="526"/>
			<point x="585" y="592.333"/>
			<point x="585" y="625" type="curve" smooth="yes"/>
			<point x="585" y="661"/>
			<point x="563" y="698"/>
		</contour>
	</outline>
</glyph>
<glyph name="Dcroat" format="2">
	<unicode hex="0110"/>
	<advance width="712"/>
	<outline>
		<contour>
			<point x="161" y="0" type="curve" smooth="yes"/>
			<point x="199" y="0"/>
			<point x="254.333" y="-2"/>
			<point x="336.333" y="-2" type="curve" smooth="yes"/>
			<point x="418.333" y="-2"/>
			<point x="513.333" y="18.6667"/>
			<point x="581.667" y="80" type="curve" smooth="yes"/>
			<point x="632.333" y="126"/>
			<point x="667.333" y="202.333"/>
			<point x="667.333" y="308.333" type="curve" smooth="yes"/>
			<point x="667.333" y="494"/>
			<point x="525.333" y="646.667"/>
			<point x="315.333" y="646.667" type="curve" smooth="yes"/>
			<point x="262.333" y="646.667"/>
			<point x="219" y="645.667"/>
			<point x="181.667" y="645" type="curve"/>
			<point x="172.667" y="645"/>
			<point x="163.333" y="645"/>
			<point x="154.333" y="645" type="curve" smooth="yes"/>
			<point x="114" y="645"/>
			<point x="49.6667" y="646.333"/>
			<point x="23" y="647" type="curve"/>
			<point x="15.6667" y="641"/>
			<point x="15.6667" y="619.667"/>
			<point x="23" y="613.667" type="curve"/>
			<point x="88" y="610.667"/>
			<point x="108.667" y="606"/>
			<point x="108.667" y="523" type="curve" smooth="yes"/>
			<point x="108.667" y="327" type="line"/>
			<point x="83.3333" y="327.333"/>
			<point x="57.3333" y="327.667"/>
			<point x="33" y="328" type="curve"/>
			<point x="24.3333" y="323"/>
			<point x="17.6667" y="309.333"/>
			<point x="16.6667" y="299" type="curve"/>
			<point x="16.3333" y="293.667"/>
			<point x="18" y="288"/>
			<point x="23.6667" y="284.667" type="curve"/>
			<point x="51" y="285.333"/>
			<point x="80" y="285.667"/>
			<point x="108.667" y="285.667" type="curve"/>
			<point x="108.667" y="122" type="line" smooth="yes"/>
			<point x="108.667" y="39"/>
			<point x="88" y="34.3333"/>
			<point x="23" y="31.3333" type="curve"/>
			<point x="15.6667" y="25.3333"/>
			<point x="15.6667" y="4"/>
			<point x="23" y="-2" type="curve"/>
			<point x="49" y="-1.33333"/>
			<point x="122.333" y="0"/>
		</contour>
		<contour>
			<point x="212" y="95.6667" type="curve" smooth="yes"/>
			<point x="212" y="285.667" type="line"/>
			<point x="247.667" y="285.667"/>
			<point x="283.667" y="285.333"/>
			<point x="318" y="284.667" type="curve"/>
			<point x="327" y="291.667"/>
			<point x="335.667" y="307.667"/>
			<point x="336.667" y="319.333" type="curve"/>
			<point x="334.667" y="322.667"/>
			<point x="329.667" y="327"/>
			<point x="321.333" y="327.667" type="curve"/>
			<point x="285.333" y="327.333"/>
			<point x="249.333" y="327"/>
			<point x="212" y="327" type="curve"/>
			<point x="212" y="532.333" type="line" smooth="yes"/>
			<point x="212" y="542.667"/>
			<point x="212.333" y="552.667"/>
			<point x="213" y="562" type="curve" smooth="yes"/>
			<point x="215.667" y="596.333"/>
			<point x="246.333" y="610"/>
			<point x="288.667" y="610" type="curve" smooth="yes"/>
			<point x="498.333" y="610"/>
			<point x="553" y="437"/>
			<point x="553" y="284" type="curve" smooth="yes"/>
			<point x="553" y="88.6667"/>
			<point x="436" y="34.6667"/>
			<point x="316.667" y="34.6667" type="curve" smooth="yes"/>
			<point x="228" y="34.6667"/>
			<point x="212" y="52"/>
		</contour>
	</outline>
</glyph>
<glyph name="dcroat" format="2">
	<unicode hex="0111"/>
	<advance width="524"/>
	<outline>
		<contour>
			<point x="351" y="48.6667" type="curve"/>
			<point x="353.667" y="24.6667"/>
			<point x="359.667" y="-4.33333"/>
			<point x="359.667" y="-4.33333" type="curve"/>
			<point x="365.333" y="-10.3333"/>
			<point x="371.333" y="-11.3333"/>
			<point x="380" y="-10" type="curve"/>
			<point x="407" y="5.33333"/>
			<point x="450.333" y="20"/>
			<point name=".hr01" x="514" y="27.6667" type="curve"/>
			<point x="518.667" y="33.6667"/>
			<point x="518" y="50.3333"/>
			<point x="513.333" y="56.3333" type="curve"/>
			<point x="452.667" y="61.3333"/>
			<point x="443" y="79.3333"/>
			<point x="443" y="131" type="curve" smooth="yes"/>
			<point x="443" y="529.667" type="line"/>
			<point x="461.333" y="529.333"/>
			<point x="480" y="529"/>
			<point x="497.333" y="528.667" type="curve"/>
			<point x="506.333" y="535.667"/>
			<point x="514.667" y="551.667"/>
			<point x="515.667" y="563.333" type="curve"/>
			<point x="513" y="566.667"/>
			<point x="507.667" y="571"/>
			<point x="499" y="571.667" type="curve"/>
			<point x="480.333" y="571.333"/>
			<point x="462" y="571"/>
			<point x="443" y="571" type="curve"/>
			<point x="443" y="583" type="line" smooth="yes"/>
			<point x="443" y="648"/>
			<point x="446.667" y="687"/>
			<point x="446.667" y="687" type="curve"/>
			<point x="446.667" y="694.667"/>
			<point x="441.667" y="698"/>
			<point x="432.667" y="698" type="curve"/>
			<point x="403.667" y="687.333"/>
			<point x="327" y="674.333"/>
			<point x="276.667" y="671.333" type="curve"/>
			<point x="274.333" y="662"/>
			<point x="276" y="647"/>
			<point x="281.667" y="640" type="curve"/>
			<point x="288.333" y="639.667"/>
			<point x="294" y="639.333"/>
			<point x="299" y="639" type="curve"/>
			<point x="337" y="635"/>
			<point x="346.333" y="631"/>
			<point x="347" y="570.667" type="curve"/>
			<point x="305.333" y="571"/>
			<point x="263.333" y="571.333"/>
			<point x="223" y="572" type="curve"/>
			<point x="214.333" y="566.667"/>
			<point x="207.667" y="552.333"/>
			<point x="206.667" y="541.667" type="curve"/>
			<point x="206.667" y="536.667"/>
			<point x="208.333" y="531.333"/>
			<point x="214" y="528.667" type="curve"/>
			<point x="257.333" y="529.333"/>
			<point x="302.333" y="529.667"/>
			<point x="347" y="530" type="curve"/>
			<point x="347" y="436" type="line" smooth="yes"/>
			<point x="347" y="432.667"/>
			<point x="347" y="429"/>
			<point x="345.667" y="427" type="curve"/>
			<point x="344" y="426.667"/>
			<point x="341.667" y="426.333"/>
			<point x="337.667" y="426.667" type="curve"/>
			<point x="329.333" y="428.333"/>
			<point x="295" y="440.667"/>
			<point x="265" y="440.667" type="curve" smooth="yes"/>
			<point x="201" y="440.667"/>
			<point x="153" y="418"/>
			<point x="111.667" y="379.333" type="curve" smooth="yes"/>
			<point x="66.3333" y="335.667"/>
			<point x="38.3333" y="274.333"/>
			<point x="38.3333" y="201.333" type="curve" smooth="yes"/>
			<point x="38.3333" y="133"/>
			<point x="60" y="69.3333"/>
			<point x="103" y="31.3333" type="curve" smooth="yes"/>
			<point x="133" y="4.66667"/>
			<point name=".hr02" x="166" y="-10"/>
			<point x="214" y="-10" type="curve" smooth="yes"/>
			<point x="249" y="-10"/>
			<point x="298.333" y="18"/>
			<point x="338" y="49.3333" type="curve"/>
			<point x="342.333" y="52"/>
			<point x="349.333" y="53.3333"/>
		</contour>
		<contour>
			<point x="336.667" y="88.3333" type="curve"/>
			<point x="305" y="61.3333"/>
			<point x="266" y="43.3333"/>
			<point x="245.333" y="43.3333" type="curve" smooth="yes"/>
			<point x="192.667" y="43.3333"/>
			<point x="142.333" y="101.333"/>
			<point x="142.333" y="223.667" type="curve" smooth="yes"/>
			<point x="142.333" y="289.333"/>
			<point x="153.667" y="331.333"/>
			<point x="170" y="355.667" type="curve" smooth="yes"/>
			<point x="196.333" y="396"/>
			<point x="233.333" y="403.333"/>
			<point x="256.667" y="403.333" type="curve" smooth="yes"/>
			<point x="289.333" y="403.333"/>
			<point x="314.333" y="393.667"/>
			<point x="335.667" y="367.333" type="curve"/>
			<point x="345" y="351.667"/>
			<point x="347" y="341.667"/>
			<point x="347" y="316" type="curve" smooth="yes"/>
			<point x="347" y="127.667" type="line" smooth="yes"/>
			<point x="347" y="122"/>
			<point x="347" y="117"/>
			<point x="346.333" y="112" type="curve" smooth="yes"/>
			<point x="345" y="103.333"/>
			<point x="342.333" y="96.3333"/>
		</contour>
	</outline>
</glyph>
<glyph name="uni0122" format="2">
	<unicode hex="0122"/>
	<advance width="701"/>
	<outline>
		<contour>
			<point x="383" y="658" type="curve" smooth="yes"/>
			<point x="295" y="658"/>
			<point x="208.667" y="625.667"/>
			<point x="142.333" y="565" type="curve" smooth="yes"/>
			<point x="77.3333" y="505"/>
			<point x="35.6667" y="416.333"/>
			<point x="35.6667" y="307" type="curve" smooth="yes"/>
			<point x="35.6667" y="212.333"/>
			<point x="71.6667" y="124.667"/>
			<point x="137.333" y="66.6667" type="curve" smooth="yes"/>
			<point x="192.667" y="18"/>
			<point x="265.333" y="-8.66667"/>
			<point x="355" y="-10" type="curve"/>
			<point x="363" y="-10"/>
			<point x="371" y="-10"/>
			<point x="378.333" y="-10" type="curve"/>
			<point x="487" y="-8"/>
			<point x="580.333" y="20.6667"/>
			<point x="643.667" y="74.6667" type="curve"/>
			<point x="633" y="83.6667"/>
			<point x="628" y="91.6667"/>
			<point x="628" y="102.667" type="curve" smooth="yes"/>
			<point x="628" y="219" type="line" smooth="yes"/>
			<point x="628" y="254"/>
			<point x="644.333" y="264"/>
			<point x="673" y="267" type="curve"/>
			<point x="679" y="273"/>
			<point x="679" y="297.333"/>
			<point x="673" y="303.333" type="curve"/>
			<point x="649.333" y="302.333"/>
			<point x="620.333" y="301.333"/>
			<point x="582.667" y="301.333" type="curve" smooth="yes"/>
			<point x="577" y="301.333"/>
			<point x="570.667" y="301.333"/>
			<point x="564" y="301.333" type="curve" smooth="yes"/>
			<point x="531" y="301.333"/>
			<point x="483.667" y="302.333"/>
			<point x="444" y="303.333" type="curve"/>
			<point x="438" y="297.333"/>
			<point x="438" y="273"/>
			<point x="444" y="267" type="curve"/>
			<point x="498" y="263"/>
			<point x="524.667" y="259"/>
			<point x="524.667" y="219" type="curve" smooth="yes"/>
			<point x="524.667" y="67.3333" type="line"/>
			<point x="494" y="38"/>
			<point x="449.333" y="29.3333"/>
			<point x="399.667" y="28" type="curve"/>
			<point x="395" y="28"/>
			<point x="390.333" y="28"/>
			<point x="385.667" y="28" type="curve" smooth="yes"/>
			<point x="224" y="28"/>
			<point x="150" y="195"/>
			<point x="150" y="327" type="curve" smooth="yes"/>
			<point x="150" y="419.667"/>
			<point x="177" y="499"/>
			<point x="223.333" y="550.667" type="curve" smooth="yes"/>
			<point x="263.667" y="597"/>
			<point x="316.667" y="620"/>
			<point x="369" y="620" type="curve" smooth="yes"/>
			<point x="509" y="620"/>
			<point x="558.333" y="539"/>
			<point x="584" y="453" type="curve"/>
			<point x="596.667" y="451.667"/>
			<point x="609.333" y="453.667"/>
			<point x="620.667" y="459" type="curve"/>
			<point x="616.333" y="501"/>
			<point x="611.333" y="544.333"/>
			<point x="598.333" y="616.333" type="curve"/>
			<point x="541" y="623"/>
			<point x="498.667" y="658"/>
		</contour>
		<contour>
			<point x="373.667" y="-44.3333" type="curve" smooth="yes"/>
			<point x="348.667" y="-44.3333"/>
			<point x="326.667" y="-61.3333"/>
			<point x="324" y="-80.3333" type="curve"/>
			<point x="323.333" y="-83.6667"/>
			<point x="323.333" y="-86"/>
			<point x="323.667" y="-89" type="curve"/>
			<point x="324.333" y="-110.667"/>
			<point x="340" y="-121.333"/>
			<point x="357" y="-125.333" type="curve" smooth="yes"/>
			<point x="359.667" y="-126"/>
			<point x="362.333" y="-127"/>
			<point x="364.333" y="-127" type="curve"/>
			<point x="377.667" y="-129"/>
			<point x="390" y="-132.333"/>
			<point x="392" y="-145.667" type="curve"/>
			<point x="392.667" y="-147.667"/>
			<point x="392.667" y="-149.667"/>
			<point x="392.667" y="-151.667" type="curve" smooth="yes"/>
			<point x="392.667" y="-169.667"/>
			<point x="367" y="-193.667"/>
			<point x="321" y="-204.667" type="curve"/>
			<point x="319.667" y="-214.667"/>
			<point x="321" y="-224"/>
			<point x="328.333" y="-230" type="curve"/>
			<point x="388" y="-220.333"/>
			<point x="437.333" y="-188"/>
			<point x="439" y="-130.333" type="curve"/>
			<point x="439" y="-127"/>
			<point x="439" y="-124"/>
			<point x="439" y="-120.333" type="curve"/>
			<point x="437" y="-68.6667"/>
			<point x="407.667" y="-44.3333"/>
		</contour>
	</outline>
</glyph>
<glyph name="uni0123" format="2">
	<unicode hex="0123"/>
	<advance width="507"/>
	<outline>
		<contour>
			<point x="451.667" y="389.333" type="curve" smooth="yes"/>
			<point x="473.667" y="389.333"/>
			<point x="491" y="405.333"/>
			<point x="491" y="431" type="curve" smooth="yes"/>
			<point x="491" y="450.333"/>
			<point x="472" y="469"/>
			<point x="444.333" y="471" type="curve" smooth="yes"/>
			<point x="440.667" y="471.333"/>
			<point x="437.333" y="471.667"/>
			<point x="433.667" y="471" type="curve"/>
			<point x="401" y="469"/>
			<point x="353.667" y="447.333"/>
			<point x="328.667" y="418" type="curve"/>
			<point x="314.667" y="426.667"/>
			<point name=".hr01" x="285.667" y="440.667"/>
			<point x="231.333" y="440.667" type="curve" smooth="yes"/>
			<point x="190.333" y="440.667"/>
			<point x="150.333" y="429.333"/>
			<point x="118.667" y="406.667" type="curve" smooth="yes"/>
			<point x="81.6667" y="381.333"/>
			<point x="57" y="342.667"/>
			<point x="55.6667" y="294.667" type="curve"/>
			<point x="55.3333" y="289.667"/>
			<point x="55.3333" y="285"/>
			<point x="56" y="280.667" type="curve"/>
			<point x="58" y="233.667"/>
			<point x="83" y="198"/>
			<point x="115.667" y="172.667" type="curve"/>
			<point x="87.6667" y="148.667"/>
			<point x="63" y="104.667"/>
			<point name=".hr02" x="60.3333" y="74.3333" type="curve" smooth="yes"/>
			<point x="60" y="70.6667"/>
			<point x="60" y="66.6667"/>
			<point x="60.6667" y="63.3333" type="curve"/>
			<point x="62" y="48.3333"/>
			<point x="65.6667" y="37"/>
			<point x="73" y="25.3333" type="curve"/>
			<point x="82" y="12"/>
			<point x="93.3333" y="2.66667"/>
			<point x="108.667" y="-4" type="curve"/>
			<point x="61" y="-32.6667"/>
			<point x="27.6667" y="-79"/>
			<point name=".hr03" x="25" y="-111.333" type="curve"/>
			<point x="25" y="-114.667"/>
			<point x="25" y="-118.667"/>
			<point x="25" y="-122.333" type="curve"/>
			<point x="26" y="-158"/>
			<point x="40" y="-187.333"/>
			<point x="62.6667" y="-204.333" type="curve" smooth="yes"/>
			<point x="95.3333" y="-229.333"/>
			<point x="145.667" y="-237.667"/>
			<point x="191.333" y="-238" type="curve"/>
			<point x="195.333" y="-238"/>
			<point x="199.667" y="-238"/>
			<point x="203.667" y="-238" type="curve"/>
			<point x="337.333" y="-235.333"/>
			<point x="481.667" y="-168.333"/>
			<point x="481.667" y="-61.6667" type="curve" smooth="yes"/>
			<point x="481.667" y="-33.3333"/>
			<point x="468.333" y="-2.33333"/>
			<point x="435.667" y="22.6667" type="curve" smooth="yes"/>
			<point x="401.667" y="49.3333"/>
			<point x="332.667" y="53"/>
			<point x="286.333" y="54.3333" type="curve" smooth="yes"/>
			<point x="264.333" y="55"/>
			<point x="238" y="54"/>
			<point x="213.667" y="52.3333" type="curve" smooth="yes"/>
			<point x="204.333" y="51.6667"/>
			<point x="196.333" y="51.6667"/>
			<point x="190.667" y="51" type="curve"/>
			<point x="188.667" y="51"/>
			<point x="187.333" y="51"/>
			<point x="186" y="51" type="curve" smooth="yes"/>
			<point x="162.667" y="51"/>
			<point x="133.667" y="59"/>
			<point name=".hr04" x="129" y="94.3333" type="curve"/>
			<point x="128.333" y="97"/>
			<point x="128.333" y="99.6667"/>
			<point x="128.333" y="103" type="curve" smooth="yes"/>
			<point x="128.333" y="121.667"/>
			<point x="135.667" y="140.333"/>
			<point x="145.333" y="155.667" type="curve"/>
			<point x="168.333" y="143"/>
			<point x="194" y="138"/>
			<point x="230.333" y="138" type="curve" smooth="yes"/>
			<point x="276.667" y="138"/>
			<point x="320.333" y="151.667"/>
			<point x="353" y="179" type="curve" smooth="yes"/>
			<point x="379.333" y="201.667"/>
			<point x="398" y="232.667"/>
			<point x="402" y="272.333" type="curve" smooth="yes"/>
			<point x="402.667" y="280"/>
			<point x="403.333" y="287"/>
			<point x="403" y="294.667" type="curve" smooth="yes"/>
			<point x="401.667" y="342"/>
			<point x="383.667" y="371"/>
			<point x="354" y="399.333" type="curve"/>
			<point x="361.333" y="409.333"/>
			<point x="385.667" y="424.667"/>
			<point x="397.667" y="424.667" type="curve" smooth="yes"/>
			<point x="404" y="424.667"/>
			<point x="409" y="422"/>
			<point x="413.333" y="417.333" type="curve"/>
			<point x="415" y="415"/>
			<point x="416.667" y="412.667"/>
			<point x="418.667" y="409.667" type="curve"/>
			<point x="423.667" y="400.333"/>
			<point x="437.667" y="389.333"/>
		</contour>
		<contour>
			<point x="173" y="-18.3333" type="curve" smooth="yes"/>
			<point x="200.667" y="-18.3333"/>
			<point x="228.333" y="-16.3333"/>
			<point x="247" y="-17" type="curve" smooth="yes"/>
			<point x="293.333" y="-17.6667"/>
			<point x="334.667" y="-19.6667"/>
			<point x="363.667" y="-33.6667" type="curve" smooth="yes"/>
			<point x="394" y="-48.3333"/>
			<point x="408" y="-61"/>
			<point x="410.667" y="-79.6667" type="curve" smooth="yes"/>
			<point x="411.333" y="-84"/>
			<point x="411.333" y="-88"/>
			<point x="411" y="-92.3333" type="curve"/>
			<point x="410" y="-127"/>
			<point x="387.333" y="-156.667"/>
			<point x="352.333" y="-174" type="curve" smooth="yes"/>
			<point x="316.667" y="-192.667"/>
			<point x="267" y="-199.333"/>
			<point x="224.333" y="-199.333" type="curve" smooth="yes"/>
			<point x="180.333" y="-199.333"/>
			<point x="110" y="-166.333"/>
			<point x="107.667" y="-105.667" type="curve"/>
			<point name=".hr05" x="107.333" y="-100.667"/>
			<point x="107.333" y="-96"/>
			<point x="107.333" y="-92" type="curve"/>
			<point x="108" y="-62.6667"/>
			<point x="111.333" y="-39.6667"/>
			<point x="131.667" y="-13" type="curve"/>
			<point x="142.333" y="-16.3333"/>
			<point x="157.333" y="-18.3333"/>
		</contour>
		<contour>
			<point x="309.333" y="282" type="curve" smooth="yes"/>
			<point x="309.333" y="188"/>
			<point x="268.667" y="171.333"/>
			<point x="235.333" y="171.333" type="curve" smooth="yes"/>
			<point x="158.667" y="171.333"/>
			<point x="150" y="243.333"/>
			<point x="150" y="303" type="curve" smooth="yes"/>
			<point name=".hr06" x="150" y="374.333"/>
			<point x="172.667" y="407.333"/>
			<point x="222.333" y="407.333" type="curve" smooth="yes"/>
			<point x="280" y="407.333"/>
			<point x="309.333" y="363.667"/>
		</contour>
		<contour>
			<point x="229.333" y="510" type="curve" smooth="yes"/>
			<point x="257.667" y="510"/>
			<point x="277.667" y="530.333"/>
			<point x="279.667" y="546" type="curve"/>
			<point x="280.333" y="547.333"/>
			<point x="280.333" y="548.667"/>
			<point x="280.333" y="550" type="curve" smooth="yes"/>
			<point x="280.333" y="568.333"/>
			<point x="271.333" y="587.333"/>
			<point x="244" y="591.667" type="curve"/>
			<point x="241" y="592.667"/>
			<point x="236" y="592.667"/>
			<point x="231.333" y="593.333" type="curve"/>
			<point x="226.667" y="593.667"/>
			<point x="222.333" y="594"/>
			<point x="219.667" y="594" type="curve"/>
			<point x="210" y="594.333"/>
			<point x="207" y="596"/>
			<point x="207" y="608.667" type="curve" smooth="yes"/>
			<point x="207" y="630"/>
			<point x="228.667" y="659.333"/>
			<point x="280" y="671" type="curve"/>
			<point x="281.333" y="679.667"/>
			<point x="280.667" y="689"/>
			<point x="274.667" y="693.667" type="curve"/>
			<point x="237" y="688"/>
			<point x="207.333" y="671.667"/>
			<point x="188.667" y="650.667" type="curve" smooth="yes"/>
			<point x="172.333" y="631.333"/>
			<point x="164" y="609.333"/>
			<point x="164" y="584.667" type="curve" smooth="yes"/>
			<point x="164" y="539.667"/>
			<point x="192.667" y="510"/>
		</contour>
	</outline>
</glyph>
